Vimala.ufo
<glyph name="uni1B00" format="2">
  <advance width="0"/>
  <unicode hex="1B00"/>
  <anchor x="-315" y="534" name="_Anchor-2"/>
  <outline>
    <contour>
      <point x="-183" y="545" type="line"/>
      <point x="-144" y="601"/>
      <point x="-144" y="684" type="qcurve" smooth="yes"/>
      <point x="-144" y="860"/>
      <point x="-318" y="860" type="qcurve" smooth="yes"/>
      <point x="-402" y="860"/>
      <point x="-448" y="814" type="qcurve" smooth="yes"/>
      <point x="-496" y="768"/>
      <point x="-496" y="680" type="qcurve" smooth="yes"/>
      <point x="-496" y="601"/>
      <point x="-454" y="545" type="qcurve"/>
      <point x="-467" y="533" type="line"/>
      <point x="-545" y="604"/>
      <point x="-545" y="747" type="qcurve" smooth="yes"/>
      <point x="-545" y="754" type="line"/>
      <point x="-534" y="859"/>
      <point x="-474" y="908" type="qcurve" smooth="yes"/>
      <point x="-413" y="957"/>
      <point x="-318" y="957" type="qcurve" smooth="yes"/>
      <point x="-111" y="957"/>
      <point x="-91" y="754" type="qcurve"/>
      <point x="-91" y="750" type="line" smooth="yes"/>
      <point x="-91" y="605"/>
      <point x="-170" y="533" type="qcurve"/>
    </contour>
    <contour>
      <point x="-270" y="563" type="line"/>
      <point x="-233" y="601"/>
      <point x="-233" y="651" type="qcurve" smooth="yes"/>
      <point x="-233" y="654" type="line"/>
      <point x="-240" y="718"/>
      <point x="-319" y="719" type="qcurve" smooth="yes"/>
      <point x="-398" y="718"/>
      <point x="-405" y="654" type="qcurve"/>
      <point x="-405" y="651" type="line" smooth="yes"/>
      <point x="-405" y="601"/>
      <point x="-368" y="563" type="qcurve"/>
      <point x="-379" y="552" type="line"/>
      <point x="-441" y="605"/>
      <point x="-445" y="664" type="qcurve"/>
      <point x="-445" y="785"/>
      <point x="-325" y="785" type="qcurve" smooth="yes"/>
      <point x="-313" y="785" type="line" smooth="yes"/>
      <point x="-193" y="785"/>
      <point x="-193" y="664" type="qcurve"/>
      <point x="-197" y="605"/>
      <point x="-259" y="552" type="qcurve"/>
    </contour>
  </outline>
</glyph>
<glyph name="uni1B01" format="2">
  <advance width="0"/>
  <unicode hex="1B01"/>
  <anchor x="-342" y="493" name="_Anchor-2"/>
  <outline>
    <contour>
      <point x="-427" y="594" type="qcurve"/>
      <point x="-395" y="580"/>
      <point x="-341" y="578" type="qcurve" smooth="yes"/>
      <point x="-291" y="579"/>
      <point x="-255" y="593" type="qcurve"/>
      <point x="-275" y="684"/>
      <point x="-341" y="684" type="qcurve" smooth="yes"/>
      <point x="-407" y="684"/>
    </contour>
    <contour>
      <point x="-332" y="980" type="line"/>
      <point x="-320" y="740" type="line"/>
      <point x="-364" y="740" type="line"/>
      <point x="-353" y="980" type="line"/>
    </contour>
    <contour>
      <point x="-234" y="601" type="qcurve"/>
      <point x="-145" y="638"/>
      <point x="-137" y="749" type="qcurve"/>
      <point x="-120" y="749" type="line"/>
      <point x="-120" y="741" type="line" smooth="yes"/>
      <point x="-120" y="497"/>
      <point x="-341" y="494" type="qcurve"/>
      <point x="-562" y="497"/>
      <point x="-562" y="741" type="qcurve" smooth="yes"/>
      <point x="-562" y="749" type="line"/>
      <point x="-545" y="749" type="line"/>
      <point x="-537" y="637"/>
      <point x="-447" y="602" type="qcurve"/>
      <point x="-447" y="747"/>
      <point x="-341" y="747" type="qcurve" smooth="yes"/>
      <point x="-234" y="747"/>
    </contour>
  </outline>
</glyph>
<glyph name="uni1B02" format="2">
  <advance width="0"/>
  <unicode hex="1B02"/>
  <anchor x="-211" y="517" name="_Anchor-2"/>
  <outline>
    <contour>
      <point x="-125" y="542" type="line"/>
      <point x="-172" y="690"/>
      <point x="-279" y="795" type="qcurve"/>
      <point x="-241" y="854" type="line"/>
      <point x="-182" y="818"/>
      <point x="-116" y="639"/>
      <point x="-107" y="546" type="qcurve"/>
    </contour>
  </outline>
</glyph>
<glyph name="uni1B03" format="2">
  <advance width="0"/>
  <unicode hex="1B03"/>
  <anchor x="-309" y="533" name="_Anchor-2"/>
  <outline>
    <contour>
      <point x="-118" y="533" type="line"/>
      <point x="-350" y="533"/>
      <point x="-475" y="671" type="qcurve"/>
      <point x="-582" y="798"/>
      <point x="-605" y="973" type="qcurve"/>
      <point x="-525" y="952" type="line"/>
      <point x="-488" y="803"/>
      <point x="-413" y="696" type="qcurve" smooth="yes"/>
      <point x="-316" y="563"/>
      <point x="-112" y="551" type="qcurve"/>
    </contour>
  </outline>
</glyph>
<glyph name="uni1B04" format="2">
  <advance width="273"/>
  <unicode hex="1B04"/>
  <outline>
    <contour>
      <point x="186" y="-799" type="line"/>
      <point x="82" y="-622"/>
      <point x="82" y="-451" type="qcurve" smooth="yes"/>
      <point x="82" y="-343"/>
      <point x="124" y="-232" type="qcurve" smooth="yes"/>
      <point x="200" y="-35"/>
      <point x="200" y="57" type="qcurve" smooth="yes"/>
      <point x="200" y="98"/>
      <point x="185" y="118" type="qcurve" smooth="yes"/>
      <point x="137" y="183"/>
      <point x="43" y="198" type="qcurve"/>
      <point x="43" y="231" type="line"/>
      <point x="56" y="231" type="line" smooth="yes"/>
      <point x="190" y="231"/>
      <point x="198" y="292" type="qcurve" smooth="yes"/>
      <point x="199" y="305" type="line" smooth="yes"/>
      <point x="199" y="355"/>
      <point x="141" y="355" type="qcurve" smooth="yes"/>
      <point x="75" y="354"/>
      <point x="55" y="288" type="qcurve"/>
      <point x="40" y="291" type="line"/>
      <point x="40" y="303" type="line" smooth="yes"/>
      <point x="40" y="427"/>
      <point x="122" y="438" type="qcurve"/>
      <point x="150" y="440" type="line"/>
      <point x="249" y="440"/>
      <point x="249" y="328" type="qcurve" smooth="yes"/>
      <point x="249" y="237"/>
      <point x="160" y="212" type="qcurve"/>
      <point x="244" y="178"/>
      <point x="244" y="47" type="qcurve" smooth="yes"/>
      <point x="244" y="-57"/>
      <point x="182" y="-263" type="qcurve" smooth="yes"/>
      <point x="150" y="-372"/>
      <point x="150" y="-483" type="qcurve" smooth="yes"/>
      <point x="150" y="-626"/>
      <point x="205" y="-786" type="qcurve"/>
    </contour>
  </outline>
</glyph>
<glyph name="uni1B09" format="2">
  <advance width="578"/>
  <unicode hex="1B09"/>
  <anchor x="331" y="525" name="Anchor-2"/>
  <outline>
    <contour>
      <point x="223" y="-803" type="line"/>
      <point x="-48" y="-711"/>
      <point x="-48" y="-460" type="qcurve" smooth="yes"/>
      <point x="-48" y="-344"/>
      <point x="102" y="-138"/>
      <point x="238" y="-85" type="qcurve" smooth="yes"/>
      <point x="368" y="-34"/>
      <point x="493" y="89"/>
      <point x="493" y="171" type="qcurve" smooth="yes"/>
      <point x="493" y="335"/>
      <point x="333" y="342" type="qcurve" smooth="yes"/>
      <point x="259" y="342"/>
      <point x="187" y="256"/>
      <point x="187" y="190" type="qcurve" smooth="yes"/>
      <point x="187" y="141"/>
      <point x="216" y="96" type="qcurve"/>
      <point x="194" y="83" type="line"/>
      <point x="45" y="166"/>
      <point x="45" y="289" type="qcurve"/>
      <point x="47" y="320" type="line"/>
      <point x="64" y="325" type="line"/>
      <point x="101" y="198"/>
      <point x="158" y="161" type="qcurve"/>
      <point x="143" y="201"/>
      <point x="143" y="240" type="qcurve" smooth="yes"/>
      <point x="143" y="297"/>
      <point x="175" y="351" type="qcurve" smooth="yes"/>
      <point x="228" y="440"/>
      <point x="332" y="440" type="qcurve" smooth="yes"/>
      <point x="528" y="437"/>
      <point x="528" y="177" type="qcurve" smooth="yes"/>
      <point x="528" y="43"/>
      <point x="409" y="-140"/>
      <point x="291" y="-179" type="qcurve" smooth="yes"/>
      <point x="-7" y="-279"/>
      <point x="-7" y="-472" type="qcurve" smooth="yes"/>
      <point x="-7" y="-650"/>
      <point x="175" y="-740" type="qcurve"/>
      <point x="147" y="-691"/>
      <point x="147" y="-638" type="qcurve" smooth="yes"/>
      <point x="147" y="-435"/>
      <point x="385" y="-429" type="qcurve"/>
      <point x="397" y="-429" type="line"/>
      <point x="391" y="-528" type="line"/>
      <point x="183" y="-531"/>
      <point x="183" y="-664" type="qcurve" smooth="yes"/>
      <point x="183" y="-722"/>
      <point x="229" y="-794" type="qcurve"/>
    </contour>
    <contour>
      <point x="698" y="-799" type="line"/>
      <point x="624" y="-531"/>
      <point x="391" y="-528" type="qcurve"/>
      <point x="385" y="-429" type="line"/>
      <point x="397" y="-429" type="line"/>
      <point x="541" y="-434"/>
      <point x="677" y="-617"/>
      <point x="717" y="-791" type="qcurve"/>
    </contour>
  </outline>
</glyph>
<glyph name="uni1B0F" format="2">
  <advance width="554"/>
  <unicode hex="1B0F"/>
  <anchor x="311" y="535" name="Anchor-2"/>
  <outline>
    <contour>
      <point x="476" y="-3" type="qcurve"/>
      <point x="468" y="2" type="line"/>
      <point x="486" y="43"/>
      <point x="486" y="77" type="qcurve" smooth="yes"/>
      <point x="486" y="172"/>
      <point x="354" y="176" type="qcurve"/>
      <point x="193" y="175"/>
      <point x="193" y="66" type="qcurve" smooth="yes"/>
      <point x="193" y="37"/>
      <point x="209" y="7" type="qcurve"/>
      <point x="202" y="-1" type="line"/>
      <point x="54" y="25"/>
      <point x="31" y="161" type="qcurve"/>
      <point x="30" y="184" type="line"/>
      <point x="30" y="399"/>
      <point x="298" y="458" type="qcurve"/>
      <point x="304" y="447" type="line"/>
      <point x="61" y="321"/>
      <point x="61" y="163" type="qcurve"/>
      <point x="67" y="90"/>
      <point x="167" y="74" type="qcurve"/>
      <point x="166" y="96" type="line" smooth="yes"/>
      <point x="166" y="170"/>
      <point x="261" y="269"/>
      <point x="354" y="269" type="qcurve" smooth="yes"/>
      <point x="443" y="269"/>
      <point x="527" y="181"/>
      <point x="527" y="113" type="qcurve" smooth="yes"/>
      <point x="527" y="49"/>
    </contour>
  </outline>
</glyph>
<glyph name="uni1B11" format="2">
  <advance width="822"/>
  <unicode hex="1B11"/>
  <anchor x="462" y="525" name="Anchor-2"/>
  <outline>
    <contour>
      <point x="766" y="-799" type="line"/>
      <point x="692" y="-531"/>
      <point x="459" y="-528" type="qcurve"/>
      <point x="252" y="-531"/>
      <point x="252" y="-665" type="qcurve" smooth="yes"/>
      <point x="252" y="-722"/>
      <point x="297" y="-794" type="qcurve"/>
      <point x="292" y="-803" type="line"/>
      <point x="21" y="-711"/>
      <point x="21" y="-460" type="qcurve" smooth="yes"/>
      <point x="21" y="-363"/>
      <point x="73" y="-277" type="qcurve" smooth="yes"/>
      <point x="151" y="-146"/>
      <point x="734" y="-65"/>
      <point x="742" y="159" type="qcurve"/>
      <point x="742" y="333"/>
      <point x="633" y="342" type="qcurve"/>
      <point x="608" y="342" type="line"/>
      <point x="528" y="333"/>
      <point x="480" y="270" type="qcurve"/>
      <point x="478" y="270" type="line"/>
      <point x="430" y="333"/>
      <point x="350" y="342" type="qcurve"/>
      <point x="326" y="342" type="line"/>
      <point x="241" y="335"/>
      <point x="222" y="246" type="qcurve"/>
      <point x="220" y="202" type="line"/>
      <point x="220" y="77"/>
      <point x="305" y="9" type="qcurve"/>
      <point x="295" y="-5" type="line"/>
      <point x="219" y="11"/>
      <point x="152" y="41" type="qcurve" smooth="yes"/>
      <point x="70" y="76"/>
      <point x="70" y="163" type="qcurve" smooth="yes"/>
      <point x="70" y="212"/>
      <point x="100" y="268" type="qcurve" smooth="yes"/>
      <point x="125" y="308"/>
      <point x="125" y="328" type="qcurve" smooth="yes"/>
      <point x="125" y="346"/>
      <point x="103" y="346" type="qcurve" smooth="yes"/>
      <point x="68" y="346"/>
      <point x="68" y="297" type="qcurve" smooth="yes"/>
      <point x="68" y="280"/>
      <point x="73" y="256" type="qcurve"/>
      <point x="59" y="254" type="line"/>
      <point x="45" y="291"/>
      <point x="45" y="328" type="qcurve" smooth="yes"/>
      <point x="45" y="440"/>
      <point x="119" y="440" type="qcurve"/>
      <point x="180" y="436"/>
      <point x="180" y="378" type="qcurve" smooth="yes"/>
      <point x="180" y="342"/>
      <point x="108" y="232"/>
      <point x="108" y="195" type="qcurve" smooth="yes"/>
      <point x="108" y="135"/>
      <point x="204" y="100" type="qcurve"/>
      <point x="189" y="135"/>
      <point x="185" y="194" type="qcurve"/>
      <point x="188" y="434"/>
      <point x="323" y="439" type="qcurve" smooth="yes"/>
      <point x="378" y="439"/>
      <point x="452" y="381"/>
      <point x="479" y="323" type="qcurve"/>
      <point x="505" y="379"/>
      <point x="574" y="439"/>
      <point x="636" y="439" type="qcurve" smooth="yes"/>
      <point x="772" y="433"/>
      <point x="772" y="168" type="qcurve" smooth="yes"/>
      <point x="772" y="151" type="line" smooth="yes"/>
      <point x="772" y="-155"/>
      <point x="494" y="-191" type="qcurve" smooth="yes"/>
      <point x="260" y="-222"/>
      <point x="61" y="-357"/>
      <point x="61" y="-470" type="qcurve" smooth="yes"/>
      <point x="61" y="-650"/>
      <point x="244" y="-740" type="qcurve"/>
      <point x="216" y="-691"/>
      <point x="216" y="-638" type="qcurve" smooth="yes"/>
      <point x="216" y="-589"/>
      <point x="239" y="-538" type="qcurve" smooth="yes"/>
      <point x="285" y="-433"/>
      <point x="453" y="-429" type="qcurve"/>
      <point x="465" y="-429" type="line"/>
      <point x="609" y="-434"/>
      <point x="745" y="-617"/>
      <point x="785" y="-791" type="qcurve"/>
    </contour>
  </outline>
</glyph>
<glyph name="uni1B14" format="2">
  <advance width="1157"/>
  <unicode hex="1B14"/>
  <anchor x="595" y="0" name="Anchor-4"/>
  <anchor x="410" y="525" name="Anchor-2"/>
  <outline>
    <contour>
      <point x="442" y="20" type="line"/>
      <point x="523" y="20"/>
      <point x="523" y="69" type="qcurve" smooth="yes"/>
      <point x="523" y="72" type="line" smooth="yes"/>
      <point x="521" y="104"/>
      <point x="385" y="152"/>
      <point x="306" y="155" type="qcurve"/>
      <point x="306" y="109"/>
      <point x="358" y="33"/>
      <point x="414" y="22" type="qcurve"/>
    </contour>
    <contour>
      <point x="1138" y="160" type="line"/>
      <point x="993" y="4"/>
      <point x="854" y="-3" type="qcurve"/>
      <point x="689" y="-3"/>
      <point x="687" y="158" type="qcurve" smooth="yes"/>
      <point x="687" y="188" type="line" smooth="yes"/>
      <point x="684" y="342"/>
      <point x="494" y="342" type="qcurve" smooth="yes"/>
      <point x="310" y="342"/>
      <point x="310" y="237" type="qcurve" smooth="yes"/>
      <point x="310" y="235" type="line"/>
      <point x="431" y="234"/>
      <point x="576" y="152"/>
      <point x="576" y="92" type="qcurve" smooth="yes"/>
      <point x="573" y="45"/>
      <point x="504" y="-9"/>
      <point x="450" y="-9" type="qcurve" smooth="yes"/>
      <point x="362" y="-9"/>
      <point x="273" y="83"/>
      <point x="271" y="158" type="qcurve"/>
      <point x="246" y="158"/>
      <point x="215" y="155" type="qcurve"/>
      <point x="214" y="228" type="line"/>
      <point x="236" y="232"/>
      <point x="272" y="234" type="qcurve"/>
      <point x="272" y="244" type="line" smooth="yes"/>
      <point x="274" y="438"/>
      <point x="494" y="440" type="qcurve" smooth="yes"/>
      <point x="713" y="438"/>
      <point x="717" y="198" type="qcurve"/>
      <point x="717" y="178" type="line" smooth="yes"/>
      <point x="719" y="93"/>
      <point x="849" y="93" type="qcurve" smooth="yes"/>
      <point x="883" y="93"/>
      <point x="1030" y="125"/>
      <point x="1128" y="172" type="qcurve"/>
    </contour>
    <contour>
      <point x="127" y="29" type="qcurve" smooth="yes"/>
      <point x="138" y="30" type="line"/>
      <point x="181" y="40"/>
      <point x="187" y="149" type="qcurve"/>
      <point x="104" y="136"/>
      <point x="96" y="69" type="qcurve"/>
      <point x="96" y="29"/>
    </contour>
    <contour>
      <point x="216" y="155" type="line"/>
      <point x="213" y="-2"/>
      <point x="129" y="-2" type="qcurve" smooth="yes"/>
      <point x="62" y="-2"/>
      <point x="56" y="70" type="qcurve"/>
      <point x="56" y="134"/>
      <point x="139" y="213"/>
      <point x="188" y="221" type="qcurve"/>
      <point x="188" y="252" type="line"/>
      <point x="182" y="348"/>
      <point x="131" y="348" type="qcurve" smooth="yes"/>
      <point x="85" y="348"/>
      <point x="85" y="287" type="qcurve" smooth="yes"/>
      <point x="86" y="249"/>
      <point x="100" y="219" type="qcurve"/>
      <point x="83" y="213" type="line"/>
      <point x="45" y="269"/>
      <point x="45" y="346" type="qcurve" smooth="yes"/>
      <point x="45" y="438"/>
      <point x="122" y="438" type="qcurve" smooth="yes"/>
      <point x="214" y="436"/>
      <point x="214" y="285" type="qcurve" smooth="yes"/>
      <point x="214" y="228" type="line"/>
    </contour>
  </outline>
</glyph>
<glyph name="uni1B16" format="2">
  <advance width="939"/>
  <unicode hex="1B16"/>
  <anchor x="487" y="0" name="Anchor-4"/>
  <anchor x="489" y="525" name="Anchor-2"/>
  <outline>
    <contour>
      <point x="510" y="151" type="qcurve"/>
      <point x="461" y="147"/>
      <point x="441" y="75" type="qcurve" smooth="yes"/>
      <point x="419" y="-1"/>
      <point x="351" y="-4" type="qcurve" smooth="yes"/>
      <point x="345" y="-4" type="line" smooth="yes"/>
      <point x="294" y="-3"/>
      <point x="241" y="75"/>
      <point x="241" y="139" type="qcurve" smooth="yes"/>
      <point x="241" y="298"/>
      <point x="325" y="389" type="qcurve"/>
      <point x="219" y="372"/>
      <point x="218" y="244" type="qcurve" smooth="yes"/>
      <point x="218" y="187" type="line"/>
      <point x="211" y="66"/>
      <point x="171" y="-2"/>
      <point x="133" y="-2" type="qcurve" smooth="yes"/>
      <point x="97" y="-2"/>
      <point x="53" y="51"/>
      <point x="53" y="104" type="qcurve" smooth="yes"/>
      <point x="53" y="143"/>
      <point x="77" y="227"/>
      <point x="126" y="308"/>
      <point x="126" y="327" type="qcurve" smooth="yes"/>
      <point x="126" y="346"/>
      <point x="103" y="346" type="qcurve" smooth="yes"/>
      <point x="68" y="346"/>
      <point x="68" y="297" type="qcurve" smooth="yes"/>
      <point x="68" y="280"/>
      <point x="73" y="256" type="qcurve"/>
      <point x="60" y="254" type="line"/>
      <point x="45" y="292"/>
      <point x="45" y="330" type="qcurve" smooth="yes"/>
      <point x="45" y="440"/>
      <point x="119" y="440" type="qcurve"/>
      <point x="181" y="436"/>
      <point x="181" y="377" type="qcurve" smooth="yes"/>
      <point x="181" y="341"/>
      <point x="144" y="286" type="qcurve" smooth="yes"/>
      <point x="85" y="198"/>
      <point x="85" y="138" type="qcurve" smooth="yes"/>
      <point x="85" y="89"/>
      <point x="127" y="89" type="qcurve" smooth="yes"/>
      <point x="157" y="89"/>
      <point x="192" y="147"/>
      <point x="192" y="198" type="qcurve" smooth="yes"/>
      <point x="192" y="285" type="line" smooth="yes"/>
      <point x="192" y="441"/>
      <point x="343" y="442" type="qcurve" smooth="yes"/>
      <point x="398" y="442" type="line"/>
      <point x="401" y="430" type="line"/>
      <point x="280" y="320"/>
      <point x="280" y="205" type="qcurve" smooth="yes"/>
      <point x="280" y="156"/>
      <point x="324" y="95"/>
      <point x="372" y="94" type="qcurve" smooth="yes"/>
      <point x="424" y="95"/>
      <point x="467" y="213"/>
      <point x="516" y="213" type="qcurve" smooth="yes"/>
      <point x="615" y="213"/>
      <point x="658" y="84" type="qcurve"/>
      <point x="688" y="94"/>
      <point x="732" y="167"/>
      <point x="732" y="234" type="qcurve" smooth="yes"/>
      <point x="731" y="313"/>
      <point x="673" y="348" type="qcurve"/>
      <point x="645" y="358"/>
      <point x="619" y="358" type="qcurve" smooth="yes"/>
      <point x="598" y="358"/>
      <point x="577" y="351" type="qcurve"/>
      <point x="604" y="441"/>
      <point x="698" y="441" type="qcurve" smooth="yes"/>
      <point x="889" y="441"/>
      <point x="889" y="148" type="qcurve" smooth="yes"/>
      <point x="889" y="0" type="line"/>
      <point x="859" y="0" type="line"/>
      <point x="859" y="154" type="line" smooth="yes"/>
      <point x="856" y="373"/>
      <point x="691" y="375" type="qcurve"/>
      <point x="762" y="336"/>
      <point x="762" y="232" type="qcurve" smooth="yes"/>
      <point x="762" y="221" type="line" smooth="yes"/>
      <point x="762" y="-2"/>
      <point x="638" y="-4" type="qcurve" smooth="yes"/>
      <point x="632" y="-4" type="line"/>
      <point x="571" y="145"/>
    </contour>
  </outline>
</glyph>
<glyph name="uni1B17" format="2">
  <advance width="823"/>
  <unicode hex="1B17"/>
  <anchor x="449" y="0" name="Anchor-4"/>
  <anchor x="453" y="525" name="Anchor-2"/>
  <outline>
    <contour>
      <point x="295" y="-5" type="line"/>
      <point x="204" y="100" type="line"/>
      <point x="189" y="135"/>
      <point x="185" y="194" type="qcurve"/>
      <point x="188" y="434"/>
      <point x="323" y="439" type="qcurve" smooth="yes"/>
      <point x="378" y="439"/>
      <point x="452" y="381"/>
      <point x="479" y="323" type="qcurve"/>
      <point x="506" y="381"/>
      <point x="576" y="439"/>
      <point x="636" y="439" type="qcurve" smooth="yes"/>
      <point x="773" y="433"/>
      <point x="773" y="192" type="qcurve" smooth="yes"/>
      <point x="773" y="0" type="line"/>
      <point x="743" y="0" type="line"/>
      <point x="743" y="184" type="line" smooth="yes"/>
      <point x="742" y="333"/>
      <point x="633" y="342" type="qcurve"/>
      <point x="608" y="342" type="line"/>
      <point x="528" y="333"/>
      <point x="480" y="270" type="qcurve"/>
      <point x="478" y="270" type="line"/>
      <point x="430" y="333"/>
      <point x="350" y="342" type="qcurve"/>
      <point x="325" y="342" type="line"/>
      <point x="241" y="335"/>
      <point x="222" y="246" type="qcurve"/>
      <point x="220" y="202" type="line"/>
      <point x="220" y="77"/>
      <point x="305" y="9" type="qcurve"/>
    </contour>
    <contour>
      <point x="305" y="9" type="line"/>
      <point x="295" y="-5" type="line"/>
      <point x="219" y="11"/>
      <point x="152" y="41" type="qcurve" smooth="yes"/>
      <point x="70" y="76"/>
      <point x="70" y="163" type="qcurve" smooth="yes"/>
      <point x="70" y="212"/>
      <point x="100" y="268" type="qcurve" smooth="yes"/>
      <point x="125" y="308"/>
      <point x="125" y="328" type="qcurve" smooth="yes"/>
      <point x="125" y="346"/>
      <point x="103" y="346" type="qcurve" smooth="yes"/>
      <point x="68" y="346"/>
      <point x="68" y="297" type="qcurve" smooth="yes"/>
      <point x="68" y="280"/>
      <point x="73" y="256" type="qcurve"/>
      <point x="59" y="254" type="line"/>
      <point x="45" y="291"/>
      <point x="45" y="328" type="qcurve" smooth="yes"/>
      <point x="45" y="440"/>
      <point x="119" y="440" type="qcurve"/>
      <point x="180" y="436"/>
      <point x="180" y="378" type="qcurve" smooth="yes"/>
      <point x="180" y="342"/>
      <point x="108" y="232"/>
      <point x="108" y="195" type="qcurve" smooth="yes"/>
      <point x="108" y="135"/>
      <point x="204" y="100" type="qcurve"/>
    </contour>
  </outline>
</glyph>
<glyph name="uni1B18" format="2">
  <advance width="684"/>
  <unicode hex="1B18"/>
  <anchor x="377" y="0" name="Anchor-4"/>
  <anchor x="342" y="525" name="Anchor-2"/>
  <outline>
    <contour>
      <point x="102" y="28" type="qcurve" smooth="yes"/>
      <point x="116" y="30" type="line" smooth="yes"/>
      <point x="160" y="40"/>
      <point x="183" y="129" type="qcurve"/>
      <point x="167" y="133"/>
      <point x="153" y="133" type="qcurve" smooth="yes"/>
      <point x="122" y="133"/>
      <point x="74" y="94"/>
      <point x="74" y="64" type="qcurve" smooth="yes"/>
      <point x="74" y="56" type="line" smooth="yes"/>
      <point x="77" y="28"/>
    </contour>
    <contour>
      <point x="447" y="-4" type="qcurve"/>
      <point x="439" y="-4" type="line" smooth="yes"/>
      <point x="403" y="-4"/>
      <point x="275" y="98"/>
      <point x="212" y="122" type="qcurve"/>
      <point x="200" y="69"/>
      <point x="141" y="-3"/>
      <point x="102" y="-3" type="qcurve" smooth="yes"/>
      <point x="39" y="-3"/>
      <point x="39" y="68" type="qcurve"/>
      <point x="41" y="94" type="line"/>
      <point x="59" y="208"/>
      <point x="200" y="208" type="qcurve"/>
      <point x="209" y="267"/>
      <point x="209" y="299" type="qcurve" smooth="yes"/>
      <point x="209" y="365"/>
      <point x="154" y="365" type="qcurve" smooth="yes"/>
      <point x="105" y="365"/>
      <point x="100" y="314" type="qcurve"/>
      <point x="100" y="308" type="line" smooth="yes"/>
      <point x="100" y="280"/>
      <point x="123" y="242" type="qcurve"/>
      <point x="115" y="232" type="line"/>
      <point x="63" y="277"/>
      <point x="63" y="344" type="qcurve" smooth="yes"/>
      <point x="63" y="356" type="line"/>
      <point x="67" y="431"/>
      <point x="128" y="443" type="qcurve"/>
      <point x="152" y="445" type="line"/>
      <point x="241" y="445"/>
      <point x="241" y="330" type="qcurve" smooth="yes"/>
      <point x="241" y="279"/>
      <point x="227" y="202" type="qcurve"/>
      <point x="292" y="190"/>
      <point x="353" y="139" type="qcurve" smooth="yes"/>
      <point x="426" y="76"/>
      <point x="453" y="76" type="qcurve" smooth="yes"/>
      <point x="499" y="76"/>
      <point x="506" y="142" type="qcurve" smooth="yes"/>
      <point x="507" y="156" type="line" smooth="yes"/>
      <point x="507" y="196"/>
      <point x="492" y="245" type="qcurve" smooth="yes"/>
      <point x="459" y="358"/>
      <point x="365" y="358" type="qcurve" smooth="yes"/>
      <point x="343" y="358"/>
      <point x="323" y="351" type="qcurve"/>
      <point x="349" y="441"/>
      <point x="444" y="441" type="qcurve" smooth="yes"/>
      <point x="635" y="441"/>
      <point x="635" y="148" type="qcurve" smooth="yes"/>
      <point x="635" y="0" type="line"/>
      <point x="605" y="0" type="line"/>
      <point x="605" y="154" type="line" smooth="yes"/>
      <point x="603" y="373"/>
      <point x="437" y="375" type="qcurve"/>
      <point x="540" y="314"/>
      <point x="540" y="141" type="qcurve"/>
      <point x="539" y="123" type="line"/>
      <point x="527" y="5"/>
    </contour>
  </outline>
</glyph>
<glyph name="uni1B19" format="2">
  <advance width="927"/>
  <unicode hex="1B19"/>
  <anchor x="488" y="0" name="Anchor-4"/>
  <anchor x="488" y="525" name="Anchor-2"/>
  <outline>
    <contour>
      <point x="598" y="-4" type="qcurve"/>
      <point x="583" y="-4" type="line"/>
      <point x="583" y="-3" type="line"/>
      <point x="450" y="7"/>
      <point x="401" y="169" type="qcurve" smooth="yes"/>
      <point x="350" y="342"/>
      <point x="225" y="342" type="qcurve" smooth="yes"/>
      <point x="146" y="342"/>
      <point x="74" y="236"/>
      <point x="74" y="160" type="qcurve" smooth="yes"/>
      <point x="77" y="63"/>
      <point x="148" y="53" type="qcurve"/>
      <point x="228" y="53"/>
      <point x="228" y="160" type="qcurve" smooth="yes"/>
      <point x="228" y="187"/>
      <point x="223" y="222" type="qcurve"/>
      <point x="240" y="226" type="line"/>
      <point x="258" y="158"/>
      <point x="258" y="111" type="qcurve" smooth="yes"/>
      <point x="258" y="-3"/>
      <point x="156" y="-3" type="qcurve" smooth="yes"/>
      <point x="38" y="1"/>
      <point x="38" y="172" type="qcurve" smooth="yes"/>
      <point x="38" y="439"/>
      <point x="227" y="439" type="qcurve" smooth="yes"/>
      <point x="360" y="436"/>
      <point x="407" y="264" type="qcurve" smooth="yes"/>
      <point x="452" y="97"/>
      <point x="592" y="94" type="qcurve" smooth="yes"/>
      <point x="664" y="95"/>
      <point x="731" y="177"/>
      <point x="731" y="234" type="qcurve" smooth="yes"/>
      <point x="731" y="442" type="line"/>
      <point x="874" y="431"/>
      <point x="879" y="273" type="qcurve"/>
      <point x="879" y="0" type="line"/>
      <point x="849" y="0" type="line"/>
      <point x="849" y="198" type="line" smooth="yes"/>
      <point x="846" y="333"/>
      <point x="762" y="342" type="qcurve"/>
      <point x="762" y="197" type="line" smooth="yes"/>
      <point x="762" y="111"/>
      <point x="675" y="0"/>
    </contour>
  </outline>
</glyph>
<glyph name="uni1B1A" format="2">
  <advance width="657"/>
  <unicode hex="1B1A"/>
  <anchor x="407" y="0" name="Anchor-4"/>
  <anchor x="334" y="525" name="Anchor-2"/>
  <outline>
    <contour>
      <point x="295" y="-5" type="line"/>
      <point x="219" y="11"/>
      <point x="152" y="41" type="qcurve" smooth="yes"/>
      <point x="70" y="76"/>
      <point x="70" y="163" type="qcurve" smooth="yes"/>
      <point x="70" y="212"/>
      <point x="100" y="268" type="qcurve" smooth="yes"/>
      <point x="125" y="308"/>
      <point x="125" y="328" type="qcurve" smooth="yes"/>
      <point x="125" y="346"/>
      <point x="103" y="346" type="qcurve" smooth="yes"/>
      <point x="68" y="346"/>
      <point x="68" y="297" type="qcurve" smooth="yes"/>
      <point x="68" y="280"/>
      <point x="73" y="256" type="qcurve"/>
      <point x="59" y="254" type="line"/>
      <point x="45" y="291"/>
      <point x="45" y="328" type="qcurve" smooth="yes"/>
      <point x="45" y="440"/>
      <point x="119" y="440" type="qcurve"/>
      <point x="180" y="436"/>
      <point x="180" y="378" type="qcurve" smooth="yes"/>
      <point x="180" y="342"/>
      <point x="107" y="232"/>
      <point x="107" y="194" type="qcurve" smooth="yes"/>
      <point x="107" y="135"/>
      <point x="204" y="100" type="qcurve"/>
      <point x="189" y="135"/>
      <point x="185" y="194" type="qcurve"/>
      <point x="188" y="434"/>
      <point x="371" y="439" type="qcurve"/>
      <point x="422" y="439" type="line" smooth="yes"/>
      <point x="591" y="439"/>
      <point x="600" y="313" type="qcurve"/>
      <point x="600" y="303" type="line" smooth="yes"/>
      <point x="600" y="218"/>
      <point x="514" y="173" type="qcurve"/>
      <point x="607" y="140"/>
      <point x="607" y="21" type="qcurve" smooth="yes"/>
      <point x="607" y="0" type="line"/>
      <point x="577" y="0" type="line"/>
      <point x="577" y="12" type="line" smooth="yes"/>
      <point x="577" y="152"/>
      <point x="423" y="156" type="qcurve"/>
      <point x="338" y="156" type="line"/>
      <point x="338" y="189" type="line"/>
      <point x="423" y="190" type="line" smooth="yes"/>
      <point x="481" y="193"/>
      <point x="554" y="231"/>
      <point x="554" y="261" type="qcurve" smooth="yes"/>
      <point x="554" y="333"/>
      <point x="399" y="342" type="qcurve"/>
      <point x="374" y="342" type="line"/>
      <point x="241" y="335"/>
      <point x="222" y="246" type="qcurve"/>
      <point x="220" y="202" type="line"/>
      <point x="220" y="77"/>
      <point x="305" y="9" type="qcurve"/>
    </contour>
  </outline>
</glyph>
<glyph name="uni1B1B" format="2">
  <advance width="1152"/>
  <unicode hex="1B1B"/>
  <anchor x="608" y="0" name="Anchor-4"/>
  <anchor x="1035" y="-420" name="Anchor-3"/>
  <anchor x="477" y="525" name="Anchor-2"/>
  <outline>
    <contour>
      <point x="1094" y="117" type="line"/>
      <point x="1127" y="211"/>
      <point x="876" y="295"/>
      <point x="788" y="370"/>
      <point x="785" y="419" type="qcurve" smooth="yes"/>
      <point x="785" y="431" type="line" smooth="yes"/>
      <point x="785" y="512"/>
      <point x="864" y="512" type="qcurve" smooth="yes"/>
      <point x="941" y="512"/>
      <point x="1035" y="350"/>
      <point x="1035" y="240" type="qcurve" smooth="yes"/>
      <point x="1035" y="-437" type="line" smooth="yes"/>
      <point x="1035" y="-803"/>
      <point x="732" y="-805" type="qcurve"/>
      <point x="716" y="-746"/>
      <point x="606" y="-580"/>
      <point x="538" y="-580" type="qcurve" smooth="yes"/>
      <point x="463" y="-580"/>
      <point x="348" y="-803"/>
      <point x="230" y="-805" type="qcurve" smooth="yes"/>
      <point x="15" y="-803"/>
      <point x="15" y="-518" type="qcurve" smooth="yes"/>
      <point x="15" y="-372"/>
      <point x="73" y="-277" type="qcurve" smooth="yes"/>
      <point x="151" y="-146"/>
      <point x="724" y="-65"/>
      <point x="742" y="159" type="qcurve"/>
      <point x="742" y="333"/>
      <point x="633" y="342" type="qcurve"/>
      <point x="608" y="342" type="line"/>
      <point x="528" y="333"/>
      <point x="480" y="270" type="qcurve"/>
      <point x="478" y="270" type="line"/>
      <point x="430" y="333"/>
      <point x="350" y="342" type="qcurve"/>
      <point x="326" y="342" type="line"/>
      <point x="241" y="335"/>
      <point x="222" y="246" type="qcurve"/>
      <point x="220" y="202" type="line"/>
      <point x="220" y="77"/>
      <point x="305" y="9" type="qcurve"/>
      <point x="295" y="-5" type="line"/>
      <point x="219" y="11"/>
      <point x="152" y="41" type="qcurve" smooth="yes"/>
      <point x="70" y="76"/>
      <point x="70" y="163" type="qcurve" smooth="yes"/>
      <point x="70" y="212"/>
      <point x="100" y="268" type="qcurve" smooth="yes"/>
      <point x="125" y="308"/>
      <point x="125" y="328" type="qcurve" smooth="yes"/>
      <point x="125" y="346"/>
      <point x="103" y="346" type="qcurve" smooth="yes"/>
      <point x="68" y="346"/>
      <point x="68" y="297" type="qcurve" smooth="yes"/>
      <point x="68" y="280"/>
      <point x="73" y="256" type="qcurve"/>
      <point x="59" y="254" type="line"/>
      <point x="45" y="291"/>
      <point x="45" y="328" type="qcurve" smooth="yes"/>
      <point x="45" y="440"/>
      <point x="119" y="440" type="qcurve"/>
      <point x="180" y="436"/>
      <point x="180" y="378" type="qcurve" smooth="yes"/>
      <point x="180" y="342"/>
      <point x="108" y="232"/>
      <point x="108" y="195" type="qcurve" smooth="yes"/>
      <point x="108" y="135"/>
      <point x="204" y="100" type="qcurve"/>
      <point x="189" y="135"/>
      <point x="185" y="194" type="qcurve"/>
      <point x="188" y="434"/>
      <point x="323" y="439" type="qcurve" smooth="yes"/>
      <point x="378" y="439"/>
      <point x="452" y="381"/>
      <point x="479" y="323" type="qcurve"/>
      <point x="505" y="379"/>
      <point x="574" y="439"/>
      <point x="636" y="439" type="qcurve" smooth="yes"/>
      <point x="772" y="433"/>
      <point x="772" y="168" type="qcurve" smooth="yes"/>
      <point x="772" y="151" type="line" smooth="yes"/>
      <point x="772" y="-155"/>
      <point x="494" y="-191" type="qcurve" smooth="yes"/>
      <point x="246" y="-224"/>
      <point x="56" y="-369"/>
      <point x="56" y="-516" type="qcurve" smooth="yes"/>
      <point x="56" y="-707"/>
      <point x="230" y="-707" type="qcurve" smooth="yes"/>
      <point x="368" y="-707"/>
      <point x="457" y="-495"/>
      <point x="558" y="-492" type="qcurve" smooth="yes"/>
      <point x="655" y="-493"/>
      <point x="780" y="-637"/>
      <point x="802" y="-707" type="qcurve"/>
      <point x="1002" y="-707"/>
      <point x="1004" y="-404" type="qcurve" smooth="yes"/>
      <point x="1004" y="237" type="line" smooth="yes"/>
      <point x="1004" y="344"/>
      <point x="921" y="481"/>
      <point x="864" y="481" type="qcurve" smooth="yes"/>
      <point x="824" y="479"/>
      <point x="824" y="445" type="qcurve" smooth="yes"/>
      <point x="824" y="419"/>
      <point x="878" y="383"/>
      <point x="1177" y="268"/>
      <point x="1112" y="114" type="qcurve"/>
    </contour>
  </outline>
</glyph>
<glyph name="uni1B1C" format="2">
  <advance width="1261"/>
  <unicode hex="1B1C"/>
  <anchor x="628" y="0" name="Anchor-4"/>
  <anchor x="618" y="525" name="Anchor-2"/>
  <outline>
    <contour>
      <point x="674" y="-11" type="qcurve"/>
      <point x="671" y="2" type="line"/>
      <point x="735" y="50"/>
      <point x="743" y="184" type="qcurve"/>
      <point x="742" y="333"/>
      <point x="633" y="342" type="qcurve"/>
      <point x="608" y="342" type="line"/>
      <point x="528" y="333"/>
      <point x="480" y="270" type="qcurve"/>
      <point x="478" y="270" type="line"/>
      <point x="430" y="333"/>
      <point x="350" y="342" type="qcurve"/>
      <point x="326" y="342" type="line"/>
      <point x="241" y="335"/>
      <point x="222" y="246" type="qcurve"/>
      <point x="220" y="202" type="line"/>
      <point x="220" y="77"/>
      <point x="305" y="9" type="qcurve"/>
      <point x="295" y="-5" type="line"/>
      <point x="219" y="11"/>
      <point x="152" y="41" type="qcurve" smooth="yes"/>
      <point x="70" y="76"/>
      <point x="70" y="163" type="qcurve" smooth="yes"/>
      <point x="70" y="212"/>
      <point x="100" y="268" type="qcurve" smooth="yes"/>
      <point x="125" y="308"/>
      <point x="125" y="328" type="qcurve" smooth="yes"/>
      <point x="125" y="346"/>
      <point x="103" y="346" type="qcurve" smooth="yes"/>
      <point x="68" y="346"/>
      <point x="68" y="297" type="qcurve" smooth="yes"/>
      <point x="68" y="280"/>
      <point x="73" y="256" type="qcurve"/>
      <point x="59" y="254" type="line"/>
      <point x="45" y="291"/>
      <point x="45" y="328" type="qcurve" smooth="yes"/>
      <point x="45" y="440"/>
      <point x="119" y="440" type="qcurve"/>
      <point x="180" y="436"/>
      <point x="180" y="378" type="qcurve" smooth="yes"/>
      <point x="180" y="342"/>
      <point x="108" y="232"/>
      <point x="108" y="195" type="qcurve" smooth="yes"/>
      <point x="108" y="135"/>
      <point x="204" y="100" type="qcurve"/>
      <point x="189" y="135"/>
      <point x="185" y="194" type="qcurve"/>
      <point x="188" y="434"/>
      <point x="323" y="439" type="qcurve" smooth="yes"/>
      <point x="378" y="439"/>
      <point x="452" y="381"/>
      <point x="479" y="323" type="qcurve"/>
      <point x="505" y="379"/>
      <point x="574" y="439"/>
      <point x="636" y="439" type="qcurve" smooth="yes"/>
      <point x="772" y="433"/>
      <point x="772" y="189" type="qcurve"/>
      <point x="766" y="102"/>
      <point x="744" y="51" type="qcurve"/>
      <point x="794" y="74"/>
      <point x="827" y="204" type="qcurve"/>
      <point x="850" y="323"/>
      <point x="939" y="436"/>
      <point x="1015" y="442" type="qcurve" smooth="yes"/>
      <point x="1031" y="443" type="line"/>
      <point x="1107" y="443"/>
      <point x="1204" y="335"/>
      <point x="1211" y="225" type="qcurve"/>
      <point x="1211" y="211" type="line" smooth="yes"/>
      <point x="1211" y="107"/>
      <point x="1099" y="-7"/>
      <point x="1020" y="-7" type="qcurve" smooth="yes"/>
      <point x="970" y="-7"/>
      <point x="912" y="18" type="qcurve"/>
      <point x="916" y="33" type="line"/>
      <point x="955" y="24"/>
      <point x="989" y="24" type="qcurve" smooth="yes"/>
      <point x="1070" y="24"/>
      <point x="1168" y="103"/>
      <point x="1174" y="183" type="qcurve"/>
      <point x="1163" y="350"/>
      <point x="1018" y="350" type="qcurve" smooth="yes"/>
      <point x="901" y="350"/>
      <point x="862" y="207" type="qcurve" smooth="yes"/>
      <point x="834" y="99"/>
      <point x="746" y="-1"/>
    </contour>
  </outline>
</glyph>
<glyph name="uni1B1D" format="2">
  <advance width="869"/>
  <unicode hex="1B1D"/>
  <anchor x="462" y="0" name="Anchor-4"/>
  <anchor x="466" y="525" name="Anchor-2"/>
  <outline>
    <contour>
      <point x="819" y="0" type="line"/>
      <point x="789" y="0" type="line"/>
      <point x="789" y="184" type="line" smooth="yes"/>
      <point x="788" y="334"/>
      <point x="679" y="342" type="qcurve"/>
      <point x="654" y="342" type="line"/>
      <point x="574" y="333"/>
      <point x="526" y="270" type="qcurve"/>
      <point x="476" y="333"/>
      <point x="397" y="342" type="qcurve"/>
      <point x="372" y="342" type="line"/>
      <point x="262" y="334"/>
      <point x="242" y="258" type="qcurve"/>
      <point x="225" y="261" type="line"/>
      <point x="229" y="433"/>
      <point x="369" y="439" type="qcurve" smooth="yes"/>
      <point x="422" y="439"/>
      <point x="497" y="383"/>
      <point x="526" y="323" type="qcurve"/>
      <point x="551" y="379"/>
      <point x="620" y="439"/>
      <point x="682" y="439" type="qcurve" smooth="yes"/>
      <point x="817" y="435"/>
      <point x="819" y="185" type="qcurve" smooth="yes"/>
    </contour>
    <contour>
      <point x="227" y="93" type="line"/>
      <point x="347" y="93"/>
      <point x="347" y="143" type="qcurve" smooth="yes"/>
      <point x="347" y="145"/>
      <point x="344" y="179"/>
      <point x="309" y="185" type="qcurve"/>
      <point x="227" y="185"/>
      <point x="208" y="94" type="qcurve"/>
    </contour>
    <contour>
      <point x="320" y="-248" type="qcurve" smooth="yes"/>
      <point x="174" y="-246"/>
      <point x="170" y="-4" type="qcurve"/>
      <point x="78" y="14"/>
      <point x="62" y="127" type="qcurve"/>
      <point x="60" y="148" type="line"/>
      <point x="60" y="202"/>
      <point x="101" y="268" type="qcurve" smooth="yes"/>
      <point x="126" y="308"/>
      <point x="126" y="327" type="qcurve" smooth="yes"/>
      <point x="126" y="346"/>
      <point x="103" y="346" type="qcurve" smooth="yes"/>
      <point x="68" y="346"/>
      <point x="68" y="296" type="qcurve" smooth="yes"/>
      <point x="68" y="279"/>
      <point x="72" y="256" type="qcurve"/>
      <point x="59" y="254" type="line"/>
      <point x="45" y="291"/>
      <point x="45" y="328" type="qcurve" smooth="yes"/>
      <point x="45" y="440"/>
      <point x="119" y="440" type="qcurve"/>
      <point x="180" y="436"/>
      <point x="180" y="378" type="qcurve" smooth="yes"/>
      <point x="180" y="342"/>
      <point x="143" y="286" type="qcurve" smooth="yes"/>
      <point x="102" y="224"/>
      <point x="102" y="179" type="qcurve" smooth="yes"/>
      <point x="103" y="164" type="line"/>
      <point x="111" y="113"/>
      <point x="178" y="94" type="qcurve"/>
      <point x="197" y="216"/>
      <point x="301" y="218" type="qcurve" smooth="yes"/>
      <point x="385" y="216"/>
      <point x="385" y="142" type="qcurve" smooth="yes"/>
      <point x="385" y="78"/>
      <point x="289" y="-3"/>
      <point x="206" y="-3" type="qcurve"/>
      <point x="206" y="-63"/>
      <point x="273" y="-150"/>
      <point x="320" y="-150" type="qcurve" smooth="yes"/>
      <point x="413" y="-150"/>
      <point x="456" y="-55" type="qcurve"/>
      <point x="470" y="-60" type="line"/>
      <point x="441" y="-246"/>
    </contour>
  </outline>
</glyph>
<glyph name="uni1B1E" format="2">
  <advance width="869"/>
  <unicode hex="1B1E"/>
  <anchor x="462" y="0" name="Anchor-4"/>
  <anchor x="466" y="525" name="Anchor-2"/>
  <outline>
    <contour>
      <point x="217" y="-4" type="qcurve" smooth="yes"/>
      <point x="81" y="-2"/>
      <point x="62" y="127" type="qcurve"/>
      <point x="60" y="148" type="line"/>
      <point x="60" y="202"/>
      <point x="101" y="268" type="qcurve" smooth="yes"/>
      <point x="126" y="308"/>
      <point x="126" y="327" type="qcurve" smooth="yes"/>
      <point x="126" y="346"/>
      <point x="103" y="346" type="qcurve" smooth="yes"/>
      <point x="68" y="346"/>
      <point x="68" y="296" type="qcurve" smooth="yes"/>
      <point x="68" y="279"/>
      <point x="72" y="256" type="qcurve"/>
      <point x="59" y="254" type="line"/>
      <point x="45" y="291"/>
      <point x="45" y="328" type="qcurve" smooth="yes"/>
      <point x="45" y="440"/>
      <point x="119" y="440" type="qcurve"/>
      <point x="180" y="436"/>
      <point x="180" y="378" type="qcurve" smooth="yes"/>
      <point x="180" y="342"/>
      <point x="143" y="286" type="qcurve" smooth="yes"/>
      <point x="102" y="224"/>
      <point x="102" y="185" type="qcurve" smooth="yes"/>
      <point x="103" y="173" type="line"/>
      <point x="118" y="94"/>
      <point x="231" y="94" type="qcurve" smooth="yes"/>
      <point x="337" y="94"/>
      <point x="365" y="197" type="qcurve"/>
      <point x="381" y="193" type="line"/>
      <point x="375" y="-2"/>
    </contour>
    <contour>
      <point x="819" y="0" type="line"/>
      <point x="789" y="0" type="line"/>
      <point x="789" y="184" type="line" smooth="yes"/>
      <point x="788" y="334"/>
      <point x="679" y="342" type="qcurve"/>
      <point x="654" y="342" type="line"/>
      <point x="574" y="333"/>
      <point x="526" y="270" type="qcurve"/>
      <point x="476" y="333"/>
      <point x="397" y="342" type="qcurve"/>
      <point x="372" y="342" type="line"/>
      <point x="262" y="334"/>
      <point x="242" y="258" type="qcurve"/>
      <point x="225" y="261" type="line"/>
      <point x="229" y="433"/>
      <point x="369" y="439" type="qcurve" smooth="yes"/>
      <point x="422" y="439"/>
      <point x="497" y="383"/>
      <point x="526" y="323" type="qcurve"/>
      <point x="551" y="379"/>
      <point x="620" y="439"/>
      <point x="682" y="439" type="qcurve" smooth="yes"/>
      <point x="817" y="435"/>
      <point x="819" y="185" type="qcurve" smooth="yes"/>
    </contour>
  </outline>
</glyph>
<glyph name="uni1B1F" format="2">
  <advance width="711"/>
  <unicode hex="1B1F"/>
  <anchor x="383" y="0" name="Anchor-4"/>
  <anchor x="364" y="515" name="Anchor-2"/>
  <outline>
    <contour>
      <point x="444" y="-4" type="qcurve" smooth="yes"/>
      <point x="437" y="-4" type="line"/>
      <point x="375" y="151"/>
      <point x="311" y="151" type="qcurve" smooth="yes"/>
      <point x="267" y="151"/>
      <point x="224" y="-1"/>
      <point x="156" y="-4" type="qcurve" smooth="yes"/>
      <point x="150" y="-4" type="line" smooth="yes"/>
      <point x="49" y="-2"/>
      <point x="49" y="112" type="qcurve" smooth="yes"/>
      <point x="49" y="125" type="line" smooth="yes"/>
      <point x="51" y="189"/>
      <point x="100" y="268" type="qcurve" smooth="yes"/>
      <point x="125" y="308"/>
      <point x="125" y="328" type="qcurve" smooth="yes"/>
      <point x="125" y="346"/>
      <point x="103" y="346" type="qcurve" smooth="yes"/>
      <point x="68" y="346"/>
      <point x="68" y="296" type="qcurve" smooth="yes"/>
      <point x="68" y="279"/>
      <point x="72" y="256" type="qcurve"/>
      <point x="59" y="254" type="line"/>
      <point x="45" y="291"/>
      <point x="45" y="328" type="qcurve" smooth="yes"/>
      <point x="45" y="440"/>
      <point x="119" y="440" type="qcurve"/>
      <point x="180" y="436"/>
      <point x="180" y="378" type="qcurve" smooth="yes"/>
      <point x="180" y="342"/>
      <point x="143" y="286" type="qcurve" smooth="yes"/>
      <point x="96" y="215"/>
      <point x="96" y="172" type="qcurve" smooth="yes"/>
      <point x="96" y="97"/>
      <point x="177" y="94" type="qcurve" smooth="yes"/>
      <point x="229" y="95"/>
      <point x="272" y="213"/>
      <point x="321" y="213" type="qcurve" smooth="yes"/>
      <point x="421" y="213"/>
      <point x="463" y="84" type="qcurve"/>
      <point x="513" y="84"/>
      <point x="513" y="234" type="qcurve" smooth="yes"/>
      <point x="513" y="442" type="line"/>
      <point x="656" y="431"/>
      <point x="661" y="273" type="qcurve"/>
      <point x="661" y="0" type="line"/>
      <point x="631" y="0" type="line"/>
      <point x="631" y="198" type="line" smooth="yes"/>
      <point x="628" y="333"/>
      <point x="543" y="342" type="qcurve"/>
      <point x="543" y="187" type="line" smooth="yes"/>
      <point x="543" y="-2"/>
    </contour>
  </outline>
</glyph>
<glyph name="uni1B20" format="2">
  <advance width="638"/>
  <unicode hex="1B20"/>
  <anchor x="336" y="0" name="Anchor-4"/>
  <anchor x="333" y="517" name="Anchor-2"/>
  <outline>
    <contour>
      <point x="460" y="94" type="qcurve"/>
      <point x="464" y="94" type="line" smooth="yes"/>
      <point x="504" y="94"/>
      <point x="558" y="167"/>
      <point x="558" y="234" type="qcurve" smooth="yes"/>
      <point x="557" y="333"/>
      <point x="487" y="434" type="qcurve"/>
      <point x="498" y="443" type="line"/>
      <point x="588" y="338"/>
      <point x="588" y="230" type="qcurve" smooth="yes"/>
      <point x="588" y="221" type="line" smooth="yes"/>
      <point x="588" y="-2"/>
      <point x="444" y="-4" type="qcurve" smooth="yes"/>
      <point x="437" y="-4" type="line"/>
      <point x="375" y="151"/>
      <point x="311" y="151" type="qcurve" smooth="yes"/>
      <point x="267" y="151"/>
      <point x="224" y="-1"/>
      <point x="156" y="-4" type="qcurve" smooth="yes"/>
      <point x="150" y="-4" type="line" smooth="yes"/>
      <point x="49" y="-2"/>
      <point x="49" y="112" type="qcurve" smooth="yes"/>
      <point x="49" y="125" type="line" smooth="yes"/>
      <point x="51" y="189"/>
      <point x="100" y="268" type="qcurve" smooth="yes"/>
      <point x="125" y="308"/>
      <point x="125" y="328" type="qcurve" smooth="yes"/>
      <point x="125" y="346"/>
      <point x="103" y="346" type="qcurve" smooth="yes"/>
      <point x="68" y="346"/>
      <point x="68" y="296" type="qcurve" smooth="yes"/>
      <point x="68" y="279"/>
      <point x="72" y="256" type="qcurve"/>
      <point x="59" y="254" type="line"/>
      <point x="45" y="291"/>
      <point x="45" y="328" type="qcurve" smooth="yes"/>
      <point x="45" y="440"/>
      <point x="119" y="440" type="qcurve"/>
      <point x="180" y="436"/>
      <point x="180" y="378" type="qcurve" smooth="yes"/>
      <point x="180" y="342"/>
      <point x="143" y="286" type="qcurve" smooth="yes"/>
      <point x="96" y="215"/>
      <point x="96" y="172" type="qcurve" smooth="yes"/>
      <point x="96" y="97"/>
      <point x="177" y="94" type="qcurve" smooth="yes"/>
      <point x="229" y="95"/>
      <point x="272" y="213"/>
      <point x="321" y="213" type="qcurve" smooth="yes"/>
      <point x="417" y="213"/>
    </contour>
  </outline>
</glyph>
<glyph name="uni1B21" format="2">
  <advance width="908"/>
  <unicode hex="1B21"/>
  <anchor x="501" y="0" name="Anchor-4"/>
  <anchor x="517" y="525" name="Anchor-2"/>
  <outline>
    <contour>
      <point x="858" y="0" type="line"/>
      <point x="828" y="0" type="line"/>
      <point x="828" y="198" type="line" smooth="yes"/>
      <point x="825" y="333"/>
      <point x="741" y="342" type="qcurve"/>
      <point x="741" y="158" type="line" smooth="yes"/>
      <point x="740" y="1"/>
      <point x="687" y="0" type="qcurve" smooth="yes"/>
      <point x="632" y="1"/>
      <point x="632" y="158" type="qcurve" smooth="yes"/>
      <point x="632" y="246" type="line"/>
      <point x="625" y="342"/>
      <point x="532" y="342" type="qcurve" smooth="yes"/>
      <point x="442" y="342"/>
      <point x="400" y="200" type="qcurve"/>
      <point x="358" y="341"/>
      <point x="255" y="341" type="qcurve" smooth="yes"/>
      <point x="156" y="341"/>
      <point x="156" y="200" type="qcurve"/>
      <point x="51" y="210"/>
      <point x="39" y="296" type="qcurve" smooth="yes"/>
      <point x="37" y="312" type="line"/>
      <point x="37" y="388"/>
      <point x="85" y="453" type="qcurve"/>
      <point x="98" y="447" type="line"/>
      <point x="76" y="409"/>
      <point x="76" y="365" type="qcurve" smooth="yes"/>
      <point x="76" y="355" type="line"/>
      <point x="82" y="299"/>
      <point x="144" y="287" type="qcurve"/>
      <point x="164" y="440"/>
      <point x="258" y="440" type="qcurve" smooth="yes"/>
      <point x="362" y="440"/>
      <point x="400" y="275" type="qcurve"/>
      <point x="437" y="440"/>
      <point x="545" y="440" type="qcurve" smooth="yes"/>
      <point x="663" y="440"/>
      <point x="663" y="251" type="qcurve" smooth="yes"/>
      <point x="663" y="131" type="line" smooth="yes"/>
      <point x="663" y="63"/>
      <point x="686" y="60" type="qcurve"/>
      <point x="709" y="63"/>
      <point x="710" y="131" type="qcurve" smooth="yes"/>
      <point x="710" y="442" type="line"/>
      <point x="853" y="431"/>
      <point x="858" y="273" type="qcurve"/>
    </contour>
  </outline>
</glyph>
<glyph name="uni1B22" format="2">
  <advance width="789"/>
  <unicode hex="1B22"/>
  <anchor x="432" y="0" name="Anchor-4"/>
  <anchor x="404" y="525" name="Anchor-2"/>
  <outline>
    <contour>
      <point x="260" y="-4" type="qcurve" smooth="yes"/>
      <point x="254" y="-4" type="line" smooth="yes"/>
      <point x="81" y="-2"/>
      <point x="62" y="127" type="qcurve"/>
      <point x="60" y="148" type="line"/>
      <point x="60" y="202"/>
      <point x="101" y="268" type="qcurve" smooth="yes"/>
      <point x="126" y="308"/>
      <point x="126" y="327" type="qcurve" smooth="yes"/>
      <point x="126" y="346"/>
      <point x="103" y="346" type="qcurve" smooth="yes"/>
      <point x="68" y="346"/>
      <point x="68" y="297" type="qcurve" smooth="yes"/>
      <point x="68" y="280"/>
      <point x="73" y="256" type="qcurve"/>
      <point x="60" y="254" type="line"/>
      <point x="45" y="292"/>
      <point x="45" y="330" type="qcurve" smooth="yes"/>
      <point x="45" y="440"/>
      <point x="119" y="440" type="qcurve"/>
      <point x="181" y="436"/>
      <point x="181" y="378" type="qcurve" smooth="yes"/>
      <point x="181" y="342"/>
      <point x="144" y="286" type="qcurve" smooth="yes"/>
      <point x="96" y="214"/>
      <point x="94" y="169" type="qcurve" smooth="yes"/>
      <point x="94" y="126"/>
      <point x="171" y="94"/>
      <point x="271" y="94" type="qcurve" smooth="yes"/>
      <point x="433" y="96"/>
      <point x="435" y="148" type="qcurve" smooth="yes"/>
      <point x="435" y="199"/>
      <point x="325" y="199" type="qcurve" smooth="yes"/>
      <point x="265" y="199"/>
      <point x="199" y="178" type="qcurve"/>
      <point x="189" y="219"/>
      <point x="189" y="256" type="qcurve" smooth="yes"/>
      <point x="190" y="279" type="line" smooth="yes"/>
      <point x="193" y="325"/>
      <point x="221" y="370" type="qcurve" smooth="yes"/>
      <point x="263" y="438"/>
      <point x="340" y="440" type="qcurve" smooth="yes"/>
      <point x="360" y="440" type="line" smooth="yes"/>
      <point x="544" y="438"/>
      <point x="544" y="182" type="qcurve" smooth="yes"/>
      <point x="544" y="131" type="line" smooth="yes"/>
      <point x="545" y="63"/>
      <point x="568" y="60" type="qcurve"/>
      <point x="590" y="63"/>
      <point x="591" y="131" type="qcurve" smooth="yes"/>
      <point x="591" y="442" type="line"/>
      <point x="735" y="431"/>
      <point x="739" y="273" type="qcurve"/>
      <point x="739" y="0" type="line"/>
      <point x="709" y="0" type="line"/>
      <point x="709" y="198" type="line" smooth="yes"/>
      <point x="706" y="333"/>
      <point x="622" y="342" type="qcurve"/>
      <point x="622" y="158" type="line" smooth="yes"/>
      <point x="622" y="1"/>
      <point x="569" y="0" type="qcurve" smooth="yes"/>
      <point x="567" y="0" type="line" smooth="yes"/>
      <point x="514" y="1"/>
      <point x="513" y="158" type="qcurve" smooth="yes"/>
      <point x="513" y="188" type="line" smooth="yes"/>
      <point x="510" y="269"/>
      <point x="422" y="356"/>
      <point x="342" y="356" type="qcurve" smooth="yes"/>
      <point x="221" y="356"/>
      <point x="211" y="240" type="qcurve"/>
      <point x="274" y="277"/>
      <point x="329" y="277" type="qcurve" smooth="yes"/>
      <point x="386" y="277"/>
      <point x="466" y="211"/>
      <point x="466" y="144" type="qcurve" smooth="yes"/>
      <point x="460" y="-2"/>
    </contour>
  </outline>
</glyph>
<glyph name="uni1B24" format="2">
  <advance width="758"/>
  <unicode hex="1B24"/>
  <anchor x="426" y="0" name="Anchor-4"/>
  <anchor x="411" y="525" name="Anchor-2"/>
  <outline>
    <contour>
      <point x="382" y="31" type="line" smooth="yes"/>
      <point x="426" y="31"/>
      <point x="426" y="68" type="qcurve" smooth="yes"/>
      <point x="426" y="75" type="line"/>
      <point x="421" y="123"/>
      <point x="374" y="128" type="qcurve" smooth="yes"/>
      <point x="355" y="129" type="line" smooth="yes"/>
      <point x="322" y="129"/>
      <point x="304" y="115" type="qcurve"/>
      <point x="316" y="35"/>
      <point x="374" y="31" type="qcurve"/>
    </contour>
    <contour>
      <point x="389" y="-3" type="qcurve" smooth="yes"/>
      <point x="300" y="-1"/>
      <point x="273" y="90" type="qcurve"/>
      <point x="189" y="24" type="line" smooth="yes"/>
      <point x="160" y="0"/>
      <point x="123" y="-1" type="qcurve" smooth="yes"/>
      <point x="45" y="-1"/>
      <point x="45" y="84" type="qcurve"/>
      <point x="47" y="107" type="line" smooth="yes"/>
      <point x="54" y="163"/>
      <point x="180" y="310"/>
      <point x="180" y="335" type="qcurve" smooth="yes"/>
      <point x="180" y="354"/>
      <point x="147" y="354" type="qcurve" smooth="yes"/>
      <point x="99" y="354"/>
      <point x="71" y="284" type="qcurve"/>
      <point x="61" y="288" type="line"/>
      <point x="67" y="358"/>
      <point x="121" y="441"/>
      <point x="158" y="441" type="qcurve" smooth="yes"/>
      <point x="229" y="441"/>
      <point x="229" y="375" type="qcurve" smooth="yes"/>
      <point x="229" y="368" type="line" smooth="yes"/>
      <point x="226" y="313"/>
      <point x="86" y="153"/>
      <point x="86" y="108" type="qcurve" smooth="yes"/>
      <point x="86" y="79"/>
      <point x="110" y="79" type="qcurve" smooth="yes"/>
      <point x="120" y="80" type="line" smooth="yes"/>
      <point x="145" y="84"/>
      <point x="263" y="165" type="qcurve"/>
      <point x="263" y="245" type="line"/>
      <point x="275" y="438"/>
      <point x="485" y="441" type="qcurve"/>
      <point x="708" y="438"/>
      <point x="708" y="221" type="qcurve" smooth="yes"/>
      <point x="708" y="0" type="line"/>
      <point x="678" y="0" type="line"/>
      <point x="678" y="189" type="line"/>
      <point x="671" y="343"/>
      <point x="486" y="343" type="qcurve" smooth="yes"/>
      <point x="302" y="343"/>
      <point x="302" y="217" type="qcurve" smooth="yes"/>
      <point x="302" y="187" type="line"/>
      <point x="328" y="198"/>
      <point x="362" y="198" type="qcurve" smooth="yes"/>
      <point x="383" y="197" type="line"/>
      <point x="479" y="187"/>
      <point x="479" y="97" type="qcurve" smooth="yes"/>
      <point x="479" y="-3"/>
    </contour>
  </outline>
</glyph>
<glyph name="uni1B25" format="2">
  <advance width="745"/>
  <unicode hex="1B25"/>
  <anchor x="420" y="0" name="Anchor-4"/>
  <anchor x="365" y="525" name="Anchor-2"/>
  <outline>
    <contour>
      <point x="444" y="-4" type="qcurve" smooth="yes"/>
      <point x="438" y="-4" type="line"/>
      <point x="375" y="151"/>
      <point x="312" y="151" type="qcurve" smooth="yes"/>
      <point x="268" y="151"/>
      <point x="225" y="-1"/>
      <point x="157" y="-4" type="qcurve" smooth="yes"/>
      <point x="151" y="-4" type="line" smooth="yes"/>
      <point x="50" y="-2"/>
      <point x="50" y="112" type="qcurve" smooth="yes"/>
      <point x="50" y="125" type="line" smooth="yes"/>
      <point x="52" y="189"/>
      <point x="101" y="268" type="qcurve" smooth="yes"/>
      <point x="126" y="308"/>
      <point x="126" y="327" type="qcurve" smooth="yes"/>
      <point x="126" y="346"/>
      <point x="103" y="346" type="qcurve" smooth="yes"/>
      <point x="68" y="346"/>
      <point x="68" y="297" type="qcurve" smooth="yes"/>
      <point x="68" y="280"/>
      <point x="73" y="256" type="qcurve"/>
      <point x="60" y="254" type="line"/>
      <point x="45" y="292"/>
      <point x="45" y="330" type="qcurve" smooth="yes"/>
      <point x="45" y="440"/>
      <point x="119" y="440" type="qcurve"/>
      <point x="181" y="436"/>
      <point x="181" y="378" type="qcurve" smooth="yes"/>
      <point x="181" y="342"/>
      <point x="144" y="286" type="qcurve" smooth="yes"/>
      <point x="97" y="215"/>
      <point x="97" y="172" type="qcurve" smooth="yes"/>
      <point x="97" y="96"/>
      <point x="178" y="94" type="qcurve" smooth="yes"/>
      <point x="229" y="95"/>
      <point x="272" y="213"/>
      <point x="322" y="213" type="qcurve" smooth="yes"/>
      <point x="421" y="213"/>
      <point x="464" y="84" type="qcurve"/>
      <point x="494" y="94"/>
      <point x="538" y="167"/>
      <point x="538" y="234" type="qcurve" smooth="yes"/>
      <point x="537" y="313"/>
      <point x="479" y="348" type="qcurve"/>
      <point x="451" y="358"/>
      <point x="425" y="358" type="qcurve" smooth="yes"/>
      <point x="404" y="358"/>
      <point x="383" y="351" type="qcurve"/>
      <point x="410" y="441"/>
      <point x="504" y="441" type="qcurve" smooth="yes"/>
      <point x="695" y="441"/>
      <point x="695" y="148" type="qcurve" smooth="yes"/>
      <point x="695" y="0" type="line"/>
      <point x="665" y="0" type="line"/>
      <point x="665" y="154" type="line" smooth="yes"/>
      <point x="662" y="373"/>
      <point x="497" y="375" type="qcurve"/>
      <point x="568" y="336"/>
      <point x="568" y="232" type="qcurve" smooth="yes"/>
      <point x="568" y="221" type="line" smooth="yes"/>
      <point x="568" y="-2"/>
    </contour>
  </outline>
</glyph>
<glyph name="uni1B26" format="2">
  <advance width="767"/>
  <unicode hex="1B26"/>
  <anchor x="430" y="0" name="Anchor-4"/>
  <anchor x="384" y="525" name="Anchor-2"/>
  <outline>
    <contour>
      <point x="441" y="20" type="line"/>
      <point x="523" y="20"/>
      <point x="523" y="71" type="qcurve" smooth="yes"/>
      <point x="521" y="104"/>
      <point x="384" y="152"/>
      <point x="306" y="155" type="qcurve"/>
      <point x="306" y="150" type="line" smooth="yes"/>
      <point x="306" y="106"/>
      <point x="358" y="33"/>
      <point x="413" y="22" type="qcurve"/>
    </contour>
    <contour>
      <point x="127" y="29" type="qcurve" smooth="yes"/>
      <point x="138" y="30" type="line"/>
      <point x="181" y="40"/>
      <point x="187" y="149" type="qcurve"/>
      <point x="104" y="136"/>
      <point x="96" y="69" type="qcurve"/>
      <point x="96" y="29"/>
    </contour>
    <contour>
      <point x="449" y="-9" type="qcurve" smooth="yes"/>
      <point x="369" y="-9"/>
      <point x="325" y="30" type="qcurve" smooth="yes"/>
      <point x="272" y="76"/>
      <point x="270" y="158" type="qcurve"/>
      <point x="245" y="158"/>
      <point x="216" y="155" type="qcurve"/>
      <point x="213" y="-2"/>
      <point x="129" y="-2" type="qcurve" smooth="yes"/>
      <point x="62" y="-2"/>
      <point x="56" y="70" type="qcurve"/>
      <point x="56" y="134"/>
      <point x="139" y="213"/>
      <point x="188" y="221" type="qcurve"/>
      <point x="188" y="252" type="line"/>
      <point x="182" y="348"/>
      <point x="131" y="348" type="qcurve" smooth="yes"/>
      <point x="85" y="348"/>
      <point x="85" y="287" type="qcurve" smooth="yes"/>
      <point x="86" y="249"/>
      <point x="100" y="219" type="qcurve"/>
      <point x="83" y="213" type="line"/>
      <point x="45" y="269"/>
      <point x="45" y="346" type="qcurve" smooth="yes"/>
      <point x="45" y="438"/>
      <point x="122" y="438" type="qcurve" smooth="yes"/>
      <point x="214" y="436"/>
      <point x="214" y="285" type="qcurve" smooth="yes"/>
      <point x="214" y="228" type="line"/>
      <point x="236" y="232"/>
      <point x="271" y="234" type="qcurve"/>
      <point x="271" y="244" type="line" smooth="yes"/>
      <point x="273" y="438"/>
      <point x="493" y="440" type="qcurve" smooth="yes"/>
      <point x="712" y="438"/>
      <point x="716" y="198" type="qcurve"/>
      <point x="716" y="31" type="line"/>
      <point x="686" y="158" type="line"/>
      <point x="686" y="188" type="line" smooth="yes"/>
      <point x="684" y="342"/>
      <point x="494" y="342" type="qcurve" smooth="yes"/>
      <point x="309" y="342"/>
      <point x="309" y="236" type="qcurve"/>
      <point x="430" y="234"/>
      <point x="575" y="153"/>
      <point x="575" y="92" type="qcurve" smooth="yes"/>
      <point x="572" y="46"/>
      <point x="505" y="-9"/>
    </contour>
    <contour>
      <point x="716" y="131" type="line"/>
      <point x="716" y="0" type="line"/>
      <point x="686" y="0" type="line"/>
      <point x="686" y="158" type="line"/>
    </contour>
  </outline>
</glyph>
<glyph name="uni1B28" format="2">
  <advance width="741"/>
  <unicode hex="1B28"/>
  <anchor x="302" y="0" name="Anchor-4"/>
  <anchor x="305" y="594" name="Anchor-2"/>
  <outline>
    <contour>
      <point x="502" y="383" type="qcurve" smooth="yes"/>
      <point x="524" y="383"/>
      <point x="546" y="390" type="qcurve"/>
      <point x="503" y="481"/>
      <point x="446" y="481" type="qcurve" smooth="yes"/>
      <point x="406" y="479"/>
      <point x="406" y="445" type="qcurve" smooth="yes"/>
      <point x="406" y="419"/>
      <point x="460" y="383"/>
    </contour>
    <contour>
      <point x="444" y="-4" type="line"/>
      <point x="438" y="-4" type="line"/>
      <point x="375" y="151"/>
      <point x="312" y="151" type="qcurve" smooth="yes"/>
      <point x="268" y="151"/>
      <point x="225" y="-1"/>
      <point x="157" y="-4" type="qcurve" smooth="yes"/>
      <point x="151" y="-4" type="line" smooth="yes"/>
      <point x="50" y="-2"/>
      <point x="50" y="112" type="qcurve" smooth="yes"/>
      <point x="50" y="125" type="line" smooth="yes"/>
      <point x="52" y="189"/>
      <point x="101" y="268" type="qcurve" smooth="yes"/>
      <point x="126" y="308"/>
      <point x="126" y="327" type="qcurve" smooth="yes"/>
      <point x="126" y="346"/>
      <point x="103" y="346" type="qcurve" smooth="yes"/>
      <point x="68" y="346"/>
      <point x="68" y="297" type="qcurve" smooth="yes"/>
      <point x="68" y="280"/>
      <point x="73" y="256" type="qcurve"/>
      <point x="60" y="254" type="line"/>
      <point x="45" y="292"/>
      <point x="45" y="330" type="qcurve" smooth="yes"/>
      <point x="45" y="440"/>
      <point x="119" y="440" type="qcurve"/>
      <point x="181" y="436"/>
      <point x="181" y="378" type="qcurve" smooth="yes"/>
      <point x="181" y="342"/>
      <point x="144" y="286" type="qcurve" smooth="yes"/>
      <point x="97" y="215"/>
      <point x="97" y="172" type="qcurve" smooth="yes"/>
      <point x="97" y="96"/>
      <point x="178" y="94" type="qcurve" smooth="yes"/>
      <point x="229" y="95"/>
      <point x="272" y="213"/>
      <point x="322" y="213" type="qcurve" smooth="yes"/>
      <point x="416" y="213"/>
      <point x="459" y="98" type="qcurve"/>
      <point x="503" y="105"/>
      <point x="532" y="127" type="qcurve" smooth="yes"/>
      <point x="576" y="159"/>
      <point x="581" y="212" type="qcurve" smooth="yes"/>
      <point x="583" y="245" type="line" smooth="yes"/>
      <point x="583" y="276"/>
      <point x="576" y="297" type="qcurve"/>
      <point x="541" y="293" type="line"/>
      <point x="459" y="295"/>
      <point x="370" y="370"/>
      <point x="367" y="419" type="qcurve" smooth="yes"/>
      <point x="367" y="431" type="line" smooth="yes"/>
      <point x="367" y="512"/>
      <point x="446" y="512" type="qcurve" smooth="yes"/>
      <point x="523" y="512"/>
      <point x="577" y="400" type="qcurve"/>
      <point x="656" y="443"/>
      <point x="686" y="529" type="qcurve"/>
      <point x="698" y="529" type="line"/>
      <point x="700" y="492" type="line"/>
      <point x="700" y="373"/>
      <point x="608" y="316" type="qcurve"/>
      <point x="619" y="275"/>
      <point x="619" y="227" type="qcurve" smooth="yes"/>
      <point x="619" y="119"/>
      <point x="512" y="-3"/>
      <point x="447" y="-4" type="qcurve" smooth="yes"/>
    </contour>
  </outline>
</glyph>
<glyph name="uni1B29" format="2">
  <advance width="1021"/>
  <unicode hex="1B29"/>
  <anchor x="558" y="0" name="Anchor-4"/>
  <anchor x="493" y="525" name="Anchor-2"/>
  <outline>
    <contour>
      <point x="674" y="-11" type="qcurve"/>
      <point x="671" y="2" type="line"/>
      <point x="735" y="50"/>
      <point x="743" y="184" type="qcurve"/>
      <point x="742" y="333"/>
      <point x="633" y="342" type="qcurve"/>
      <point x="608" y="342" type="line"/>
      <point x="528" y="333"/>
      <point x="480" y="270" type="qcurve"/>
      <point x="478" y="270" type="line"/>
      <point x="430" y="333"/>
      <point x="350" y="342" type="qcurve"/>
      <point x="326" y="342" type="line"/>
      <point x="241" y="335"/>
      <point x="222" y="246" type="qcurve"/>
      <point x="220" y="202" type="line"/>
      <point x="220" y="77"/>
      <point x="305" y="9" type="qcurve"/>
      <point x="295" y="-5" type="line"/>
      <point x="219" y="11"/>
      <point x="152" y="41" type="qcurve" smooth="yes"/>
      <point x="70" y="76"/>
      <point x="70" y="163" type="qcurve" smooth="yes"/>
      <point x="70" y="212"/>
      <point x="100" y="268" type="qcurve" smooth="yes"/>
      <point x="125" y="308"/>
      <point x="125" y="328" type="qcurve" smooth="yes"/>
      <point x="125" y="346"/>
      <point x="103" y="346" type="qcurve" smooth="yes"/>
      <point x="68" y="346"/>
      <point x="68" y="297" type="qcurve" smooth="yes"/>
      <point x="68" y="280"/>
      <point x="73" y="256" type="qcurve"/>
      <point x="59" y="254" type="line"/>
      <point x="45" y="291"/>
      <point x="45" y="328" type="qcurve" smooth="yes"/>
      <point x="45" y="440"/>
      <point x="119" y="440" type="qcurve"/>
      <point x="180" y="436"/>
      <point x="180" y="378" type="qcurve" smooth="yes"/>
      <point x="180" y="342"/>
      <point x="108" y="232"/>
      <point x="108" y="195" type="qcurve" smooth="yes"/>
      <point x="108" y="135"/>
      <point x="204" y="100" type="qcurve"/>
      <point x="189" y="135"/>
      <point x="185" y="194" type="qcurve"/>
      <point x="188" y="434"/>
      <point x="323" y="439" type="qcurve" smooth="yes"/>
      <point x="378" y="439"/>
      <point x="452" y="381"/>
      <point x="479" y="323" type="qcurve"/>
      <point x="505" y="379"/>
      <point x="574" y="439"/>
      <point x="636" y="439" type="qcurve" smooth="yes"/>
      <point x="772" y="433"/>
      <point x="772" y="189" type="qcurve"/>
      <point x="766" y="102"/>
      <point x="744" y="51" type="qcurve"/>
      <point x="814" y="86"/>
      <point x="823" y="234" type="qcurve"/>
      <point x="823" y="442" type="line"/>
      <point x="966" y="431"/>
      <point x="971" y="273" type="qcurve"/>
      <point x="971" y="0" type="line"/>
      <point x="941" y="0" type="line"/>
      <point x="941" y="198" type="line" smooth="yes"/>
      <point x="938" y="333"/>
      <point x="853" y="342" type="qcurve"/>
      <point x="853" y="226" type="line"/>
      <point x="845" y="13"/>
    </contour>
  </outline>
</glyph>
<glyph name="uni1B2A" format="2">
  <advance width="764"/>
  <unicode hex="1B2A"/>
  <anchor x="409" y="0" name="Anchor-4"/>
  <anchor x="404" y="525" name="Anchor-2"/>
  <outline>
    <contour>
      <point x="227" y="231" type="line"/>
      <point x="145" y="354"/>
      <point x="58" y="354" type="qcurve"/>
      <point x="42" y="353" type="line"/>
      <point x="67" y="436"/>
      <point x="93" y="436" type="qcurve" smooth="yes"/>
      <point x="167" y="436"/>
      <point x="242" y="239" type="qcurve"/>
    </contour>
    <contour>
      <point x="279" y="90" type="line"/>
      <point x="195" y="24" type="line" smooth="yes"/>
      <point x="166" y="0"/>
      <point x="128" y="-1" type="qcurve" smooth="yes"/>
      <point x="51" y="-1"/>
      <point x="45" y="77" type="qcurve"/>
      <point x="45" y="84" type="line" smooth="yes"/>
      <point x="45" y="162"/>
      <point x="168" y="245" type="qcurve"/>
      <point x="179" y="234" type="line"/>
      <point x="92" y="144"/>
      <point x="92" y="104" type="qcurve" smooth="yes"/>
      <point x="92" y="79"/>
      <point x="116" y="79" type="qcurve" smooth="yes"/>
      <point x="126" y="80" type="line" smooth="yes"/>
      <point x="136" y="82"/>
      <point x="159" y="94" type="qcurve" smooth="yes"/>
      <point x="269" y="165" type="line"/>
    </contour>
    <contour>
      <point x="388" y="31" type="line" smooth="yes"/>
      <point x="432" y="31"/>
      <point x="432" y="68" type="qcurve" smooth="yes"/>
      <point x="432" y="75" type="line"/>
      <point x="427" y="123"/>
      <point x="380" y="128" type="qcurve" smooth="yes"/>
      <point x="361" y="129" type="line" smooth="yes"/>
      <point x="328" y="129"/>
      <point x="310" y="115" type="qcurve"/>
      <point x="322" y="35"/>
      <point x="380" y="31" type="qcurve"/>
    </contour>
    <contour>
      <point x="395" y="-3" type="qcurve" smooth="yes"/>
      <point x="306" y="-1"/>
      <point x="279" y="90" type="qcurve"/>
      <point x="269" y="165" type="line"/>
      <point x="269" y="245" type="line"/>
      <point x="281" y="438"/>
      <point x="491" y="441" type="qcurve"/>
      <point x="714" y="438"/>
      <point x="714" y="221" type="qcurve" smooth="yes"/>
      <point x="714" y="0" type="line"/>
      <point x="684" y="0" type="line"/>
      <point x="684" y="189" type="line"/>
      <point x="677" y="343"/>
      <point x="492" y="343" type="qcurve" smooth="yes"/>
      <point x="308" y="343"/>
      <point x="308" y="217" type="qcurve" smooth="yes"/>
      <point x="308" y="187" type="line"/>
      <point x="334" y="198"/>
      <point x="368" y="198" type="qcurve" smooth="yes"/>
      <point x="389" y="197" type="line"/>
      <point x="485" y="187"/>
      <point x="485" y="97" type="qcurve" smooth="yes"/>
      <point x="485" y="-3"/>
    </contour>
  </outline>
</glyph>
<glyph name="uni1B2B" format="2">
  <advance width="698"/>
  <unicode hex="1B2B"/>
  <anchor x="406" y="0" name="Anchor-4"/>
  <anchor x="379" y="525" name="Anchor-2"/>
  <outline>
    <contour>
      <point x="340" y="-4" type="qcurve" smooth="yes"/>
      <point x="256" y="-2"/>
      <point x="152" y="65"/>
      <point x="152" y="127" type="qcurve" smooth="yes"/>
      <point x="152" y="187"/>
      <point x="213" y="217" type="qcurve"/>
      <point x="222" y="220" type="line"/>
      <point x="213" y="223" type="line"/>
      <point x="152" y="252"/>
      <point x="152" y="317" type="qcurve" smooth="yes"/>
      <point x="152" y="384"/>
      <point x="218" y="409" type="qcurve"/>
      <point x="164" y="405"/>
      <point x="85" y="318"/>
      <point x="85" y="238" type="qcurve" smooth="yes"/>
      <point x="85" y="192"/>
      <point x="97" y="141" type="qcurve"/>
      <point x="83" y="130" type="line"/>
      <point x="51" y="169"/>
      <point x="45" y="255" type="qcurve"/>
      <point x="51" y="440"/>
      <point x="316" y="440" type="qcurve" smooth="yes"/>
      <point x="386" y="440" type="line"/>
      <point x="386" y="342" type="line"/>
      <point x="351" y="342" type="line" smooth="yes"/>
      <point x="201" y="342"/>
      <point x="201" y="284" type="qcurve" smooth="yes"/>
      <point x="201" y="240"/>
      <point x="324" y="236" type="qcurve"/>
      <point x="384" y="236" type="line"/>
      <point x="384" y="203" type="line"/>
      <point x="324" y="203" type="line"/>
      <point x="201" y="199"/>
      <point x="201" y="155" type="qcurve" smooth="yes"/>
      <point x="201" y="98"/>
      <point x="331" y="94" type="qcurve"/>
      <point x="500" y="94"/>
      <point x="500" y="234" type="qcurve" smooth="yes"/>
      <point x="500" y="442" type="line"/>
      <point x="643" y="431"/>
      <point x="648" y="273" type="qcurve"/>
      <point x="648" y="0" type="line"/>
      <point x="618" y="0" type="line"/>
      <point x="618" y="198" type="line" smooth="yes"/>
      <point x="615" y="333"/>
      <point x="531" y="342" type="qcurve"/>
      <point x="531" y="187" type="line" smooth="yes"/>
      <point x="531" y="-2"/>
    </contour>
  </outline>
</glyph>
<glyph name="uni1B2C" format="2">
  <advance width="858"/>
  <unicode hex="1B2C"/>
  <anchor x="466" y="0" name="Anchor-4"/>
  <anchor x="442" y="525" name="Anchor-2"/>
  <outline>
    <contour>
      <point x="567" y="-4" type="qcurve" smooth="yes"/>
      <point x="559" y="-4" type="line" smooth="yes"/>
      <point x="480" y="-3"/>
      <point x="393" y="129"/>
      <point x="379" y="217" type="qcurve"/>
      <point x="347" y="-2"/>
      <point x="200" y="-4" type="qcurve" smooth="yes"/>
      <point x="194" y="-4" type="line" smooth="yes"/>
      <point x="65" y="-1"/>
      <point x="56" y="122" type="qcurve"/>
      <point x="56" y="135" type="line" smooth="yes"/>
      <point x="56" y="196"/>
      <point x="100" y="268" type="qcurve" smooth="yes"/>
      <point x="125" y="308"/>
      <point x="125" y="328" type="qcurve" smooth="yes"/>
      <point x="125" y="346"/>
      <point x="103" y="346" type="qcurve" smooth="yes"/>
      <point x="68" y="346"/>
      <point x="68" y="296" type="qcurve" smooth="yes"/>
      <point x="68" y="279"/>
      <point x="72" y="256" type="qcurve"/>
      <point x="59" y="254" type="line"/>
      <point x="45" y="291"/>
      <point x="45" y="328" type="qcurve" smooth="yes"/>
      <point x="45" y="440"/>
      <point x="119" y="440" type="qcurve"/>
      <point x="180" y="436"/>
      <point x="180" y="378" type="qcurve" smooth="yes"/>
      <point x="180" y="342"/>
      <point x="143" y="286" type="qcurve" smooth="yes"/>
      <point x="102" y="224"/>
      <point x="102" y="185" type="qcurve" smooth="yes"/>
      <point x="103" y="173" type="line"/>
      <point x="111" y="132"/>
      <point x="170" y="94"/>
      <point x="204" y="94" type="qcurve" smooth="yes"/>
      <point x="209" y="94" type="line" smooth="yes"/>
      <point x="288" y="94"/>
      <point x="362" y="246"/>
      <point x="366" y="439" type="qcurve"/>
      <point x="392" y="439" type="line"/>
      <point x="396" y="246"/>
      <point x="470" y="94"/>
      <point x="560" y="94" type="qcurve" smooth="yes"/>
      <point x="606" y="94"/>
      <point x="660" y="167"/>
      <point x="660" y="234" type="qcurve" smooth="yes"/>
      <point x="660" y="442" type="line"/>
      <point x="803" y="431"/>
      <point x="808" y="273" type="qcurve"/>
      <point x="808" y="0" type="line"/>
      <point x="778" y="0" type="line"/>
      <point x="778" y="198" type="line" smooth="yes"/>
      <point x="775" y="333"/>
      <point x="691" y="342" type="qcurve"/>
      <point x="691" y="187" type="line" smooth="yes"/>
      <point x="691" y="-2"/>
    </contour>
  </outline>
</glyph>
<glyph name="uni1B2D" format="2">
  <advance width="653"/>
  <unicode hex="1B2D"/>
  <anchor x="384" y="0" name="Anchor-4"/>
  <anchor x="368" y="525" name="Anchor-2"/>
  <outline>
    <contour>
      <point x="134" y="-3" type="qcurve"/>
      <point x="118" y="-2" type="line"/>
      <point x="185" y="74"/>
      <point x="185" y="187" type="qcurve" smooth="yes"/>
      <point x="185" y="297"/>
      <point x="117" y="347" type="qcurve"/>
      <point x="86" y="336"/>
      <point x="60" y="301" type="qcurve"/>
      <point x="45" y="304" type="line"/>
      <point x="61" y="394"/>
      <point x="126" y="448" type="qcurve"/>
      <point x="177" y="397"/>
      <point x="216" y="286"/>
      <point x="216" y="202" type="qcurve" smooth="yes"/>
      <point x="215" y="169" type="line"/>
      <point x="209" y="117"/>
      <point x="191" y="68" type="qcurve"/>
      <point x="248" y="80"/>
      <point x="255" y="185" type="qcurve"/>
      <point x="255" y="245" type="line"/>
      <point x="267" y="438"/>
      <point x="429" y="441" type="qcurve"/>
      <point x="603" y="438"/>
      <point x="603" y="221" type="qcurve" smooth="yes"/>
      <point x="603" y="0" type="line"/>
      <point x="573" y="0" type="line"/>
      <point x="573" y="189" type="line"/>
      <point x="565" y="343"/>
      <point x="429" y="343" type="qcurve" smooth="yes"/>
      <point x="292" y="343"/>
      <point x="285" y="214" type="qcurve"/>
      <point x="285" y="207" type="line" smooth="yes"/>
      <point x="285" y="-3"/>
    </contour>
  </outline>
</glyph>
<glyph name="uni1B2E" format="2">
  <advance width="892"/>
  <unicode hex="1B2E"/>
  <anchor x="483" y="0" name="Anchor-4"/>
  <anchor x="472" y="525" name="Anchor-2"/>
  <outline>
    <contour>
      <point x="569" y="-4" type="qcurve" smooth="yes"/>
      <point x="417" y="-2"/>
      <point x="417" y="182" type="qcurve" smooth="yes"/>
      <point x="417" y="203" type="line" smooth="yes"/>
      <point x="417" y="342"/>
      <point x="322" y="342" type="qcurve" smooth="yes"/>
      <point x="225" y="342"/>
      <point x="218" y="188" type="qcurve" smooth="yes"/>
      <point x="211" y="66"/>
      <point x="171" y="-2"/>
      <point x="132" y="-2" type="qcurve" smooth="yes"/>
      <point x="97" y="-2"/>
      <point x="53" y="51"/>
      <point x="53" y="104" type="qcurve" smooth="yes"/>
      <point x="53" y="143"/>
      <point x="77" y="227"/>
      <point x="126" y="308"/>
      <point x="126" y="327" type="qcurve" smooth="yes"/>
      <point x="126" y="346"/>
      <point x="103" y="346" type="qcurve" smooth="yes"/>
      <point x="68" y="346"/>
      <point x="68" y="297" type="qcurve" smooth="yes"/>
      <point x="68" y="280"/>
      <point x="73" y="256" type="qcurve"/>
      <point x="60" y="254" type="line"/>
      <point x="45" y="292"/>
      <point x="45" y="330" type="qcurve" smooth="yes"/>
      <point x="45" y="440"/>
      <point x="119" y="440" type="qcurve"/>
      <point x="181" y="436"/>
      <point x="181" y="378" type="qcurve" smooth="yes"/>
      <point x="181" y="342"/>
      <point x="144" y="286" type="qcurve" smooth="yes"/>
      <point x="85" y="198"/>
      <point x="85" y="138" type="qcurve" smooth="yes"/>
      <point x="85" y="89"/>
      <point x="127" y="89" type="qcurve" smooth="yes"/>
      <point x="157" y="89"/>
      <point x="192" y="147"/>
      <point x="192" y="198" type="qcurve" smooth="yes"/>
      <point x="192" y="440"/>
      <point x="323" y="440" type="qcurve" smooth="yes"/>
      <point x="442" y="440"/>
      <point x="442" y="214" type="qcurve" smooth="yes"/>
      <point x="442" y="191" type="line" smooth="yes"/>
      <point x="442" y="94"/>
      <point x="569" y="94" type="qcurve" smooth="yes"/>
      <point x="694" y="94"/>
      <point x="694" y="234" type="qcurve" smooth="yes"/>
      <point x="694" y="442" type="line"/>
      <point x="837" y="431"/>
      <point x="842" y="273" type="qcurve"/>
      <point x="842" y="0" type="line"/>
      <point x="812" y="0" type="line"/>
      <point x="812" y="198" type="line" smooth="yes"/>
      <point x="809" y="333"/>
      <point x="725" y="342" type="qcurve"/>
      <point x="725" y="187" type="line" smooth="yes"/>
      <point x="725" y="101"/>
      <point x="645" y="-3"/>
    </contour>
  </outline>
</glyph>
<glyph name="uni1B2F" format="2">
  <advance width="603"/>
  <unicode hex="1B2F"/>
  <anchor x="349" y="0" name="Anchor-4"/>
  <anchor x="312" y="525" name="Anchor-2"/>
  <outline>
    <contour>
      <point x="231" y="-4" type="qcurve" smooth="yes"/>
      <point x="80" y="-2"/>
      <point x="61" y="127" type="qcurve"/>
      <point x="59" y="148" type="line"/>
      <point x="59" y="202"/>
      <point x="100" y="268" type="qcurve" smooth="yes"/>
      <point x="125" y="308"/>
      <point x="125" y="328" type="qcurve" smooth="yes"/>
      <point x="125" y="346"/>
      <point x="103" y="346" type="qcurve" smooth="yes"/>
      <point x="68" y="346"/>
      <point x="68" y="296" type="qcurve" smooth="yes"/>
      <point x="68" y="279"/>
      <point x="72" y="256" type="qcurve"/>
      <point x="59" y="254" type="line"/>
      <point x="45" y="291"/>
      <point x="45" y="328" type="qcurve" smooth="yes"/>
      <point x="45" y="440"/>
      <point x="119" y="440" type="qcurve"/>
      <point x="180" y="436"/>
      <point x="180" y="378" type="qcurve" smooth="yes"/>
      <point x="180" y="342"/>
      <point x="143" y="286" type="qcurve" smooth="yes"/>
      <point x="102" y="224"/>
      <point x="102" y="185" type="qcurve" smooth="yes"/>
      <point x="103" y="173" type="line"/>
      <point x="111" y="132"/>
      <point x="170" y="94"/>
      <point x="231" y="94" type="qcurve" smooth="yes"/>
      <point x="308" y="94"/>
      <point x="395" y="167"/>
      <point x="395" y="234" type="qcurve" smooth="yes"/>
      <point x="394" y="313"/>
      <point x="336" y="348" type="qcurve"/>
      <point x="309" y="358"/>
      <point x="283" y="358" type="qcurve" smooth="yes"/>
      <point x="262" y="358"/>
      <point x="241" y="351" type="qcurve"/>
      <point x="267" y="441"/>
      <point x="362" y="441" type="qcurve" smooth="yes"/>
      <point x="553" y="441"/>
      <point x="553" y="148" type="qcurve" smooth="yes"/>
      <point x="553" y="0" type="line"/>
      <point x="523" y="0" type="line"/>
      <point x="523" y="154" type="line" smooth="yes"/>
      <point x="520" y="373"/>
      <point x="355" y="375" type="qcurve"/>
      <point x="426" y="336"/>
      <point x="426" y="232" type="qcurve" smooth="yes"/>
      <point x="426" y="221" type="line" smooth="yes"/>
      <point x="426" y="-2"/>
    </contour>
  </outline>
</glyph>
<glyph name="uni1B30" format="2">
  <advance width="872"/>
  <unicode hex="1B30"/>
  <anchor x="453" y="0" name="Anchor-4"/>
  <anchor x="429" y="525" name="Anchor-2"/>
  <outline>
    <contour>
      <point x="480" y="-5" type="line"/>
      <point x="433" y="143"/>
      <point x="316" y="259" type="qcurve"/>
      <point x="364" y="308" type="line"/>
      <point x="431" y="254"/>
      <point x="489" y="92"/>
      <point x="498" y="0" type="qcurve"/>
    </contour>
    <contour>
      <point x="526" y="-11" type="qcurve"/>
      <point x="522" y="2" type="line"/>
      <point x="587" y="50"/>
      <point x="594" y="184" type="qcurve"/>
      <point x="594" y="333"/>
      <point x="411" y="342" type="qcurve"/>
      <point x="399" y="342" type="line"/>
      <point x="241" y="335"/>
      <point x="222" y="197" type="qcurve"/>
      <point x="220" y="166" type="line"/>
      <point x="220" y="77"/>
      <point x="305" y="9" type="qcurve"/>
      <point x="295" y="-5" type="line"/>
      <point x="219" y="11"/>
      <point x="152" y="41" type="qcurve" smooth="yes"/>
      <point x="70" y="76"/>
      <point x="70" y="163" type="qcurve" smooth="yes"/>
      <point x="70" y="212"/>
      <point x="100" y="268" type="qcurve" smooth="yes"/>
      <point x="125" y="308"/>
      <point x="125" y="328" type="qcurve" smooth="yes"/>
      <point x="125" y="346"/>
      <point x="103" y="346" type="qcurve" smooth="yes"/>
      <point x="68" y="346"/>
      <point x="68" y="297" type="qcurve" smooth="yes"/>
      <point x="68" y="280"/>
      <point x="73" y="256" type="qcurve"/>
      <point x="59" y="254" type="line"/>
      <point x="45" y="291"/>
      <point x="45" y="328" type="qcurve" smooth="yes"/>
      <point x="45" y="440"/>
      <point x="119" y="440" type="qcurve"/>
      <point x="180" y="436"/>
      <point x="180" y="378" type="qcurve" smooth="yes"/>
      <point x="180" y="342"/>
      <point x="107" y="232"/>
      <point x="107" y="194" type="qcurve" smooth="yes"/>
      <point x="107" y="135"/>
      <point x="204" y="100" type="qcurve"/>
      <point x="189" y="135"/>
      <point x="185" y="194" type="qcurve"/>
      <point x="188" y="434"/>
      <point x="396" y="439" type="qcurve"/>
      <point x="414" y="439" type="line"/>
      <point x="624" y="433"/>
      <point x="624" y="186" type="qcurve"/>
      <point x="618" y="102"/>
      <point x="596" y="51" type="qcurve"/>
      <point x="666" y="86"/>
      <point x="674" y="234" type="qcurve"/>
      <point x="674" y="442" type="line"/>
      <point x="817" y="431"/>
      <point x="822" y="273" type="qcurve"/>
      <point x="822" y="0" type="line"/>
      <point x="792" y="0" type="line"/>
      <point x="792" y="198" type="line" smooth="yes"/>
      <point x="789" y="333"/>
      <point x="705" y="342" type="qcurve"/>
      <point x="705" y="226" type="line"/>
      <point x="695" y="13"/>
    </contour>
  </outline>
</glyph>
<glyph name="uni1B31" format="2">
  <advance width="594"/>
  <unicode hex="1B31"/>
  <anchor x="344" y="0" name="Anchor-4"/>
  <anchor x="303" y="525" name="Anchor-2"/>
  <outline>
    <contour>
      <point x="465" y="6" type="line"/>
      <point x="395" y="129"/>
      <point x="279" y="245"/>
      <point x="208" y="284" type="qcurve"/>
      <point x="231" y="343" type="line"/>
      <point x="310" y="315"/>
      <point x="438" y="147"/>
      <point x="481" y="16" type="qcurve"/>
    </contour>
    <contour>
      <point x="232" y="-4" type="qcurve" smooth="yes"/>
      <point x="81" y="-2"/>
      <point x="62" y="127" type="qcurve"/>
      <point x="60" y="148" type="line"/>
      <point x="60" y="202"/>
      <point x="101" y="268" type="qcurve" smooth="yes"/>
      <point x="126" y="308"/>
      <point x="126" y="327" type="qcurve" smooth="yes"/>
      <point x="126" y="346"/>
      <point x="103" y="346" type="qcurve" smooth="yes"/>
      <point x="68" y="346"/>
      <point x="68" y="297" type="qcurve" smooth="yes"/>
      <point x="68" y="280"/>
      <point x="73" y="256" type="qcurve"/>
      <point x="60" y="254" type="line"/>
      <point x="45" y="292"/>
      <point x="45" y="330" type="qcurve" smooth="yes"/>
      <point x="45" y="440"/>
      <point x="119" y="440" type="qcurve"/>
      <point x="181" y="436"/>
      <point x="181" y="378" type="qcurve" smooth="yes"/>
      <point x="181" y="342"/>
      <point x="144" y="286" type="qcurve" smooth="yes"/>
      <point x="103" y="224"/>
      <point x="103" y="185" type="qcurve" smooth="yes"/>
      <point x="104" y="173" type="line"/>
      <point x="117" y="94"/>
      <point x="232" y="94" type="qcurve" smooth="yes"/>
      <point x="308" y="94"/>
      <point x="396" y="167"/>
      <point x="396" y="234" type="qcurve" smooth="yes"/>
      <point x="396" y="442" type="line"/>
      <point x="539" y="431"/>
      <point x="544" y="273" type="qcurve"/>
      <point x="544" y="0" type="line"/>
      <point x="514" y="0" type="line"/>
      <point x="514" y="198" type="line" smooth="yes"/>
      <point x="511" y="333"/>
      <point x="427" y="342" type="qcurve"/>
      <point x="427" y="187" type="line" smooth="yes"/>
      <point x="427" y="101"/>
      <point x="322" y="-3"/>
    </contour>
  </outline>
</glyph>
<glyph name="uni1B32" format="2">
  <advance width="691"/>
  <unicode hex="1B32"/>
  <anchor x="403" y="0" name="Anchor-4"/>
  <anchor x="373" y="525" name="Anchor-2"/>
  <outline>
    <contour>
      <point x="108" y="28" type="qcurve" smooth="yes"/>
      <point x="122" y="30" type="line" smooth="yes"/>
      <point x="166" y="40"/>
      <point x="189" y="129" type="qcurve"/>
      <point x="173" y="133"/>
      <point x="159" y="133" type="qcurve" smooth="yes"/>
      <point x="128" y="133"/>
      <point x="80" y="94"/>
      <point x="80" y="64" type="qcurve" smooth="yes"/>
      <point x="80" y="56" type="line" smooth="yes"/>
      <point x="83" y="28"/>
    </contour>
    <contour>
      <point x="431" y="-4" type="qcurve"/>
      <point x="422" y="-4" type="line" smooth="yes"/>
      <point x="374" y="-4"/>
      <point x="323" y="45" type="qcurve" smooth="yes"/>
      <point x="266" y="98"/>
      <point x="218" y="122" type="qcurve"/>
      <point x="206" y="69"/>
      <point x="147" y="-3"/>
      <point x="108" y="-3" type="qcurve" smooth="yes"/>
      <point x="45" y="-3"/>
      <point x="45" y="68" type="qcurve"/>
      <point x="47" y="94" type="line"/>
      <point x="65" y="208"/>
      <point x="206" y="208" type="qcurve"/>
      <point x="215" y="267"/>
      <point x="215" y="299" type="qcurve" smooth="yes"/>
      <point x="215" y="365"/>
      <point x="160" y="365" type="qcurve" smooth="yes"/>
      <point x="111" y="365"/>
      <point x="106" y="314" type="qcurve"/>
      <point x="106" y="308" type="line" smooth="yes"/>
      <point x="106" y="280"/>
      <point x="129" y="242" type="qcurve"/>
      <point x="121" y="232" type="line"/>
      <point x="69" y="277"/>
      <point x="69" y="344" type="qcurve" smooth="yes"/>
      <point x="69" y="356" type="line"/>
      <point x="73" y="431"/>
      <point x="134" y="443" type="qcurve"/>
      <point x="158" y="445" type="line"/>
      <point x="247" y="445"/>
      <point x="247" y="330" type="qcurve" smooth="yes"/>
      <point x="247" y="279"/>
      <point x="233" y="202" type="qcurve"/>
      <point x="282" y="190"/>
      <point x="403" y="88"/>
      <point x="436" y="79" type="qcurve"/>
      <point x="451" y="77" type="line"/>
      <point x="493" y="77"/>
      <point x="493" y="190" type="qcurve" smooth="yes"/>
      <point x="493" y="442" type="line"/>
      <point x="636" y="431"/>
      <point x="641" y="273" type="qcurve"/>
      <point x="641" y="0" type="line"/>
      <point x="611" y="0" type="line"/>
      <point x="611" y="198" type="line" smooth="yes"/>
      <point x="608" y="333"/>
      <point x="524" y="342" type="qcurve"/>
      <point x="524" y="177" type="line"/>
      <point x="519" y="83"/>
      <point x="483" y="0"/>
    </contour>
  </outline>
</glyph>
<glyph name="uni1B33" format="2">
  <advance width="883"/>
  <unicode hex="1B33"/>
  <anchor x="469" y="0" name="Anchor-4"/>
  <anchor x="448" y="525" name="Anchor-2"/>
  <outline>
    <contour>
      <point x="232" y="-4" type="qcurve" smooth="yes"/>
      <point x="81" y="-2"/>
      <point x="62" y="127" type="qcurve"/>
      <point x="60" y="148" type="line"/>
      <point x="60" y="202"/>
      <point x="101" y="268" type="qcurve" smooth="yes"/>
      <point x="126" y="308"/>
      <point x="126" y="327" type="qcurve" smooth="yes"/>
      <point x="126" y="346"/>
      <point x="103" y="346" type="qcurve" smooth="yes"/>
      <point x="68" y="346"/>
      <point x="68" y="297" type="qcurve" smooth="yes"/>
      <point x="68" y="280"/>
      <point x="73" y="256" type="qcurve"/>
      <point x="60" y="254" type="line"/>
      <point x="45" y="292"/>
      <point x="45" y="330" type="qcurve" smooth="yes"/>
      <point x="45" y="440"/>
      <point x="119" y="440" type="qcurve"/>
      <point x="180" y="436"/>
      <point x="180" y="378" type="qcurve" smooth="yes"/>
      <point x="180" y="341"/>
      <point x="144" y="286" type="qcurve" smooth="yes"/>
      <point x="103" y="224"/>
      <point x="103" y="185" type="qcurve" smooth="yes"/>
      <point x="104" y="173" type="line"/>
      <point x="117" y="94"/>
      <point x="232" y="94" type="qcurve" smooth="yes"/>
      <point x="368" y="94"/>
      <point x="368" y="191" type="qcurve" smooth="yes"/>
      <point x="368" y="214" type="line" smooth="yes"/>
      <point x="368" y="440"/>
      <point x="502" y="440" type="qcurve" smooth="yes"/>
      <point x="637" y="440"/>
      <point x="638" y="198" type="qcurve" smooth="yes"/>
      <point x="638" y="131" type="line" smooth="yes"/>
      <point x="638" y="63"/>
      <point x="661" y="60" type="qcurve"/>
      <point x="684" y="63"/>
      <point x="685" y="131" type="qcurve" smooth="yes"/>
      <point x="685" y="442" type="line"/>
      <point x="828" y="431"/>
      <point x="833" y="273" type="qcurve"/>
      <point x="833" y="0" type="line"/>
      <point x="803" y="0" type="line"/>
      <point x="803" y="198" type="line" smooth="yes"/>
      <point x="800" y="333"/>
      <point x="716" y="342" type="qcurve"/>
      <point x="716" y="158" type="line" smooth="yes"/>
      <point x="715" y="1"/>
      <point x="662" y="0" type="qcurve" smooth="yes"/>
      <point x="607" y="1"/>
      <point x="607" y="158" type="qcurve" smooth="yes"/>
      <point x="607" y="188" type="line"/>
      <point x="600" y="342"/>
      <point x="503" y="342" type="qcurve" smooth="yes"/>
      <point x="393" y="342"/>
      <point x="393" y="203" type="qcurve" smooth="yes"/>
      <point x="393" y="182" type="line" smooth="yes"/>
      <point x="393" y="86"/>
      <point x="298" y="-3"/>
    </contour>
  </outline>
</glyph>
<glyph name="uni1B34" format="2">
  <advance width="0"/>
  <unicode hex="1B34"/>
  <anchor x="-495" y="530" name="_Anchor-2"/>
  <outline>
    <contour>
      <point x="-573" y="530" type="line"/>
      <point x="-635" y="530"/>
      <point x="-635" y="581" type="qcurve" smooth="yes"/>
      <point x="-635" y="599"/>
      <point x="-627" y="624" type="qcurve"/>
      <point x="-608" y="577"/>
      <point x="-526" y="577" type="qcurve" smooth="yes"/>
      <point x="-501" y="578" type="line"/>
      <point x="-530" y="534"/>
      <point x="-564" y="531" type="qcurve" smooth="yes"/>
    </contour>
    <contour>
      <point x="-413" y="530" type="line"/>
      <point x="-475" y="530"/>
      <point x="-475" y="581" type="qcurve" smooth="yes"/>
      <point x="-475" y="599"/>
      <point x="-467" y="624" type="qcurve"/>
      <point x="-448" y="577"/>
      <point x="-366" y="577" type="qcurve" smooth="yes"/>
      <point x="-341" y="578" type="line"/>
      <point x="-370" y="534"/>
      <point x="-404" y="531" type="qcurve" smooth="yes"/>
    </contour>
    <contour>
      <point x="-513" y="640" type="line"/>
      <point x="-575" y="640"/>
      <point x="-575" y="691" type="qcurve" smooth="yes"/>
      <point x="-575" y="709"/>
      <point x="-567" y="734" type="qcurve"/>
      <point x="-548" y="687"/>
      <point x="-466" y="687" type="qcurve" smooth="yes"/>
      <point x="-441" y="688" type="line"/>
      <point x="-470" y="644"/>
      <point x="-504" y="641" type="qcurve" smooth="yes"/>
    </contour>
  </outline>
</glyph>
<glyph name="uni1B35" format="2">
  <advance width="488"/>
  <unicode hex="1B35"/>
  <outline>
    <contour>
      <point x="245" y="-15" type="qcurve" smooth="yes"/>
      <point x="157" y="-15"/>
      <point x="144" y="115" type="qcurve"/>
      <point x="160" y="125" type="line"/>
      <point x="221" y="67"/>
      <point x="301" y="67" type="qcurve" smooth="yes"/>
      <point x="383" y="68"/>
      <point x="441" y="158"/>
      <point x="441" y="199" type="qcurve" smooth="yes"/>
      <point x="438" y="341"/>
      <point x="255" y="342" type="qcurve" smooth="yes"/>
      <point x="74" y="342"/>
      <point x="7" y="285" type="qcurve"/>
      <point x="-6" y="297" type="line"/>
      <point x="80" y="438"/>
      <point x="254" y="440" type="qcurve" smooth="yes"/>
      <point x="275" y="440" type="line"/>
      <point x="467" y="413"/>
      <point x="467" y="217" type="qcurve" smooth="yes"/>
      <point x="467" y="79"/>
      <point x="361" y="13" type="qcurve"/>
      <point x="302" y="-15"/>
    </contour>
  </outline>
</glyph>
<glyph name="uni1B36" format="2">
  <advance width="0"/>
  <unicode hex="1B36"/>
  <anchor x="-332" y="527" name="_Anchor-2"/>
  <outline>
    <contour>
      <point x="-381" y="529" type="line"/>
      <point x="-496" y="575"/>
      <point x="-593" y="698" type="qcurve"/>
      <point x="-572" y="720" type="line"/>
      <point x="-511" y="653"/>
      <point x="-480" y="631" type="qcurve"/>
      <point x="-506" y="679"/>
      <point x="-506" y="726" type="qcurve"/>
      <point x="-504" y="749" type="line" smooth="yes"/>
      <point x="-494" y="820"/>
      <point x="-392" y="908"/>
      <point x="-323" y="908" type="qcurve" smooth="yes"/>
      <point x="-248" y="908"/>
      <point x="-148" y="808"/>
      <point x="-148" y="732" type="qcurve" smooth="yes"/>
      <point x="-148" y="722" type="line"/>
      <point x="-152" y="658"/>
      <point x="-205" y="574"/>
      <point x="-256" y="533" type="qcurve"/>
      <point x="-269" y="545" type="line"/>
      <point x="-210" y="614"/>
      <point x="-205" y="671" type="qcurve" smooth="yes"/>
      <point x="-204" y="695" type="line" smooth="yes"/>
      <point x="-204" y="753"/>
      <point x="-271" y="820"/>
      <point x="-331" y="820" type="qcurve"/>
      <point x="-357" y="818" type="line"/>
      <point x="-449" y="801"/>
      <point x="-455" y="708" type="qcurve" smooth="yes"/>
      <point x="-456" y="694" type="line"/>
      <point x="-456" y="608"/>
      <point x="-371" y="553" type="qcurve"/>
    </contour>
  </outline>
</glyph>
<glyph name="uni1B38" format="2">
  <advance width="0"/>
  <unicode hex="1B38"/>
  <anchor x="-59" y="0" name="_Anchor-5"/>
  <outline>
    <contour>
      <point x="-81" y="-69" type="qcurve"/>
      <point x="-109" y="-139"/>
      <point x="-185" y="-295"/>
      <point x="-342" y="-559"/>
      <point x="-342" y="-629" type="qcurve"/>
      <point x="-341" y="-646" type="line"/>
      <point x="-330" y="-689"/>
      <point x="-276" y="-689" type="qcurve" smooth="yes"/>
      <point x="-262" y="-688" type="line" smooth="yes"/>
      <point x="-103" y="-676"/>
    </contour>
    <contour>
      <point x="-80" y="1" type="qcurve"/>
      <point x="-50" y="1" type="line"/>
      <point x="-50" y="-11" type="line" smooth="yes"/>
      <point x="-50" y="-799"/>
      <point x="-321" y="-805" type="qcurve"/>
      <point x="-409" y="-797"/>
      <point x="-414" y="-696" type="qcurve"/>
      <point x="-413" y="-588"/>
      <point x="-213" y="-278"/>
      <point x="-83" y="-34"/>
    </contour>
  </outline>
</glyph>
<glyph name="uni1B39" format="2">
  <advance width="0"/>
  <unicode hex="1B39"/>
  <anchor x="-59" y="0" name="_Anchor-5"/>
  <outline>
    <contour>
      <point x="-398" y="-804" type="qcurve" smooth="yes"/>
      <point x="-467" y="-804"/>
      <point x="-467" y="-679" type="qcurve" smooth="yes"/>
      <point x="-467" y="-625"/>
      <point x="-448" y="-547" type="qcurve"/>
      <point x="-431" y="-550" type="line"/>
      <point x="-424" y="-704"/>
      <point x="-372" y="-715" type="qcurve" smooth="yes"/>
      <point x="-359" y="-717" type="line"/>
      <point x="-314" y="-717"/>
      <point x="-247" y="-519"/>
      <point x="-247" y="-445" type="qcurve" smooth="yes"/>
      <point x="-247" y="-357"/>
      <point x="-472" y="-290"/>
      <point x="-472" y="-213" type="qcurve" smooth="yes"/>
      <point x="-472" y="-209" type="line" smooth="yes"/>
      <point x="-470" y="-129"/>
      <point x="-379" y="-32" type="qcurve"/>
      <point x="-361" y="-47" type="line"/>
      <point x="-419" y="-106"/>
      <point x="-421" y="-166" type="qcurve" smooth="yes"/>
      <point x="-421" y="-169" type="line" smooth="yes"/>
      <point x="-421" y="-228"/>
      <point x="-190" y="-280"/>
      <point x="-190" y="-386" type="qcurve" smooth="yes"/>
      <point x="-190" y="-492"/>
      <point x="-328" y="-803"/>
    </contour>
  </outline>
</glyph>
<glyph name="uni1B3A" format="2">
  <advance width="0"/>
  <unicode hex="1B3A"/>
  <anchor x="-59" y="0" name="_Anchor-5"/>
  <outline>
    <contour>
      <point x="-446" y="-805" type="qcurve" smooth="yes"/>
      <point x="-626" y="-805"/>
      <point x="-840" y="-574"/>
      <point x="-840" y="-388" type="qcurve" smooth="yes"/>
      <point x="-840" y="-289"/>
      <point x="-808" y="-175" type="qcurve"/>
      <point x="-791" y="-178" type="line"/>
      <point x="-807" y="-262"/>
      <point x="-807" y="-334" type="qcurve" smooth="yes"/>
      <point x="-807" y="-707"/>
      <point x="-441" y="-707" type="qcurve" smooth="yes"/>
      <point x="-81" y="-707"/>
      <point x="-81" y="-390" type="qcurve" smooth="yes"/>
      <point x="-81" y="-184"/>
      <point x="-154" y="-43" type="qcurve"/>
      <point x="-137" y="-33" type="line"/>
      <point x="-49" y="-215"/>
      <point x="-49" y="-398" type="qcurve" smooth="yes"/>
      <point x="-49" y="-581"/>
      <point x="-261" y="-805"/>
    </contour>
    <contour>
      <point x="-154" y="-611" type="line"/>
      <point x="-202" y="-463"/>
      <point x="-310" y="-371" type="qcurve"/>
      <point x="-272" y="-307" type="line"/>
      <point x="-215" y="-355"/>
      <point x="-146" y="-514"/>
      <point x="-137" y="-606" type="qcurve"/>
    </contour>
  </outline>
</glyph>
<glyph name="uni1B3E" format="2">
  <advance width="521"/>
  <unicode hex="1B3E"/>
  <outline>
    <contour>
      <point x="327" y="-799" type="line"/>
      <point x="223" y="-633"/>
      <point x="223" y="-453" type="qcurve" smooth="yes"/>
      <point x="223" y="-343"/>
      <point x="266" y="-232" type="qcurve"/>
      <point x="362" y="-14"/>
      <point x="416" y="159"/>
      <point x="416" y="215" type="qcurve" smooth="yes"/>
      <point x="416" y="344"/>
      <point x="298" y="344" type="qcurve" smooth="yes"/>
      <point x="167" y="344"/>
      <point x="167" y="187" type="qcurve" smooth="yes"/>
      <point x="167" y="179" type="line"/>
      <point x="156" y="177" type="line"/>
      <point x="105" y="320"/>
      <point x="45" y="356" type="qcurve"/>
      <point x="54" y="372" type="line"/>
      <point x="128" y="345"/>
      <point x="152" y="290" type="qcurve"/>
      <point x="174" y="442"/>
      <point x="308" y="442" type="qcurve" smooth="yes"/>
      <point x="471" y="442"/>
      <point x="471" y="279" type="qcurve" smooth="yes"/>
      <point x="471" y="174"/>
      <point x="404" y="3" type="qcurve"/>
      <point x="324" y="-263" type="line" smooth="yes"/>
      <point x="292" y="-372"/>
      <point x="292" y="-483" type="qcurve" smooth="yes"/>
      <point x="292" y="-636"/>
      <point x="346" y="-787" type="qcurve"/>
    </contour>
  </outline>
</glyph>
<glyph name="uni1B42" format="2">
  <advance width="0"/>
  <unicode hex="1B42"/>
  <anchor x="-246" y="519" name="_Anchor-2"/>
  <outline>
    <contour>
      <point x="-465" y="550" type="qcurve"/>
      <point x="-386" y="903"/>
      <point x="-113" y="903" type="qcurve" smooth="yes"/>
      <point x="31" y="903"/>
      <point x="125" y="793" type="qcurve"/>
      <point x="125" y="786" type="line"/>
      <point x="-337" y="614" type="line"/>
      <point x="-350" y="638" type="line"/>
      <point x="-27" y="775" type="line"/>
      <point x="-62" y="821"/>
      <point x="-145" y="821" type="qcurve" smooth="yes"/>
      <point x="-175" y="821"/>
      <point x="-212" y="815" type="qcurve" smooth="yes"/>
      <point x="-379" y="791"/>
      <point x="-443" y="512" type="qcurve"/>
      <point x="-625" y="534"/>
      <point x="-625" y="690" type="qcurve" smooth="yes"/>
      <point x="-625" y="728" type="line"/>
      <point x="-600" y="730" type="line"/>
      <point x="-587" y="589"/>
    </contour>
  </outline>
</glyph>
<glyph name="uni1B44" format="2">
  <advance width="267"/>
  <unicode hex="1B44"/>
  <outline>
    <contour>
      <point x="185" y="-801" type="line"/>
      <point x="30" y="-667"/>
      <point x="20" y="-410" type="qcurve"/>
      <point x="19" y="-356" type="line"/>
      <point x="19" y="-105"/>
      <point x="112" y="161" type="qcurve" smooth="yes"/>
      <point x="177" y="353"/>
      <point x="177" y="479" type="qcurve" smooth="yes"/>
      <point x="177" y="594"/>
      <point x="87" y="710"/>
      <point x="-3" y="710" type="qcurve" smooth="yes"/>
      <point x="-155" y="710"/>
      <point x="-201" y="487" type="qcurve"/>
      <point x="-219" y="492" type="line"/>
      <point x="-219" y="494" type="line"/>
      <point x="-199" y="799"/>
      <point x="3" y="799" type="qcurve" smooth="yes"/>
      <point x="223" y="799"/>
      <point x="223" y="526" type="qcurve" smooth="yes"/>
      <point x="223" y="382"/>
      <point x="153" y="162" type="qcurve"/>
      <point x="89" y="-88"/>
      <point x="89" y="-305" type="qcurve" smooth="yes"/>
      <point x="89" y="-628"/>
      <point x="199" y="-786" type="qcurve"/>
    </contour>
  </outline>
</glyph>
<glyph name="uni1B50" format="2">
  <advance width="440"/>
  <unicode hex="1B50"/>
  <outline>
    <contour>
      <point x="223" y="0" type="qcurve" smooth="yes"/>
      <point x="147" y="0"/>
      <point x="51" y="122"/>
      <point x="51" y="219" type="qcurve" smooth="yes"/>
      <point x="51" y="317"/>
      <point x="142" y="438"/>
      <point x="225" y="438" type="qcurve" smooth="yes"/>
      <point x="296" y="438"/>
      <point x="394" y="311"/>
      <point x="394" y="219" type="qcurve" smooth="yes"/>
      <point x="394" y="130"/>
      <point x="303" y="0"/>
    </contour>
    <contour>
      <point x="222" y="92" type="qcurve" smooth="yes"/>
      <point x="363" y="92"/>
      <point x="366" y="214" type="qcurve" smooth="yes"/>
      <point x="366" y="344"/>
      <point x="220" y="346" type="qcurve" smooth="yes"/>
      <point x="78" y="344"/>
      <point x="78" y="214" type="qcurve" smooth="yes"/>
      <point x="80" y="92"/>
    </contour>
  </outline>
</glyph>
<glyph name="uni1B51" format="2">
  <advance width="932"/>
  <unicode hex="1B51"/>
  <outline>
    <contour>
      <point x="744" y="530" type="qcurve" smooth="yes"/>
      <point x="766" y="530"/>
      <point x="788" y="537" type="qcurve"/>
      <point x="745" y="628"/>
      <point x="688" y="628" type="qcurve" smooth="yes"/>
      <point x="648" y="625"/>
      <point x="648" y="592" type="qcurve" smooth="yes"/>
      <point x="648" y="566"/>
      <point x="702" y="530"/>
    </contour>
    <contour>
      <point x="674" y="-11" type="qcurve"/>
      <point x="671" y="2" type="line"/>
      <point x="735" y="50"/>
      <point x="743" y="184" type="qcurve"/>
      <point x="742" y="333"/>
      <point x="633" y="342" type="qcurve"/>
      <point x="608" y="342" type="line"/>
      <point x="528" y="333"/>
      <point x="480" y="270" type="qcurve"/>
      <point x="478" y="270" type="line"/>
      <point x="478" y="271" type="line"/>
      <point x="430" y="333"/>
      <point x="350" y="342" type="qcurve"/>
      <point x="326" y="342" type="line"/>
      <point x="241" y="335"/>
      <point x="222" y="246" type="qcurve"/>
      <point x="220" y="202" type="line"/>
      <point x="220" y="77"/>
      <point x="305" y="9" type="qcurve"/>
      <point x="295" y="-5" type="line"/>
      <point x="219" y="11"/>
      <point x="152" y="41" type="qcurve" smooth="yes"/>
      <point x="70" y="76"/>
      <point x="70" y="163" type="qcurve" smooth="yes"/>
      <point x="70" y="212"/>
      <point x="100" y="268" type="qcurve" smooth="yes"/>
      <point x="125" y="308"/>
      <point x="125" y="328" type="qcurve" smooth="yes"/>
      <point x="125" y="346"/>
      <point x="103" y="346" type="qcurve" smooth="yes"/>
      <point x="68" y="346"/>
      <point x="68" y="298" type="qcurve" smooth="yes"/>
      <point x="68" y="280"/>
      <point x="73" y="256" type="qcurve"/>
      <point x="59" y="254" type="line"/>
      <point x="45" y="291"/>
      <point x="45" y="328" type="qcurve" smooth="yes"/>
      <point x="45" y="440"/>
      <point x="119" y="440" type="qcurve"/>
      <point x="180" y="436"/>
      <point x="180" y="378" type="qcurve" smooth="yes"/>
      <point x="180" y="342"/>
      <point x="108" y="232"/>
      <point x="108" y="195" type="qcurve" smooth="yes"/>
      <point x="108" y="135"/>
      <point x="204" y="100" type="qcurve"/>
      <point x="189" y="135"/>
      <point x="185" y="194" type="qcurve"/>
      <point x="188" y="434"/>
      <point x="323" y="439" type="qcurve" smooth="yes"/>
      <point x="378" y="439"/>
      <point x="452" y="381"/>
      <point x="479" y="323" type="qcurve"/>
      <point x="505" y="379"/>
      <point x="574" y="439"/>
      <point x="636" y="439" type="qcurve" smooth="yes"/>
      <point x="772" y="433"/>
      <point x="772" y="189" type="qcurve"/>
      <point x="767" y="107"/>
      <point x="747" y="58" type="qcurve"/>
      <point x="859" y="101"/>
      <point x="859" y="254" type="qcurve" smooth="yes"/>
      <point x="859" y="270" type="line" smooth="yes"/>
      <point x="856" y="356"/>
      <point x="818" y="444" type="qcurve"/>
      <point x="783" y="440" type="line"/>
      <point x="701" y="441"/>
      <point x="612" y="516"/>
      <point x="609" y="565" type="qcurve" smooth="yes"/>
      <point x="609" y="577" type="line" smooth="yes"/>
      <point x="609" y="658"/>
      <point x="688" y="658" type="qcurve" smooth="yes"/>
      <point x="765" y="658"/>
      <point x="819" y="547" type="qcurve"/>
      <point x="898" y="589"/>
      <point x="928" y="676" type="qcurve"/>
      <point x="940" y="676" type="line"/>
      <point x="942" y="639" type="line"/>
      <point x="942" y="520"/>
      <point x="850" y="462" type="qcurve"/>
      <point x="900" y="343"/>
      <point x="900" y="243" type="qcurve"/>
      <point x="899" y="222" type="line" smooth="yes"/>
      <point x="887" y="4"/>
    </contour>
  </outline>
</glyph>
<glyph name="uni1B54" format="2">
  <advance width="448"/>
  <unicode hex="1B54"/>
  <outline>
    <contour>
      <point x="247" y="0" type="qcurve" smooth="yes"/>
      <point x="242" y="0" type="line" smooth="yes"/>
      <point x="151" y="3"/>
      <point x="45" y="128"/>
      <point x="45" y="239" type="qcurve" smooth="yes"/>
      <point x="46" y="274" type="line"/>
      <point x="55" y="398"/>
      <point x="198" y="549"/>
      <point x="309" y="552" type="qcurve"/>
      <point x="311" y="540" type="line"/>
      <point x="218" y="520"/>
      <point x="93" y="388"/>
      <point x="83" y="296" type="qcurve"/>
      <point x="81" y="260" type="line"/>
      <point x="81" y="187"/>
      <point x="162" y="99"/>
      <point x="236" y="93" type="qcurve"/>
      <point x="343" y="93"/>
      <point x="343" y="150" type="qcurve" smooth="yes"/>
      <point x="343" y="193"/>
      <point x="260" y="198" type="qcurve"/>
      <point x="234" y="198" type="line"/>
      <point x="234" y="231" type="line"/>
      <point x="270" y="231" type="line"/>
      <point x="343" y="235"/>
      <point x="343" y="291" type="qcurve"/>
      <point x="333" y="336"/>
      <point x="271" y="337" type="qcurve" smooth="yes"/>
      <point x="190" y="336"/>
      <point x="156" y="287" type="qcurve"/>
      <point x="140" y="295" type="line"/>
      <point x="169" y="426"/>
      <point x="275" y="426" type="qcurve" smooth="yes"/>
      <point x="283" y="426" type="line"/>
      <point x="395" y="421"/>
      <point x="398" y="321" type="qcurve"/>
      <point x="395" y="231"/>
      <point x="312" y="215" type="qcurve"/>
      <point x="394" y="204"/>
      <point x="394" y="120" type="qcurve" smooth="yes"/>
      <point x="394" y="114" type="line"/>
      <point x="384" y="0"/>
    </contour>
  </outline>
</glyph>
<glyph name="uni1B55" format="2">
  <advance width="553"/>
  <unicode hex="1B55"/>
  <outline>
    <contour>
      <point x="532" y="-594" type="line"/>
      <point x="415" y="-546"/>
      <point x="415" y="-297" type="qcurve" smooth="yes"/>
      <point x="415" y="-219"/>
      <point x="447" y="-42" type="qcurve" smooth="yes"/>
      <point x="497" y="235"/>
      <point x="497" y="308" type="qcurve" smooth="yes"/>
      <point x="497" y="405"/>
      <point x="391" y="513"/>
      <point x="295" y="513" type="qcurve" smooth="yes"/>
      <point x="106" y="511"/>
      <point x="83" y="296" type="qcurve"/>
      <point x="81" y="260" type="line"/>
      <point x="81" y="187"/>
      <point x="162" y="99"/>
      <point x="236" y="93" type="qcurve"/>
      <point x="343" y="93"/>
      <point x="343" y="150" type="qcurve" smooth="yes"/>
      <point x="343" y="193"/>
      <point x="260" y="198" type="qcurve"/>
      <point x="234" y="198" type="line"/>
      <point x="234" y="231" type="line"/>
      <point x="270" y="231" type="line"/>
      <point x="343" y="235"/>
      <point x="343" y="291" type="qcurve"/>
      <point x="333" y="336"/>
      <point x="271" y="337" type="qcurve" smooth="yes"/>
      <point x="190" y="336"/>
      <point x="156" y="287" type="qcurve"/>
      <point x="140" y="295" type="line"/>
      <point x="169" y="426"/>
      <point x="275" y="426" type="qcurve" smooth="yes"/>
      <point x="283" y="426" type="line"/>
      <point x="395" y="421"/>
      <point x="398" y="321" type="qcurve"/>
      <point x="395" y="231"/>
      <point x="312" y="215" type="qcurve"/>
      <point x="394" y="204"/>
      <point x="394" y="120" type="qcurve" smooth="yes"/>
      <point x="394" y="114" type="line"/>
      <point x="384" y="0"/>
      <point x="247" y="0" type="qcurve" smooth="yes"/>
      <point x="242" y="0" type="line" smooth="yes"/>
      <point x="151" y="3"/>
      <point x="45" y="128"/>
      <point x="45" y="239" type="qcurve" smooth="yes"/>
      <point x="46" y="274" type="line"/>
      <point x="55" y="398"/>
      <point x="178" y="568"/>
      <point x="292" y="572" type="qcurve"/>
      <point x="301" y="572" type="line" smooth="yes"/>
      <point x="409" y="572"/>
      <point x="529" y="439"/>
      <point x="529" y="316" type="qcurve"/>
      <point x="528" y="293" type="line" smooth="yes"/>
      <point x="521" y="152"/>
      <point x="463" y="-214"/>
      <point x="463" y="-301" type="qcurve" smooth="yes"/>
      <point x="463" y="-482"/>
      <point x="537" y="-586" type="qcurve"/>
    </contour>
  </outline>
</glyph>
<glyph name="uni1B57" format="2">
  <advance width="803"/>
  <unicode hex="1B57"/>
  <outline>
    <contour>
      <point x="615" y="530" type="qcurve" smooth="yes"/>
      <point x="638" y="530"/>
      <point x="659" y="537" type="qcurve"/>
      <point x="617" y="628"/>
      <point x="560" y="628" type="qcurve" smooth="yes"/>
      <point x="520" y="625"/>
      <point x="520" y="593" type="qcurve" smooth="yes"/>
      <point x="520" y="566"/>
      <point x="573" y="530"/>
    </contour>
    <contour>
      <point x="576" y="-4" type="qcurve" smooth="yes"/>
      <point x="571" y="-4" type="line"/>
      <point x="571" y="94" type="line"/>
      <point x="576" y="94" type="line" smooth="yes"/>
      <point x="647" y="94"/>
      <point x="731" y="175"/>
      <point x="731" y="259" type="qcurve" smooth="yes"/>
      <point x="731" y="270" type="line" smooth="yes"/>
      <point x="728" y="356"/>
      <point x="690" y="444" type="qcurve"/>
      <point x="654" y="440" type="line"/>
      <point x="572" y="441"/>
      <point x="484" y="516"/>
      <point x="481" y="565" type="qcurve" smooth="yes"/>
      <point x="481" y="577" type="line" smooth="yes"/>
      <point x="481" y="658"/>
      <point x="559" y="658" type="qcurve" smooth="yes"/>
      <point x="637" y="658"/>
      <point x="690" y="547" type="qcurve"/>
      <point x="770" y="589"/>
      <point x="800" y="676" type="qcurve"/>
      <point x="811" y="676" type="line"/>
      <point x="813" y="637" type="line"/>
      <point x="813" y="520"/>
      <point x="721" y="462" type="qcurve"/>
      <point x="771" y="343"/>
      <point x="771" y="243" type="qcurve"/>
      <point x="770" y="222" type="line" smooth="yes"/>
      <point x="764" y="114"/>
      <point x="659" y="-3"/>
    </contour>
    <contour>
      <point x="576" y="-4" type="line"/>
      <point x="571" y="-4" type="line" smooth="yes"/>
      <point x="512" y="-3"/>
      <point x="417" y="86"/>
      <point x="417" y="182" type="qcurve" smooth="yes"/>
      <point x="417" y="203" type="line" smooth="yes"/>
      <point x="417" y="342"/>
      <point x="317" y="342" type="qcurve" smooth="yes"/>
      <point x="225" y="342"/>
      <point x="218" y="188" type="qcurve" smooth="yes"/>
      <point x="211" y="66"/>
      <point x="171" y="-2"/>
      <point x="132" y="-2" type="qcurve" smooth="yes"/>
      <point x="97" y="-2"/>
      <point x="53" y="51"/>
      <point x="53" y="104" type="qcurve" smooth="yes"/>
      <point x="53" y="143"/>
      <point x="77" y="227"/>
      <point x="126" y="308"/>
      <point x="126" y="327" type="qcurve" smooth="yes"/>
      <point x="126" y="346"/>
      <point x="103" y="346" type="qcurve" smooth="yes"/>
      <point x="68" y="346"/>
      <point x="68" y="297" type="qcurve" smooth="yes"/>
      <point x="68" y="280"/>
      <point x="73" y="256" type="qcurve"/>
      <point x="60" y="254" type="line"/>
      <point x="45" y="292"/>
      <point x="45" y="330" type="qcurve" smooth="yes"/>
      <point x="45" y="440"/>
      <point x="119" y="440" type="qcurve"/>
      <point x="181" y="436"/>
      <point x="181" y="378" type="qcurve" smooth="yes"/>
      <point x="181" y="342"/>
      <point x="144" y="286" type="qcurve" smooth="yes"/>
      <point x="85" y="198"/>
      <point x="85" y="138" type="qcurve" smooth="yes"/>
      <point x="85" y="89"/>
      <point x="127" y="89" type="qcurve" smooth="yes"/>
      <point x="157" y="89"/>
      <point x="192" y="147"/>
      <point x="192" y="198" type="qcurve" smooth="yes"/>
      <point x="192" y="215" type="line" smooth="yes"/>
      <point x="192" y="440"/>
      <point x="323" y="440" type="qcurve" smooth="yes"/>
      <point x="442" y="440"/>
      <point x="442" y="214" type="qcurve" smooth="yes"/>
      <point x="442" y="191" type="line" smooth="yes"/>
      <point x="442" y="94"/>
      <point x="571" y="94" type="qcurve" smooth="yes"/>
      <point x="576" y="94" type="line"/>
    </contour>
  </outline>
</glyph>
<glyph name="uni1B58" format="2">
  <advance width="481"/>
  <unicode hex="1B58"/>
  <outline>
    <contour>
      <point x="293" y="530" type="qcurve" smooth="yes"/>
      <point x="315" y="530"/>
      <point x="337" y="537" type="qcurve"/>
      <point x="295" y="628"/>
      <point x="237" y="628" type="qcurve" smooth="yes"/>
      <point x="197" y="625"/>
      <point x="197" y="592" type="qcurve" smooth="yes"/>
      <point x="197" y="566"/>
      <point x="251" y="530"/>
    </contour>
    <contour>
      <point x="251" y="-4" type="qcurve" smooth="yes"/>
      <point x="153" y="-3"/>
      <point x="71" y="65"/>
      <point x="62" y="127" type="qcurve" smooth="yes"/>
      <point x="60" y="148" type="line"/>
      <point x="60" y="202"/>
      <point x="101" y="268" type="qcurve" smooth="yes"/>
      <point x="126" y="308"/>
      <point x="126" y="327" type="qcurve" smooth="yes"/>
      <point x="126" y="346"/>
      <point x="103" y="346" type="qcurve" smooth="yes"/>
      <point x="68" y="346"/>
      <point x="68" y="297" type="qcurve" smooth="yes"/>
      <point x="68" y="280"/>
      <point x="73" y="256" type="qcurve"/>
      <point x="60" y="254" type="line"/>
      <point x="45" y="292"/>
      <point x="45" y="330" type="qcurve" smooth="yes"/>
      <point x="45" y="440"/>
      <point x="119" y="440" type="qcurve"/>
      <point x="181" y="436"/>
      <point x="181" y="378" type="qcurve" smooth="yes"/>
      <point x="181" y="342"/>
      <point x="144" y="286" type="qcurve" smooth="yes"/>
      <point x="103" y="224"/>
      <point x="103" y="185" type="qcurve" smooth="yes"/>
      <point x="104" y="173" type="line" smooth="yes"/>
      <point x="111" y="132"/>
      <point x="171" y="94"/>
      <point x="251" y="94" type="qcurve" smooth="yes"/>
      <point x="408" y="94"/>
      <point x="408" y="258" type="qcurve" smooth="yes"/>
      <point x="408" y="270" type="line" smooth="yes"/>
      <point x="405" y="356"/>
      <point x="367" y="444" type="qcurve"/>
      <point x="332" y="440" type="line"/>
      <point x="250" y="441"/>
      <point x="161" y="516"/>
      <point x="158" y="565" type="qcurve" smooth="yes"/>
      <point x="158" y="577" type="line" smooth="yes"/>
      <point x="158" y="658"/>
      <point x="237" y="658" type="qcurve" smooth="yes"/>
      <point x="314" y="658"/>
      <point x="368" y="547" type="qcurve"/>
      <point x="447" y="589"/>
      <point x="477" y="676" type="qcurve"/>
      <point x="489" y="676" type="line"/>
      <point x="491" y="637" type="line"/>
      <point x="491" y="520"/>
      <point x="399" y="462" type="qcurve"/>
      <point x="449" y="343"/>
      <point x="449" y="243" type="qcurve"/>
      <point x="448" y="222" type="line" smooth="yes"/>
      <point x="442" y="114"/>
      <point x="337" y="-3"/>
    </contour>
  </outline>
</glyph>
<glyph name="uni1B59" format="2">
  <advance width="794"/>
  <unicode hex="1B59"/>
  <outline>
    <contour>
      <point x="567" y="-4" type="line"/>
      <point x="559" y="-4" type="line" smooth="yes"/>
      <point x="480" y="-3"/>
      <point x="393" y="129"/>
      <point x="379" y="217" type="qcurve"/>
      <point x="347" y="-2"/>
      <point x="200" y="-4" type="qcurve" smooth="yes"/>
      <point x="194" y="-4" type="line" smooth="yes"/>
      <point x="65" y="-1"/>
      <point x="56" y="122" type="qcurve"/>
      <point x="56" y="135" type="line" smooth="yes"/>
      <point x="56" y="196"/>
      <point x="100" y="268" type="qcurve" smooth="yes"/>
      <point x="125" y="308"/>
      <point x="125" y="328" type="qcurve" smooth="yes"/>
      <point x="125" y="346"/>
      <point x="103" y="346" type="qcurve" smooth="yes"/>
      <point x="68" y="346"/>
      <point x="68" y="296" type="qcurve" smooth="yes"/>
      <point x="68" y="279"/>
      <point x="72" y="256" type="qcurve"/>
      <point x="59" y="254" type="line"/>
      <point x="45" y="291"/>
      <point x="45" y="328" type="qcurve" smooth="yes"/>
      <point x="45" y="440"/>
      <point x="119" y="440" type="qcurve"/>
      <point x="180" y="436"/>
      <point x="180" y="378" type="qcurve" smooth="yes"/>
      <point x="180" y="342"/>
      <point x="143" y="286" type="qcurve" smooth="yes"/>
      <point x="102" y="224"/>
      <point x="102" y="185" type="qcurve" smooth="yes"/>
      <point x="103" y="173" type="line"/>
      <point x="111" y="132"/>
      <point x="170" y="94"/>
      <point x="204" y="94" type="qcurve" smooth="yes"/>
      <point x="209" y="94" type="line" smooth="yes"/>
      <point x="288" y="94"/>
      <point x="362" y="246"/>
      <point x="366" y="439" type="qcurve"/>
      <point x="392" y="439" type="line"/>
      <point x="396" y="246"/>
      <point x="470" y="94"/>
      <point x="559" y="94" type="qcurve" smooth="yes"/>
      <point x="561" y="94" type="line"/>
    </contour>
    <contour>
      <point x="606" y="530" type="qcurve" smooth="yes"/>
      <point x="628" y="530"/>
      <point x="650" y="537" type="qcurve"/>
      <point x="607" y="628"/>
      <point x="550" y="628" type="qcurve" smooth="yes"/>
      <point x="510" y="625"/>
      <point x="510" y="592" type="qcurve" smooth="yes"/>
      <point x="510" y="566"/>
      <point x="564" y="530"/>
    </contour>
    <contour>
      <point x="567" y="-4" type="qcurve" smooth="yes"/>
      <point x="561" y="-4" type="line"/>
      <point x="561" y="94" type="line"/>
      <point x="566" y="94" type="line" smooth="yes"/>
      <point x="721" y="94"/>
      <point x="721" y="258" type="qcurve" smooth="yes"/>
      <point x="721" y="270" type="line" smooth="yes"/>
      <point x="718" y="356"/>
      <point x="680" y="444" type="qcurve"/>
      <point x="645" y="440" type="line"/>
      <point x="562" y="441"/>
      <point x="474" y="516"/>
      <point x="471" y="565" type="qcurve" smooth="yes"/>
      <point x="471" y="577" type="line" smooth="yes"/>
      <point x="471" y="658"/>
      <point x="550" y="658" type="qcurve" smooth="yes"/>
      <point x="627" y="658"/>
      <point x="681" y="547" type="qcurve"/>
      <point x="760" y="589"/>
      <point x="790" y="676" type="qcurve"/>
      <point x="802" y="676" type="line"/>
      <point x="804" y="639" type="line"/>
      <point x="804" y="520"/>
      <point x="712" y="462" type="qcurve"/>
      <point x="762" y="343"/>
      <point x="762" y="243" type="qcurve"/>
      <point x="761" y="222" type="line" smooth="yes"/>
      <point x="755" y="114"/>
      <point x="650" y="-3"/>
    </contour>
  </outline>
</glyph>
<glyph name="uni1B5A" format="2">
  <advance width="602"/>
  <unicode hex="1B5A"/>
  <outline>
    <contour>
      <point x="686" y="-407" type="line"/>
      <point x="681" y="-407" type="line" smooth="yes"/>
      <point x="514" y="-407"/>
      <point x="514" y="-158" type="qcurve"/>
      <point x="515" y="-121" type="line" smooth="yes"/>
      <point x="523" y="83"/>
      <point x="523" y="185" type="qcurve" smooth="yes"/>
      <point x="522" y="253" type="line" smooth="yes"/>
      <point x="517" y="337"/>
      <point x="435" y="337" type="qcurve"/>
      <point x="449" y="284"/>
      <point x="449" y="224" type="qcurve" smooth="yes"/>
      <point x="449" y="135"/>
      <point x="407" y="1"/>
      <point x="364" y="0" type="qcurve" smooth="yes"/>
      <point x="310" y="1"/>
      <point x="309" y="154" type="qcurve" smooth="yes"/>
      <point x="309" y="203" type="line" smooth="yes"/>
      <point x="308" y="337"/>
      <point x="219" y="337" type="qcurve"/>
      <point x="231" y="287"/>
      <point x="231" y="231" type="qcurve" smooth="yes"/>
      <point x="231" y="1"/>
      <point x="121" y="1" type="qcurve" smooth="yes"/>
      <point x="46" y="1"/>
      <point x="46" y="164" type="qcurve" smooth="yes"/>
      <point x="46" y="178" type="line"/>
      <point x="60" y="179" type="line"/>
      <point x="68" y="93"/>
      <point x="118" y="93" type="qcurve" smooth="yes"/>
      <point x="152" y="93"/>
      <point x="200" y="170"/>
      <point x="200" y="235" type="qcurve" smooth="yes"/>
      <point x="200" y="312"/>
      <point x="168" y="440" type="qcurve"/>
      <point x="220" y="440" type="line" smooth="yes"/>
      <point x="336" y="438"/>
      <point x="340" y="229" type="qcurve"/>
      <point x="340" y="161" type="line" smooth="yes"/>
      <point x="341" y="91"/>
      <point x="373" y="90" type="qcurve" smooth="yes"/>
      <point x="399" y="90"/>
      <point x="422" y="159"/>
      <point x="422" y="221" type="qcurve" smooth="yes"/>
      <point x="422" y="303"/>
      <point x="387" y="440" type="qcurve"/>
      <point x="439" y="440" type="line" smooth="yes"/>
      <point x="558" y="438"/>
      <point x="558" y="274" type="qcurve" smooth="yes"/>
      <point x="558" y="260" type="line"/>
      <point x="552" y="165"/>
      <point x="552" y="43" type="qcurve" smooth="yes"/>
      <point x="553" y="-82" type="line" smooth="yes"/>
      <point x="556" y="-327"/>
      <point x="691" y="-391" type="qcurve"/>
    </contour>
  </outline>
</glyph>
<glyph name="uni1B5B" format="2">
  <advance width="1126"/>
  <unicode hex="1B5B"/>
  <outline>
    <contour>
      <point x="355" y="-5" type="line"/>
      <point x="279" y="11"/>
      <point x="144" y="70"/>
      <point x="130" y="147"/>
      <point x="130" y="162" type="qcurve" smooth="yes"/>
      <point x="130" y="212"/>
      <point x="160" y="268" type="qcurve" smooth="yes"/>
      <point x="185" y="308"/>
      <point x="185" y="328" type="qcurve" smooth="yes"/>
      <point x="185" y="346"/>
      <point x="163" y="346" type="qcurve" smooth="yes"/>
      <point x="128" y="346"/>
      <point x="128" y="297" type="qcurve" smooth="yes"/>
      <point x="128" y="280"/>
      <point x="133" y="256" type="qcurve"/>
      <point x="119" y="254" type="line"/>
      <point x="105" y="291"/>
      <point x="105" y="328" type="qcurve" smooth="yes"/>
      <point x="105" y="440"/>
      <point x="179" y="440" type="qcurve"/>
      <point x="240" y="436"/>
      <point x="240" y="378" type="qcurve" smooth="yes"/>
      <point x="240" y="342"/>
      <point x="167" y="232"/>
      <point x="167" y="194" type="qcurve" smooth="yes"/>
      <point x="167" y="135"/>
      <point x="264" y="100" type="qcurve"/>
      <point x="249" y="135"/>
      <point x="245" y="194" type="qcurve"/>
      <point x="248" y="434"/>
      <point x="383" y="439" type="qcurve" smooth="yes"/>
      <point x="438" y="439"/>
      <point x="512" y="381"/>
      <point x="539" y="323" type="qcurve"/>
      <point x="566" y="381"/>
      <point x="636" y="439"/>
      <point x="696" y="439" type="qcurve" smooth="yes"/>
      <point x="833" y="433"/>
      <point x="833" y="192" type="qcurve" smooth="yes"/>
      <point x="833" y="0" type="line"/>
      <point x="803" y="0" type="line"/>
      <point x="803" y="184" type="line" smooth="yes"/>
      <point x="802" y="333"/>
      <point x="693" y="342" type="qcurve"/>
      <point x="668" y="342" type="line"/>
      <point x="588" y="333"/>
      <point x="540" y="270" type="qcurve"/>
      <point x="538" y="270" type="line"/>
      <point x="490" y="333"/>
      <point x="410" y="342" type="qcurve"/>
      <point x="385" y="342" type="line"/>
      <point x="301" y="335"/>
      <point x="282" y="246" type="qcurve"/>
      <point x="280" y="202" type="line"/>
      <point x="280" y="77"/>
      <point x="365" y="9" type="qcurve"/>
    </contour>
    <contour>
      <point x="1198" y="-649" type="line"/>
      <point x="984" y="-325"/>
      <point x="659" y="-117"/>
      <point x="503" y="-114" type="qcurve" smooth="yes"/>
      <point x="412" y="-114"/>
      <point x="412" y="-165" type="qcurve" smooth="yes"/>
      <point x="412" y="-198"/>
      <point x="437" y="-249" type="qcurve" smooth="yes"/>
      <point x="456" y="-287"/>
      <point x="456" y="-321" type="qcurve" smooth="yes"/>
      <point x="456" y="-362"/>
      <point x="411" y="-417"/>
      <point x="363" y="-417" type="qcurve" smooth="yes"/>
      <point x="354" y="-417" type="line" smooth="yes"/>
      <point x="299" y="-414"/>
      <point x="226" y="-312"/>
      <point x="226" y="-237" type="qcurve" smooth="yes"/>
      <point x="226" y="-208"/>
      <point x="232" y="-176" type="qcurve"/>
      <point x="251" y="-179" type="line"/>
      <point x="249" y="-209" type="line"/>
      <point x="249" y="-275"/>
      <point x="305" y="-344"/>
      <point x="345" y="-344" type="qcurve" smooth="yes"/>
      <point x="369" y="-344"/>
      <point x="411" y="-308"/>
      <point x="411" y="-280" type="qcurve" smooth="yes"/>
      <point x="411" y="-259"/>
      <point x="398" y="-233" type="qcurve" smooth="yes"/>
      <point x="378" y="-195"/>
      <point x="378" y="-155" type="qcurve" smooth="yes"/>
      <point x="378" y="-32"/>
      <point x="519" y="-32" type="qcurve" smooth="yes"/>
      <point x="667" y="-32"/>
      <point x="1008" y="-304"/>
      <point x="1222" y="-629" type="qcurve"/>
    </contour>
    <contour>
      <point x="1076" y="-792" type="line"/>
      <point x="1040" y="-792" type="line"/>
      <point x="1040" y="105" type="line"/>
      <point x="1036" y="342"/>
      <point x="946" y="342" type="qcurve" smooth="yes"/>
      <point x="939" y="342" type="line"/>
      <point x="964" y="294"/>
      <point x="968" y="-48" type="qcurve"/>
      <point x="968" y="-574" type="line" smooth="yes"/>
      <point x="968" y="-681"/>
      <point x="857" y="-791"/>
      <point x="770" y="-791" type="qcurve" smooth="yes"/>
      <point x="715" y="-791"/>
      <point x="634" y="-733"/>
      <point x="634" y="-684" type="qcurve" smooth="yes"/>
      <point x="634" y="-623"/>
      <point x="691" y="-556" type="qcurve"/>
      <point x="496" y="-764"/>
      <point x="292" y="-764" type="qcurve" smooth="yes"/>
      <point x="145" y="-764"/>
      <point x="-19" y="-592"/>
      <point x="-21" y="-221"/>
      <point x="85" y="78" type="qcurve"/>
      <point x="111" y="67" type="line"/>
      <point x="1" y="-227"/>
      <point x="31" y="-666"/>
      <point x="280" y="-666" type="qcurve" smooth="yes"/>
      <point x="499" y="-666"/>
      <point x="726" y="-419" type="qcurve"/>
      <point x="782" y="-486" type="line"/>
      <point x="677" y="-612"/>
      <point x="677" y="-659" type="qcurve" smooth="yes"/>
      <point x="677" y="-713"/>
      <point x="780" y="-713" type="qcurve" smooth="yes"/>
      <point x="936" y="-713"/>
      <point x="936" y="-544" type="qcurve" smooth="yes"/>
      <point x="936" y="-6" type="line" smooth="yes"/>
      <point x="934" y="341"/>
      <point x="858" y="423" type="qcurve"/>
      <point x="879" y="437"/>
      <point x="909" y="437" type="qcurve" smooth="yes"/>
      <point x="995" y="437"/>
      <point x="1076" y="286"/>
      <point x="1076" y="103" type="qcurve" smooth="yes"/>
    </contour>
  </outline>
</glyph>
<glyph name="uni1B5D" format="2">
  <advance width="264"/>
  <unicode hex="1B5D"/>
  <outline>
    <contour>
      <point x="195" y="241" type="line"/>
      <point x="145" y="332"/>
      <point x="45" y="382" type="qcurve"/>
      <point x="69" y="409"/>
      <point x="91" y="413" type="qcurve" smooth="yes"/>
      <point x="102" y="414" type="line"/>
      <point x="197" y="414"/>
      <point x="214" y="247" type="qcurve"/>
    </contour>
    <contour>
      <point x="195" y="21" type="line"/>
      <point x="145" y="112"/>
      <point x="45" y="162" type="qcurve"/>
      <point x="69" y="189"/>
      <point x="91" y="193" type="qcurve" smooth="yes"/>
      <point x="102" y="194" type="line"/>
      <point x="197" y="194"/>
      <point x="214" y="27" type="qcurve"/>
    </contour>
  </outline>
</glyph>
<glyph name="uni1B5E" format="2">
  <advance width="323"/>
  <unicode hex="1B5E"/>
  <outline>
    <contour>
      <point x="313" y="-342" type="line"/>
      <point x="229" y="180"/>
      <point x="57" y="371" type="qcurve"/>
      <point x="112" y="426" type="line"/>
      <point x="204" y="340"/>
      <point x="320" y="-72"/>
      <point x="339" y="-336" type="qcurve"/>
    </contour>
  </outline>
</glyph>
<glyph name="uni1B60" format="2">
  <advance width="368"/>
  <unicode hex="1B60"/>
  <outline>
    <contour>
      <point x="190" y="-1" type="qcurve" smooth="yes"/>
      <point x="182" y="-1" type="line"/>
      <point x="60" y="3"/>
      <point x="45" y="147" type="qcurve"/>
      <point x="58" y="156" type="line"/>
      <point x="89" y="102"/>
      <point x="185" y="93" type="qcurve"/>
      <point x="262" y="93"/>
      <point x="262" y="150" type="qcurve" smooth="yes"/>
      <point x="262" y="193"/>
      <point x="179" y="198" type="qcurve"/>
      <point x="153" y="198" type="line"/>
      <point x="153" y="231" type="line"/>
      <point x="189" y="231" type="line"/>
      <point x="262" y="235"/>
      <point x="262" y="291" type="qcurve"/>
      <point x="253" y="336"/>
      <point x="190" y="337" type="qcurve" smooth="yes"/>
      <point x="109" y="336"/>
      <point x="75" y="287" type="qcurve"/>
      <point x="60" y="295" type="line"/>
      <point x="88" y="426"/>
      <point x="194" y="426" type="qcurve" smooth="yes"/>
      <point x="202" y="426" type="line"/>
      <point x="315" y="421"/>
      <point x="318" y="321" type="qcurve"/>
      <point x="314" y="231"/>
      <point x="232" y="215" type="qcurve"/>
      <point x="316" y="204"/>
      <point x="316" y="118" type="qcurve"/>
      <point x="303" y="-1"/>
    </contour>
  </outline>
</glyph>
<glyph name="uni1B63" format="2">
  <advance width="700"/>
  <unicode hex="1B63"/>
  <anchor x="258" y="610" name="Anchor-1"/>
  <anchor x="322" y="0" name="Anchor-0"/>
  <outline>
    <contour>
      <point x="229" y="-805" type="qcurve"/>
      <point x="141" y="-797"/>
      <point x="136" y="-696" type="qcurve"/>
      <point x="137" y="-588"/>
      <point x="291" y="-271"/>
      <point x="455" y="140"/>
      <point x="479" y="416" type="qcurve"/>
      <point x="502" y="414" type="line"/>
      <point x="485" y="128"/>
      <point x="319" y="-288"/>
      <point x="207" y="-557"/>
      <point x="207" y="-619" type="qcurve" smooth="yes"/>
      <point x="208" y="-637" type="line"/>
      <point x="221" y="-689"/>
      <point x="276" y="-689" type="qcurve"/>
      <point x="288" y="-688" type="line"/>
      <point x="501" y="-676"/>
      <point x="519" y="432" type="qcurve"/>
      <point x="519" y="440" type="line"/>
      <point x="549" y="440" type="line"/>
      <point x="549" y="429" type="line" smooth="yes"/>
      <point x="549" y="-799"/>
    </contour>
  </outline>
</glyph>
<glyph name="uni1B64" format="2">
  <advance width="700"/>
  <unicode hex="1B64"/>
  <anchor x="145" y="610" name="Anchor-1"/>
  <anchor x="225" y="0" name="Anchor-0"/>
  <outline>
    <contour>
      <point x="436" y="-26" type="line"/>
      <point x="382" y="168"/>
      <point x="301" y="311" type="qcurve"/>
      <point x="239" y="259" type="line"/>
      <point x="220" y="275" type="line"/>
      <point x="263" y="399"/>
      <point x="295" y="436" type="qcurve"/>
      <point x="366" y="391"/>
      <point x="457" y="94"/>
      <point x="462" y="-21" type="qcurve"/>
    </contour>
  </outline>
</glyph>
<glyph name="uni1B65" format="2">
  <advance width="700"/>
  <unicode hex="1B65"/>
  <anchor x="258" y="610" name="Anchor-1"/>
  <anchor x="322" y="0" name="Anchor-0"/>
  <outline>
    <contour>
      <point x="588" y="3" type="line"/>
      <point x="356" y="3"/>
      <point x="231" y="141" type="qcurve"/>
      <point x="124" y="268"/>
      <point x="101" y="443" type="qcurve"/>
      <point x="181" y="421" type="line"/>
      <point x="218" y="272"/>
      <point x="293" y="166" type="qcurve" smooth="yes"/>
      <point x="390" y="33"/>
      <point x="594" y="21" type="qcurve"/>
    </contour>
  </outline>
</glyph>
<glyph name="uni1B66" format="2">
  <advance width="700"/>
  <unicode hex="1B66"/>
  <anchor x="344" y="610" name="Anchor-1"/>
  <anchor x="343" y="0" name="Anchor-0"/>
  <outline>
    <contour>
      <point x="270" y="0" type="line"/>
      <point x="155" y="46"/>
      <point x="58" y="169" type="qcurve"/>
      <point x="79" y="191" type="line"/>
      <point x="141" y="125"/>
      <point x="171" y="103" type="qcurve"/>
      <point x="147" y="150"/>
      <point x="147" y="215" type="qcurve" smooth="yes"/>
      <point x="147" y="225" type="line"/>
      <point x="157" y="329"/>
      <point x="280" y="428"/>
      <point x="375" y="428" type="qcurve" smooth="yes"/>
      <point x="582" y="428"/>
      <point x="602" y="225" type="qcurve"/>
      <point x="603" y="197" type="line"/>
      <point x="603" y="77"/>
      <point x="502" y="4" type="qcurve"/>
      <point x="490" y="16" type="line"/>
      <point x="549" y="72"/>
      <point x="549" y="155" type="qcurve"/>
      <point x="547" y="185" type="line"/>
      <point x="530" y="331"/>
      <point x="374" y="331" type="qcurve" smooth="yes"/>
      <point x="215" y="331"/>
      <point x="194" y="185" type="qcurve"/>
      <point x="194" y="180" type="line" smooth="yes"/>
      <point x="194" y="123"/>
      <point x="234" y="61"/>
      <point x="280" y="24" type="qcurve"/>
    </contour>
  </outline>
</glyph>
<glyph name="uni1B67" format="2">
  <advance width="700"/>
  <unicode hex="1B67"/>
  <anchor x="398" y="610" name="Anchor-1"/>
  <anchor x="456" y="0" name="Anchor-0"/>
  <outline>
    <contour>
      <point x="188" y="61" type="qcurve"/>
      <point x="267" y="415"/>
      <point x="469" y="415" type="qcurve" smooth="yes"/>
      <point x="630" y="415"/>
      <point x="683" y="282" type="qcurve"/>
      <point x="683" y="274" type="line"/>
      <point x="314" y="126" type="line"/>
      <point x="302" y="150" type="line"/>
      <point x="562" y="265" type="line"/>
      <point x="535" y="325"/>
      <point x="469" y="325" type="qcurve" smooth="yes"/>
      <point x="261" y="325"/>
      <point x="209" y="23" type="qcurve"/>
      <point x="27" y="45"/>
      <point x="26" y="202" type="qcurve" smooth="yes"/>
      <point x="26" y="240" type="line"/>
      <point x="52" y="242" type="line"/>
      <point x="65" y="100"/>
    </contour>
  </outline>
</glyph>
<glyph name="uni1B68" format="2">
  <advance width="700"/>
  <unicode hex="1B68"/>
  <anchor x="294" y="610" name="Anchor-1"/>
  <anchor x="328" y="-1027" name="Anchor-0"/>
  <outline>
    <contour>
      <point x="493" y="-254" type="qcurve" smooth="yes"/>
      <point x="492" y="-236" type="line"/>
      <point x="477" y="-105"/>
      <point x="138" y="45"/>
      <point x="136" y="136" type="qcurve" smooth="yes"/>
      <point x="136" y="244"/>
      <point x="278" y="407" type="qcurve"/>
      <point x="296" y="392" type="line"/>
      <point x="205" y="273"/>
      <point x="205" y="201" type="qcurve" smooth="yes"/>
      <point x="205" y="107"/>
      <point x="400" y="36" type="qcurve" smooth="yes"/>
      <point x="566" y="-24"/>
      <point x="566" y="-181" type="qcurve" smooth="yes"/>
      <point x="565" y="-305"/>
      <point x="478" y="-597"/>
      <point x="346" y="-803"/>
      <point x="276" y="-804" type="qcurve" smooth="yes"/>
      <point x="197" y="-804"/>
      <point x="164" y="-605"/>
      <point x="228" y="-357" type="qcurve"/>
      <point x="256" y="-358" type="line"/>
      <point x="204" y="-704"/>
      <point x="302" y="-715" type="qcurve"/>
      <point x="360" y="-717"/>
      <point x="447" y="-549"/>
      <point x="493" y="-325"/>
    </contour>
  </outline>
</glyph>
<glyph name="uni1B69" format="2">
  <advance width="701"/>
  <unicode hex="1B69"/>
  <anchor x="597" y="610" name="Anchor-1"/>
  <anchor x="692" y="-473" name="Anchor-0"/>
  <outline>
    <contour>
      <point x="452" y="-805" type="qcurve"/>
      <point x="436" y="-746"/>
      <point x="356" y="-580"/>
      <point x="288" y="-580" type="qcurve" smooth="yes"/>
      <point x="213" y="-580"/>
      <point x="138" y="-803"/>
      <point x="20" y="-805" type="qcurve" smooth="yes"/>
      <point x="-195" y="-803"/>
      <point x="-195" y="-518" type="qcurve" smooth="yes"/>
      <point x="-195" y="-372"/>
      <point x="-137" y="-277" type="qcurve" smooth="yes"/>
      <point x="-59" y="-146"/>
      <point x="514" y="-65"/>
      <point x="532" y="159" type="qcurve"/>
      <point x="532" y="333"/>
      <point x="423" y="342" type="qcurve"/>
      <point x="398" y="342" type="line"/>
      <point x="318" y="333"/>
      <point x="270" y="270" type="qcurve"/>
      <point x="268" y="270" type="line"/>
      <point x="220" y="333"/>
      <point x="140" y="342" type="qcurve"/>
      <point x="116" y="342" type="line"/>
      <point x="31" y="335"/>
      <point x="12" y="246" type="qcurve"/>
      <point x="10" y="202" type="line"/>
      <point x="10" y="77"/>
      <point x="95" y="9" type="qcurve"/>
      <point x="85" y="-5" type="line"/>
      <point x="9" y="11"/>
      <point x="-58" y="41" type="qcurve" smooth="yes"/>
      <point x="-140" y="76"/>
      <point x="-140" y="163" type="qcurve" smooth="yes"/>
      <point x="-140" y="212"/>
      <point x="-110" y="268" type="qcurve" smooth="yes"/>
      <point x="-85" y="308"/>
      <point x="-85" y="328" type="qcurve" smooth="yes"/>
      <point x="-85" y="346"/>
      <point x="-107" y="346" type="qcurve" smooth="yes"/>
      <point x="-142" y="346"/>
      <point x="-142" y="297" type="qcurve" smooth="yes"/>
      <point x="-142" y="280"/>
      <point x="-137" y="256" type="qcurve"/>
      <point x="-151" y="254" type="line"/>
      <point x="-165" y="291"/>
      <point x="-165" y="328" type="qcurve" smooth="yes"/>
      <point x="-165" y="440"/>
      <point x="-91" y="440" type="qcurve"/>
      <point x="-30" y="436"/>
      <point x="-30" y="378" type="qcurve" smooth="yes"/>
      <point x="-30" y="342"/>
      <point x="-102" y="232"/>
      <point x="-102" y="195" type="qcurve" smooth="yes"/>
      <point x="-102" y="135"/>
      <point x="-6" y="100" type="qcurve"/>
      <point x="-21" y="135"/>
      <point x="-25" y="194" type="qcurve"/>
      <point x="-22" y="434"/>
      <point x="113" y="439" type="qcurve" smooth="yes"/>
      <point x="168" y="439"/>
      <point x="242" y="381"/>
      <point x="269" y="323" type="qcurve"/>
      <point x="295" y="379"/>
      <point x="364" y="439"/>
      <point x="426" y="439" type="qcurve" smooth="yes"/>
      <point x="562" y="433"/>
      <point x="562" y="168" type="qcurve" smooth="yes"/>
      <point x="562" y="151" type="line" smooth="yes"/>
      <point x="562" y="-155"/>
      <point x="284" y="-191" type="qcurve" smooth="yes"/>
      <point x="36" y="-224"/>
      <point x="-154" y="-369"/>
      <point x="-154" y="-516" type="qcurve" smooth="yes"/>
      <point x="-154" y="-707"/>
      <point x="20" y="-707" type="qcurve" smooth="yes"/>
      <point x="138" y="-707"/>
      <point x="207" y="-495"/>
      <point x="308" y="-492" type="qcurve" smooth="yes"/>
      <point x="405" y="-493"/>
      <point x="500" y="-637"/>
      <point x="522" y="-707" type="qcurve"/>
      <point x="652" y="-707"/>
      <point x="654" y="-404" type="qcurve" smooth="yes"/>
      <point x="654" y="-110" type="line"/>
      <point x="685" y="-107" type="line"/>
      <point x="685" y="-437" type="line" smooth="yes"/>
      <point x="685" y="-803"/>
    </contour>
    <contour>
      <point x="654" y="-130" type="line"/>
      <point x="654" y="-19" type="line" smooth="yes"/>
      <point x="654" y="340"/>
      <point x="575" y="423" type="qcurve"/>
      <point x="596" y="437"/>
      <point x="625" y="437" type="qcurve" smooth="yes"/>
      <point x="714" y="437"/>
      <point x="792" y="276"/>
      <point x="792" y="103" type="qcurve" smooth="yes"/>
      <point x="792" y="-801" type="line"/>
      <point x="757" y="-801" type="line"/>
      <point x="757" y="105" type="line"/>
      <point x="752" y="342"/>
      <point x="663" y="342" type="qcurve" smooth="yes"/>
      <point x="656" y="342" type="line"/>
      <point x="683" y="291"/>
      <point x="685" y="-98" type="qcurve" smooth="yes"/>
      <point x="685" y="-132" type="line"/>
    </contour>
  </outline>
</glyph>
<glyph name="uni1B6B" format="2">
  <advance width="0"/>
  <unicode hex="1B6B"/>
  <anchor x="-215" y="620" name="_Anchor-1"/>
  <outline>
    <contour>
      <point x="-373" y="670" type="line"/>
      <point x="-435" y="670"/>
      <point x="-435" y="721" type="qcurve" smooth="yes"/>
      <point x="-435" y="739"/>
      <point x="-427" y="764" type="qcurve"/>
      <point x="-408" y="717"/>
      <point x="-326" y="717" type="qcurve" smooth="yes"/>
      <point x="-301" y="718" type="line"/>
      <point x="-330" y="674"/>
      <point x="-364" y="671" type="qcurve" smooth="yes"/>
    </contour>
  </outline>
</glyph>
<glyph name="uni1B6C" format="2">
  <advance width="0"/>
  <unicode hex="1B6C"/>
  <anchor x="-230" y="-49" name="_Anchor-0"/>
  <outline>
    <contour>
      <point x="-373" y="-230" type="line"/>
      <point x="-435" y="-230"/>
      <point x="-435" y="-179" type="qcurve" smooth="yes"/>
      <point x="-435" y="-161"/>
      <point x="-427" y="-136" type="qcurve"/>
      <point x="-408" y="-183"/>
      <point x="-326" y="-183" type="qcurve" smooth="yes"/>
      <point x="-301" y="-182" type="line"/>
      <point x="-330" y="-226"/>
      <point x="-364" y="-229" type="qcurve" smooth="yes"/>
    </contour>
  </outline>
</glyph>
<glyph name="uni1B6D" format="2">
  <advance width="0"/>
  <unicode hex="1B6D"/>
  <anchor x="-308" y="620" name="_Anchor-1"/>
  <outline>
    <contour>
      <point x="-378" y="471" type="qcurve"/>
      <point x="-397" y="477" type="line"/>
      <point x="-369" y="619"/>
      <point x="-369" y="737" type="qcurve" smooth="yes"/>
      <point x="-369" y="797"/>
      <point x="-382" y="859" type="qcurve"/>
      <point x="-338" y="933" type="line"/>
      <point x="-318" y="907"/>
      <point x="-318" y="779" type="qcurve" smooth="yes"/>
      <point x="-318" y="767" type="line"/>
      <point x="-324" y="633"/>
    </contour>
    <contour>
      <point x="-397" y="654" type="qcurve" smooth="yes"/>
      <point x="-488" y="654"/>
      <point x="-592" y="690" type="qcurve"/>
      <point x="-531" y="751" type="line"/>
      <point x="-444" y="718"/>
      <point x="-339" y="718" type="qcurve" smooth="yes"/>
      <point x="-229" y="718"/>
      <point x="-139" y="737" type="qcurve"/>
      <point x="-136" y="718" type="line"/>
      <point x="-267" y="654"/>
    </contour>
  </outline>
</glyph>
<glyph name="uni1B6E" format="2">
  <advance width="0"/>
  <unicode hex="1B6E"/>
  <anchor x="-308" y="708" name="_Anchor-1"/>
  <outline>
    <contour>
      <point x="-397" y="654" type="qcurve" smooth="yes"/>
      <point x="-488" y="654"/>
      <point x="-592" y="690" type="qcurve"/>
      <point x="-531" y="751" type="line"/>
      <point x="-444" y="718"/>
      <point x="-339" y="718" type="qcurve" smooth="yes"/>
      <point x="-229" y="718"/>
      <point x="-139" y="737" type="qcurve"/>
      <point x="-136" y="718" type="line"/>
      <point x="-267" y="654"/>
    </contour>
  </outline>
</glyph>
<glyph name="uni1B6F" format="2">
  <advance width="0"/>
  <unicode hex="1B6F"/>
  <anchor x="-323" y="620" name="_Anchor-1"/>
  <outline>
    <contour>
      <point x="-179" y="481" type="line"/>
      <point x="-314" y="588"/>
      <point x="-364" y="673" type="qcurve"/>
      <point x="-318" y="705" type="line"/>
      <point x="-292" y="631"/>
      <point x="-167" y="496" type="qcurve"/>
    </contour>
    <contour>
      <point x="-590" y="516" type="line"/>
      <point x="-409" y="604"/>
      <point x="-357" y="745" type="qcurve"/>
      <point x="-267" y="769" type="line"/>
      <point x="-337" y="588"/>
      <point x="-578" y="501" type="qcurve"/>
    </contour>
  </outline>
</glyph>
<glyph name="uni1B70" format="2">
  <advance width="0"/>
  <unicode hex="1B70"/>
  <anchor x="-323" y="620" name="_Anchor-1"/>
  <outline>
    <contour>
      <point x="-368" y="471" type="qcurve"/>
      <point x="-387" y="477" type="line"/>
      <point x="-371" y="560"/>
      <point x="-364" y="634" type="qcurve"/>
      <point x="-455" y="560"/>
      <point x="-618" y="501" type="qcurve"/>
      <point x="-630" y="516" type="line"/>
      <point x="-479" y="589"/>
      <point x="-400" y="674" type="qcurve"/>
      <point x="-407" y="674" type="line" smooth="yes"/>
      <point x="-498" y="674"/>
      <point x="-582" y="700" type="qcurve"/>
      <point x="-521" y="751" type="line"/>
      <point x="-447" y="723"/>
      <point x="-359" y="719" type="qcurve"/>
      <point x="-359" y="737" type="line" smooth="yes"/>
      <point x="-359" y="797"/>
      <point x="-366" y="850" type="qcurve"/>
      <point x="-311" y="907" type="line"/>
      <point x="-305" y="750"/>
      <point x="-312" y="718" type="qcurve"/>
      <point x="-212" y="720"/>
      <point x="-129" y="737" type="qcurve"/>
      <point x="-126" y="718" type="line"/>
      <point x="-208" y="690"/>
      <point x="-297" y="680" type="qcurve"/>
      <point x="-265" y="612"/>
      <point x="-177" y="516" type="qcurve"/>
      <point x="-189" y="501" type="line"/>
      <point x="-275" y="566"/>
      <point x="-325" y="630" type="qcurve"/>
      <point x="-340" y="554"/>
    </contour>
  </outline>
</glyph>
<glyph name="uni1B71" format="2">
  <advance width="0"/>
  <unicode hex="1B71"/>
  <anchor x="-323" y="620" name="_Anchor-1"/>
  <outline>
    <contour>
      <point x="-199" y="501" type="line"/>
      <point x="-314" y="588"/>
      <point x="-364" y="673" type="qcurve"/>
      <point x="-318" y="705" type="line"/>
      <point x="-292" y="631"/>
      <point x="-187" y="516" type="qcurve"/>
    </contour>
    <contour>
      <point x="-620" y="516" type="line"/>
      <point x="-439" y="604"/>
      <point x="-391" y="708" type="qcurve"/>
      <point x="-314" y="709" type="line"/>
      <point x="-367" y="588"/>
      <point x="-608" y="501" type="qcurve"/>
    </contour>
    <contour>
      <point x="-417" y="674" type="qcurve" smooth="yes"/>
      <point x="-508" y="674"/>
      <point x="-592" y="700" type="qcurve"/>
      <point x="-531" y="751" type="line"/>
      <point x="-444" y="718"/>
      <point x="-339" y="718" type="qcurve" smooth="yes"/>
      <point x="-229" y="718"/>
      <point x="-139" y="737" type="qcurve"/>
      <point x="-136" y="718" type="line"/>
      <point x="-267" y="674"/>
    </contour>
  </outline>
</glyph>
<glyph name="uni1B72" format="2">
  <advance width="0"/>
  <unicode hex="1B72"/>
  <anchor x="-323" y="620" name="_Anchor-1"/>
  <outline>
    <contour>
      <point x="-350" y="503" type="qcurve"/>
      <point x="-491" y="576"/>
      <point x="-520" y="698" type="qcurve"/>
      <point x="-484" y="775" type="line"/>
      <point x="-427" y="571"/>
      <point x="-358" y="544" type="qcurve"/>
      <point x="-302" y="687"/>
      <point x="-187" y="745" type="qcurve"/>
      <point x="-84" y="751" type="line"/>
      <point x="-240" y="657"/>
    </contour>
  </outline>
</glyph>
<glyph name="uni1B73" format="2">
  <advance width="0"/>
  <unicode hex="1B73"/>
  <anchor x="-254" y="620" name="_Anchor-1"/>
  <outline>
    <contour>
      <point x="-386" y="493" type="qcurve" smooth="yes"/>
      <point x="-445" y="493"/>
      <point x="-523" y="537" type="qcurve"/>
      <point x="-519" y="551" type="line"/>
      <point x="-470" y="539"/>
      <point x="-428" y="539" type="qcurve" smooth="yes"/>
      <point x="-360" y="539"/>
      <point x="-270" y="590"/>
      <point x="-270" y="643" type="qcurve" smooth="yes"/>
      <point x="-272" y="709"/>
      <point x="-382" y="709" type="qcurve" smooth="yes"/>
      <point x="-473" y="709"/>
      <point x="-483" y="656" type="qcurve" smooth="yes"/>
      <point x="-485" y="640" type="line"/>
      <point x="-485" y="598"/>
      <point x="-435" y="571" type="qcurve"/>
      <point x="-441" y="557" type="line"/>
      <point x="-512" y="581"/>
      <point x="-512" y="660" type="qcurve" smooth="yes"/>
      <point x="-511" y="680" type="line"/>
      <point x="-501" y="775"/>
      <point x="-380" y="778" type="qcurve"/>
      <point x="-246" y="775"/>
      <point x="-245" y="664" type="qcurve" smooth="yes"/>
      <point x="-245" y="586"/>
      <point x="-322" y="493"/>
    </contour>
    <contour>
      <point x="-373" y="590" type="line"/>
      <point x="-435" y="590"/>
      <point x="-435" y="641" type="qcurve" smooth="yes"/>
      <point x="-435" y="659"/>
      <point x="-427" y="684" type="qcurve"/>
      <point x="-408" y="637"/>
      <point x="-326" y="637" type="qcurve" smooth="yes"/>
      <point x="-301" y="638" type="line"/>
      <point x="-330" y="594"/>
      <point x="-364" y="591" type="qcurve" smooth="yes"/>
    </contour>
  </outline>
</glyph>
<glyph name="uni1B76" format="2">
  <advance width="700"/>
  <unicode hex="1B76"/>
  <anchor x="258" y="610" name="Anchor-1"/>
  <anchor x="322" y="0" name="Anchor-0"/>
  <outline>
    <contour>
      <point x="549" y="0" type="line"/>
      <point x="458" y="0" type="line"/>
      <point x="327" y="323" type="line"/>
      <point x="191" y="0" type="line"/>
      <point x="147" y="0" type="line"/>
      <point x="339" y="451" type="line"/>
      <point x="359" y="451" type="line"/>
    </contour>
    <contour>
      <point x="340" y="132" type="line"/>
      <point x="155" y="433" type="line"/>
      <point x="182" y="449" type="line"/>
      <point x="368" y="150" type="line"/>
    </contour>
  </outline>
</glyph>
<glyph name="uni1B77" format="2">
  <advance width="700"/>
  <unicode hex="1B77"/>
  <anchor x="285" y="610" name="Anchor-1"/>
  <anchor x="290" y="0" name="Anchor-0"/>
  <outline>
    <contour>
      <point x="482" y="72" type="qcurve" smooth="yes"/>
      <point x="436" y="0"/>
      <point x="353" y="0" type="qcurve" smooth="yes"/>
      <point x="267" y="0"/>
      <point x="223" y="72" type="qcurve"/>
      <point x="181" y="132"/>
      <point x="181" y="219" type="qcurve" smooth="yes"/>
      <point x="181" y="313"/>
      <point x="221" y="368" type="qcurve" smooth="yes"/>
      <point x="267" y="438"/>
      <point x="355" y="438" type="qcurve" smooth="yes"/>
      <point x="434" y="438"/>
      <point x="482" y="364" type="qcurve" smooth="yes"/>
      <point x="524" y="299"/>
      <point x="524" y="219" type="qcurve" smooth="yes"/>
      <point x="524" y="132"/>
    </contour>
    <contour>
      <point x="496" y="214" type="qcurve" smooth="yes"/>
      <point x="496" y="344"/>
      <point x="350" y="346" type="qcurve" smooth="yes"/>
      <point x="208" y="344"/>
      <point x="208" y="214" type="qcurve" smooth="yes"/>
      <point x="210" y="91"/>
      <point x="352" y="92" type="qcurve" smooth="yes"/>
      <point x="493" y="91"/>
    </contour>
    <contour>
      <point x="340" y="132" type="line"/>
      <point x="155" y="433" type="line"/>
      <point x="182" y="449" type="line"/>
      <point x="368" y="150" type="line"/>
    </contour>
  </outline>
</glyph>
<glyph name="uni1B78" format="2">
  <advance width="700"/>
  <unicode hex="1B78"/>
  <anchor x="296" y="610" name="Anchor-1"/>
  <anchor x="300" y="0" name="Anchor-0"/>
  <outline>
    <contour>
      <point x="347" y="195" type="qcurve" smooth="yes"/>
      <point x="236" y="195"/>
      <point x="112" y="231" type="qcurve"/>
      <point x="173" y="312" type="line"/>
      <point x="280" y="269"/>
      <point x="405" y="269" type="qcurve" smooth="yes"/>
      <point x="515" y="269"/>
      <point x="605" y="288" type="qcurve"/>
      <point x="608" y="269" type="line"/>
      <point x="477" y="195"/>
    </contour>
  </outline>
</glyph>
<glyph name="uni1B79" format="2">
  <advance width="700"/>
  <unicode hex="1B79"/>
  <anchor x="258" y="610" name="Anchor-1"/>
  <anchor x="322" y="0" name="Anchor-0"/>
  <outline>
    <contour>
      <point x="167" y="0" type="line"/>
      <point x="359" y="451" type="line"/>
      <point x="400" y="451" type="line"/>
      <point x="247" y="94" type="line"/>
      <point x="504" y="94" type="line"/>
      <point x="504" y="0" type="line"/>
    </contour>
  </outline>
</glyph>
<glyph name="uni1B7A" format="2">
  <advance width="700"/>
  <unicode hex="1B7A"/>
  <anchor x="258" y="610" name="Anchor-1"/>
  <anchor x="322" y="0" name="Anchor-0"/>
  <outline>
    <contour>
      <point x="415" y="98" type="line"/>
      <point x="257" y="354" type="line"/>
      <point x="285" y="371" type="line"/>
      <point x="443" y="116" type="line"/>
    </contour>
    <contour>
      <point x="347" y="195" type="qcurve" smooth="yes"/>
      <point x="236" y="195"/>
      <point x="112" y="231" type="qcurve"/>
      <point x="173" y="312" type="line"/>
      <point x="280" y="269"/>
      <point x="405" y="269" type="qcurve" smooth="yes"/>
      <point x="515" y="269"/>
      <point x="605" y="288" type="qcurve"/>
      <point x="608" y="269" type="line"/>
      <point x="477" y="195"/>
    </contour>
  </outline>
</glyph>
<glyph name="uni1B7B" format="2">
  <advance width="700"/>
  <unicode hex="1B7B"/>
  <anchor x="258" y="610" name="Anchor-1"/>
  <anchor x="322" y="0" name="Anchor-0"/>
  <outline>
    <contour>
      <point x="167" y="0" type="line"/>
      <point x="359" y="451" type="line"/>
      <point x="400" y="451" type="line"/>
      <point x="247" y="94" type="line"/>
      <point x="504" y="94" type="line"/>
      <point x="504" y="0" type="line"/>
    </contour>
    <contour>
      <point x="360" y="132" type="line"/>
      <point x="175" y="433" type="line"/>
      <point x="202" y="449" type="line"/>
      <point x="388" y="150" type="line"/>
    </contour>
  </outline>
</glyph>
<glyph name="uni1B7C" format="2">
  <advance width="700"/>
  <unicode hex="1B7C"/>
  <anchor x="188" y="610" name="Anchor-1"/>
  <anchor x="214" y="0" name="Anchor-0"/>
  <outline>
    <contour>
      <point x="347" y="220" type="line"/>
      <point x="285" y="220"/>
      <point x="285" y="271" type="qcurve" smooth="yes"/>
      <point x="285" y="289"/>
      <point x="293" y="314" type="qcurve"/>
      <point x="312" y="267"/>
      <point x="394" y="267" type="qcurve" smooth="yes"/>
      <point x="419" y="268" type="line"/>
      <point x="390" y="224"/>
      <point x="356" y="221" type="qcurve" smooth="yes"/>
    </contour>
  </outline>
</glyph>
<glyph name="uni1B7D" format="2">
  <advance width="1266"/>
  <unicode hex="1B7D"/>
  <outline>
    <contour>
      <point x="522" y="253" type="line"/>
      <point x="517" y="337"/>
      <point x="435" y="337" type="qcurve"/>
      <point x="449" y="284"/>
      <point x="449" y="224" type="qcurve" smooth="yes"/>
      <point x="449" y="135"/>
      <point x="407" y="1"/>
      <point x="364" y="0" type="qcurve" smooth="yes"/>
      <point x="310" y="1"/>
      <point x="309" y="154" type="qcurve" smooth="yes"/>
      <point x="309" y="203" type="line" smooth="yes"/>
      <point x="308" y="337"/>
      <point x="219" y="337" type="qcurve"/>
      <point x="231" y="287"/>
      <point x="231" y="231" type="qcurve" smooth="yes"/>
      <point x="231" y="1"/>
      <point x="121" y="1" type="qcurve" smooth="yes"/>
      <point x="46" y="1"/>
      <point x="46" y="164" type="qcurve" smooth="yes"/>
      <point x="46" y="178" type="line"/>
      <point x="60" y="179" type="line"/>
      <point x="68" y="93"/>
      <point x="118" y="93" type="qcurve" smooth="yes"/>
      <point x="152" y="93"/>
      <point x="200" y="170"/>
      <point x="200" y="235" type="qcurve" smooth="yes"/>
      <point x="200" y="312"/>
      <point x="168" y="440" type="qcurve"/>
      <point x="220" y="440" type="line" smooth="yes"/>
      <point x="336" y="438"/>
      <point x="340" y="229" type="qcurve"/>
      <point x="340" y="161" type="line" smooth="yes"/>
      <point x="341" y="90"/>
      <point x="373" y="90" type="qcurve" smooth="yes"/>
      <point x="399" y="90"/>
      <point x="422" y="166"/>
      <point x="422" y="221" type="qcurve" smooth="yes"/>
      <point x="422" y="303"/>
      <point x="387" y="440" type="qcurve"/>
      <point x="439" y="440" type="line" smooth="yes"/>
      <point x="558" y="438"/>
      <point x="558" y="274" type="qcurve" smooth="yes"/>
      <point x="558" y="260" type="line" smooth="yes"/>
      <point x="556" y="224"/>
      <point x="556" y="183" type="qcurve" smooth="yes"/>
      <point x="556" y="131" type="line" smooth="yes"/>
      <point x="557" y="63"/>
      <point x="580" y="60" type="qcurve"/>
      <point x="603" y="63"/>
      <point x="604" y="131" type="qcurve" smooth="yes"/>
      <point x="604" y="279" type="line" smooth="yes"/>
      <point x="604" y="426"/>
      <point x="711" y="428" type="qcurve" smooth="yes"/>
      <point x="790" y="426"/>
      <point x="840" y="301" type="qcurve" smooth="yes"/>
      <point x="868" y="235" type="line"/>
      <point x="889" y="175"/>
      <point x="922" y="175" type="qcurve" smooth="yes"/>
      <point x="950" y="175"/>
      <point x="950" y="230" type="qcurve" smooth="yes"/>
      <point x="949" y="314" type="line" smooth="yes"/>
      <point x="949" y="426"/>
      <point x="1014" y="428" type="qcurve" smooth="yes"/>
      <point x="1070" y="426"/>
      <point x="1103" y="350" type="qcurve" smooth="yes"/>
      <point x="1136" y="273"/>
      <point x="1190" y="273" type="qcurve" smooth="yes"/>
      <point x="1233" y="273"/>
      <point x="1238" y="321" type="qcurve"/>
      <point x="1238" y="331" type="line" smooth="yes"/>
      <point x="1238" y="377"/>
      <point x="1208" y="452" type="qcurve"/>
      <point x="1222" y="460" type="line"/>
      <point x="1266" y="380"/>
      <point x="1266" y="307" type="qcurve"/>
      <point x="1265" y="289" type="line" smooth="yes"/>
      <point x="1258" y="207"/>
      <point x="1190" y="205" type="qcurve" smooth="yes"/>
      <point x="1151" y="206"/>
      <point x="1115" y="278" type="qcurve" smooth="yes"/>
      <point x="1078" y="345"/>
      <point x="1022" y="345" type="qcurve" smooth="yes"/>
      <point x="1014" y="345" type="line"/>
      <point x="970" y="341"/>
      <point x="970" y="294" type="qcurve"/>
      <point x="975" y="239" type="line" smooth="yes"/>
      <point x="981" y="199"/>
      <point x="981" y="170" type="qcurve" smooth="yes"/>
      <point x="981" y="98"/>
      <point x="942" y="97" type="qcurve" smooth="yes"/>
      <point x="894" y="98"/>
      <point x="840" y="224" type="qcurve" smooth="yes"/>
      <point x="812" y="287" type="line" smooth="yes"/>
      <point x="785" y="340"/>
      <point x="721" y="340" type="qcurve" smooth="yes"/>
      <point x="641" y="340"/>
      <point x="634" y="254" type="qcurve"/>
      <point x="634" y="124" type="line" smooth="yes"/>
      <point x="634" y="1"/>
      <point x="580" y="0" type="qcurve" smooth="yes"/>
      <point x="522" y="1"/>
      <point x="521" y="124" type="qcurve" smooth="yes"/>
      <point x="521" y="185" type="line"/>
    </contour>
  </outline>
</glyph>
<glyph name="uni1B7E" format="2">
  <advance width="2349"/>
  <unicode hex="1B7E"/>
  <outline>
    <contour>
      <point x="1287" y="-400" type="qcurve" smooth="yes"/>
      <point x="1229" y="-399"/>
      <point x="1228" y="-276" type="qcurve" smooth="yes"/>
      <point x="1228" y="105" type="line"/>
      <point x="1263" y="103" type="line"/>
      <point x="1263" y="-269" type="line" smooth="yes"/>
      <point x="1264" y="-337"/>
      <point x="1287" y="-340" type="qcurve"/>
      <point x="1310" y="-337"/>
      <point x="1311" y="-269" type="qcurve" smooth="yes"/>
      <point x="1311" y="181" type="line" smooth="yes"/>
      <point x="1311" y="340"/>
      <point x="1254" y="437" type="qcurve"/>
      <point x="1283" y="438" type="line"/>
      <point x="1451" y="438"/>
      <point x="1451" y="203" type="qcurve" smooth="yes"/>
      <point x="1451" y="-69" type="line"/>
      <point x="1416" y="-76" type="line"/>
      <point x="1416" y="205" type="line"/>
      <point x="1411" y="342"/>
      <point x="1322" y="342" type="qcurve"/>
      <point x="1342" y="291"/>
      <point x="1344" y="182" type="qcurve" smooth="yes"/>
      <point x="1344" y="-276" type="line" smooth="yes"/>
      <point x="1344" y="-399"/>
    </contour>
    <contour>
      <point x="355" y="-5" type="line"/>
      <point x="279" y="11"/>
      <point x="144" y="70"/>
      <point x="130" y="147"/>
      <point x="130" y="162" type="qcurve" smooth="yes"/>
      <point x="130" y="212"/>
      <point x="160" y="268" type="qcurve" smooth="yes"/>
      <point x="185" y="308"/>
      <point x="185" y="328" type="qcurve" smooth="yes"/>
      <point x="185" y="346"/>
      <point x="163" y="346" type="qcurve" smooth="yes"/>
      <point x="128" y="346"/>
      <point x="128" y="297" type="qcurve" smooth="yes"/>
      <point x="128" y="280"/>
      <point x="133" y="256" type="qcurve"/>
      <point x="119" y="254" type="line"/>
      <point x="105" y="291"/>
      <point x="105" y="328" type="qcurve" smooth="yes"/>
      <point x="105" y="440"/>
      <point x="179" y="440" type="qcurve"/>
      <point x="240" y="436"/>
      <point x="240" y="378" type="qcurve" smooth="yes"/>
      <point x="240" y="342"/>
      <point x="167" y="232"/>
      <point x="167" y="194" type="qcurve" smooth="yes"/>
      <point x="167" y="135"/>
      <point x="264" y="100" type="qcurve"/>
      <point x="249" y="135"/>
      <point x="245" y="194" type="qcurve"/>
      <point x="248" y="434"/>
      <point x="383" y="439" type="qcurve" smooth="yes"/>
      <point x="438" y="439"/>
      <point x="512" y="381"/>
      <point x="539" y="323" type="qcurve"/>
      <point x="566" y="381"/>
      <point x="636" y="439"/>
      <point x="696" y="439" type="qcurve" smooth="yes"/>
      <point x="833" y="433"/>
      <point x="833" y="192" type="qcurve" smooth="yes"/>
      <point x="833" y="0" type="line"/>
      <point x="803" y="0" type="line"/>
      <point x="803" y="184" type="line" smooth="yes"/>
      <point x="802" y="333"/>
      <point x="693" y="342" type="qcurve"/>
      <point x="668" y="342" type="line"/>
      <point x="588" y="333"/>
      <point x="540" y="270" type="qcurve"/>
      <point x="538" y="270" type="line"/>
      <point x="490" y="333"/>
      <point x="410" y="342" type="qcurve"/>
      <point x="385" y="342" type="line"/>
      <point x="301" y="335"/>
      <point x="282" y="246" type="qcurve"/>
      <point x="280" y="202" type="line"/>
      <point x="280" y="77"/>
      <point x="365" y="9" type="qcurve"/>
    </contour>
    <contour>
      <point x="937" y="-577" type="line"/>
      <point x="865" y="-342"/>
      <point x="659" y="-117"/>
      <point x="503" y="-114" type="qcurve" smooth="yes"/>
      <point x="412" y="-114"/>
      <point x="412" y="-165" type="qcurve" smooth="yes"/>
      <point x="412" y="-198"/>
      <point x="437" y="-249" type="qcurve" smooth="yes"/>
      <point x="456" y="-287"/>
      <point x="456" y="-321" type="qcurve" smooth="yes"/>
      <point x="456" y="-362"/>
      <point x="411" y="-417"/>
      <point x="363" y="-417" type="qcurve" smooth="yes"/>
      <point x="354" y="-417" type="line" smooth="yes"/>
      <point x="299" y="-414"/>
      <point x="226" y="-312"/>
      <point x="226" y="-237" type="qcurve" smooth="yes"/>
      <point x="226" y="-208"/>
      <point x="232" y="-176" type="qcurve"/>
      <point x="251" y="-179" type="line"/>
      <point x="249" y="-209" type="line"/>
      <point x="249" y="-275"/>
      <point x="305" y="-344"/>
      <point x="345" y="-344" type="qcurve" smooth="yes"/>
      <point x="369" y="-344"/>
      <point x="411" y="-308"/>
      <point x="411" y="-280" type="qcurve" smooth="yes"/>
      <point x="411" y="-259"/>
      <point x="398" y="-233" type="qcurve" smooth="yes"/>
      <point x="378" y="-195"/>
      <point x="378" y="-155" type="qcurve" smooth="yes"/>
      <point x="378" y="-32"/>
      <point x="519" y="-32" type="qcurve" smooth="yes"/>
      <point x="667" y="-32"/>
      <point x="889" y="-321"/>
      <point x="963" y="-568" type="qcurve"/>
    </contour>
    <contour>
      <point x="968" y="-48" type="line"/>
      <point x="968" y="-574" type="line" smooth="yes"/>
      <point x="968" y="-681"/>
      <point x="857" y="-791"/>
      <point x="770" y="-791" type="qcurve" smooth="yes"/>
      <point x="715" y="-791"/>
      <point x="634" y="-733"/>
      <point x="634" y="-684" type="qcurve" smooth="yes"/>
      <point x="634" y="-623"/>
      <point x="691" y="-556" type="qcurve"/>
      <point x="496" y="-764"/>
      <point x="292" y="-764" type="qcurve" smooth="yes"/>
      <point x="145" y="-764"/>
      <point x="-19" y="-592"/>
      <point x="-21" y="-221"/>
      <point x="85" y="78" type="qcurve"/>
      <point x="111" y="67" type="line"/>
      <point x="1" y="-227"/>
      <point x="31" y="-666"/>
      <point x="280" y="-666" type="qcurve" smooth="yes"/>
      <point x="499" y="-666"/>
      <point x="726" y="-419" type="qcurve"/>
      <point x="782" y="-486" type="line"/>
      <point x="677" y="-612"/>
      <point x="677" y="-659" type="qcurve" smooth="yes"/>
      <point x="677" y="-713"/>
      <point x="780" y="-713" type="qcurve" smooth="yes"/>
      <point x="936" y="-713"/>
      <point x="936" y="-544" type="qcurve" smooth="yes"/>
      <point x="936" y="-6" type="line"/>
    </contour>
    <contour>
      <point x="1099" y="-600" type="qcurve" smooth="yes"/>
      <point x="1041" y="-599"/>
      <point x="1040" y="-476" type="qcurve" smooth="yes"/>
      <point x="1040" y="105" type="line"/>
      <point x="1035" y="342"/>
      <point x="946" y="342" type="qcurve" smooth="yes"/>
      <point x="939" y="342" type="line"/>
      <point x="966" y="291"/>
      <point x="968" y="-98" type="qcurve" smooth="yes"/>
      <point x="968" y="-452" type="line"/>
      <point x="935" y="-580" type="line"/>
      <point x="935" y="-19" type="line" smooth="yes"/>
      <point x="935" y="340"/>
      <point x="858" y="423" type="qcurve"/>
      <point x="879" y="437"/>
      <point x="908" y="437" type="qcurve" smooth="yes"/>
      <point x="997" y="437"/>
      <point x="1075" y="276"/>
      <point x="1075" y="103" type="qcurve" smooth="yes"/>
      <point x="1075" y="-469" type="line" smooth="yes"/>
      <point x="1076" y="-537"/>
      <point x="1099" y="-540" type="qcurve"/>
      <point x="1122" y="-537"/>
      <point x="1123" y="-469" type="qcurve" smooth="yes"/>
      <point x="1123" y="181" type="line" smooth="yes"/>
      <point x="1123" y="340"/>
      <point x="1066" y="437" type="qcurve"/>
      <point x="1095" y="438" type="line"/>
      <point x="1263" y="438"/>
      <point x="1263" y="203" type="qcurve" smooth="yes"/>
      <point x="1263" y="81" type="line"/>
      <point x="1228" y="74" type="line"/>
      <point x="1228" y="205" type="line"/>
      <point x="1223" y="342"/>
      <point x="1134" y="342" type="qcurve"/>
      <point x="1154" y="291"/>
      <point x="1156" y="182" type="qcurve" smooth="yes"/>
      <point x="1156" y="-476" type="line" smooth="yes"/>
      <point x="1156" y="-599"/>
    </contour>
    <contour>
      <point x="1475" y="-200" type="qcurve" smooth="yes"/>
      <point x="1417" y="-199"/>
      <point x="1416" y="-76" type="qcurve" smooth="yes"/>
      <point x="1416" y="-45" type="line"/>
      <point x="1451" y="-47" type="line"/>
      <point x="1451" y="-69" type="line" smooth="yes"/>
      <point x="1452" y="-137"/>
      <point x="1475" y="-140" type="qcurve"/>
      <point x="1498" y="-137"/>
      <point x="1499" y="-69" type="qcurve" smooth="yes"/>
      <point x="1499" y="181" type="line" smooth="yes"/>
      <point x="1499" y="340"/>
      <point x="1442" y="437" type="qcurve"/>
      <point x="1471" y="438" type="line"/>
      <point x="1639" y="438"/>
      <point x="1639" y="203" type="qcurve" smooth="yes"/>
      <point x="1639" y="131" type="line"/>
      <point x="1604" y="124" type="line"/>
      <point x="1604" y="205" type="line"/>
      <point x="1599" y="342"/>
      <point x="1510" y="342" type="qcurve"/>
      <point x="1530" y="291"/>
      <point x="1532" y="182" type="qcurve" smooth="yes"/>
      <point x="1532" y="-76" type="line" smooth="yes"/>
      <point x="1532" y="-199"/>
    </contour>
    <contour>
      <point x="1663" y="0" type="qcurve" smooth="yes"/>
      <point x="1605" y="1"/>
      <point x="1604" y="124" type="qcurve" smooth="yes"/>
      <point x="1604" y="185" type="line"/>
      <point x="1639" y="183" type="line"/>
      <point x="1639" y="131" type="line" smooth="yes"/>
      <point x="1640" y="63"/>
      <point x="1663" y="60" type="qcurve"/>
      <point x="1686" y="63"/>
      <point x="1687" y="131" type="qcurve" smooth="yes"/>
      <point x="1687" y="279" type="line" smooth="yes"/>
      <point x="1687" y="426"/>
      <point x="1794" y="428" type="qcurve" smooth="yes"/>
      <point x="1873" y="426"/>
      <point x="1923" y="301" type="qcurve" smooth="yes"/>
      <point x="1951" y="235" type="line"/>
      <point x="1972" y="175"/>
      <point x="2005" y="175" type="qcurve" smooth="yes"/>
      <point x="2033" y="175"/>
      <point x="2033" y="230" type="qcurve" smooth="yes"/>
      <point x="2032" y="314" type="line" smooth="yes"/>
      <point x="2032" y="426"/>
      <point x="2097" y="428" type="qcurve" smooth="yes"/>
      <point x="2153" y="426"/>
      <point x="2186" y="350" type="qcurve" smooth="yes"/>
      <point x="2219" y="273"/>
      <point x="2273" y="273" type="qcurve" smooth="yes"/>
      <point x="2316" y="273"/>
      <point x="2321" y="321" type="qcurve"/>
      <point x="2321" y="331" type="line" smooth="yes"/>
      <point x="2321" y="377"/>
      <point x="2291" y="452" type="qcurve"/>
      <point x="2305" y="460" type="line"/>
      <point x="2349" y="380"/>
      <point x="2349" y="307" type="qcurve"/>
      <point x="2348" y="289" type="line" smooth="yes"/>
      <point x="2341" y="207"/>
      <point x="2273" y="205" type="qcurve" smooth="yes"/>
      <point x="2234" y="206"/>
      <point x="2198" y="278" type="qcurve" smooth="yes"/>
      <point x="2161" y="345"/>
      <point x="2105" y="345" type="qcurve" smooth="yes"/>
      <point x="2097" y="345" type="line"/>
      <point x="2053" y="341"/>
      <point x="2053" y="294" type="qcurve"/>
      <point x="2058" y="239" type="line" smooth="yes"/>
      <point x="2064" y="199"/>
      <point x="2064" y="170" type="qcurve" smooth="yes"/>
      <point x="2064" y="98"/>
      <point x="2025" y="97" type="qcurve" smooth="yes"/>
      <point x="1977" y="98"/>
      <point x="1923" y="224" type="qcurve" smooth="yes"/>
      <point x="1895" y="287" type="line" smooth="yes"/>
      <point x="1868" y="340"/>
      <point x="1804" y="340" type="qcurve" smooth="yes"/>
      <point x="1724" y="340"/>
      <point x="1717" y="254" type="qcurve"/>
      <point x="1717" y="124" type="line" smooth="yes"/>
      <point x="1717" y="1"/>
    </contour>
  </outline>
</glyph>
<glyph name="uni25CC" format="2">
  <advance width="594"/>
  <unicode hex="25CC"/>
  <anchor x="299" y="602" name="Anchor-2"/>
  <outline>
    <contour>
      <point x="479" y="419" type="qcurve" smooth="yes"/>
      <point x="479" y="395"/>
      <point x="455" y="395" type="qcurve" smooth="yes"/>
      <point x="430" y="395"/>
      <point x="430" y="419" type="qcurve" smooth="yes"/>
      <point x="430" y="443"/>
      <point x="455" y="443" type="qcurve" smooth="yes"/>
      <point x="479" y="443"/>
    </contour>
    <contour>
      <point x="406" y="467" type="qcurve" smooth="yes"/>
      <point x="406" y="443"/>
      <point x="383" y="443" type="qcurve" smooth="yes"/>
      <point x="357" y="443"/>
      <point x="357" y="467" type="qcurve" smooth="yes"/>
      <point x="357" y="492"/>
      <point x="383" y="492" type="qcurve" smooth="yes"/>
      <point x="406" y="492"/>
    </contour>
    <contour>
      <point x="527" y="347" type="qcurve" smooth="yes"/>
      <point x="527" y="322"/>
      <point x="502" y="322" type="qcurve" smooth="yes"/>
      <point x="478" y="322"/>
      <point x="478" y="347" type="qcurve" smooth="yes"/>
      <point x="478" y="371"/>
      <point x="503" y="371" type="qcurve" smooth="yes"/>
      <point x="527" y="371"/>
    </contour>
    <contour>
      <point x="544" y="262" type="qcurve" smooth="yes"/>
      <point x="544" y="237"/>
      <point x="521" y="237" type="qcurve" smooth="yes"/>
      <point x="496" y="237"/>
      <point x="496" y="262" type="qcurve" smooth="yes"/>
      <point x="496" y="286"/>
      <point x="521" y="286" type="qcurve" smooth="yes"/>
      <point x="544" y="286"/>
    </contour>
    <contour>
      <point x="321" y="485" type="qcurve" smooth="yes"/>
      <point x="321" y="460"/>
      <point x="297" y="460" type="qcurve" smooth="yes"/>
      <point x="272" y="460"/>
      <point x="272" y="485" type="qcurve" smooth="yes"/>
      <point x="272" y="509"/>
      <point x="297" y="509" type="qcurve" smooth="yes"/>
      <point x="321" y="509"/>
    </contour>
    <contour>
      <point x="237" y="467" type="qcurve" smooth="yes"/>
      <point x="237" y="443"/>
      <point x="212" y="443" type="qcurve" smooth="yes"/>
      <point x="188" y="443"/>
      <point x="188" y="467" type="qcurve" smooth="yes"/>
      <point x="188" y="492"/>
      <point x="212" y="492" type="qcurve" smooth="yes"/>
      <point x="237" y="492"/>
    </contour>
    <contour>
      <point x="527" y="177" type="qcurve" smooth="yes"/>
      <point x="527" y="153"/>
      <point x="502" y="153" type="qcurve" smooth="yes"/>
      <point x="478" y="153"/>
      <point x="478" y="177" type="qcurve" smooth="yes"/>
      <point x="478" y="202"/>
      <point x="502" y="202" type="qcurve" smooth="yes"/>
      <point x="527" y="202"/>
    </contour>
    <contour>
      <point x="165" y="419" type="qcurve" smooth="yes"/>
      <point x="165" y="395"/>
      <point x="140" y="395" type="qcurve" smooth="yes"/>
      <point x="116" y="395"/>
      <point x="116" y="417" type="qcurve" smooth="yes"/>
      <point x="116" y="443"/>
      <point x="140" y="443" type="qcurve" smooth="yes"/>
      <point x="165" y="443"/>
    </contour>
    <contour>
      <point x="479" y="104" type="qcurve" smooth="yes"/>
      <point x="479" y="80"/>
      <point x="455" y="80" type="qcurve" smooth="yes"/>
      <point x="430" y="80"/>
      <point x="430" y="104" type="qcurve" smooth="yes"/>
      <point x="430" y="128"/>
      <point x="455" y="128" type="qcurve" smooth="yes"/>
      <point x="479" y="128"/>
    </contour>
    <contour>
      <point x="406" y="56" type="qcurve" smooth="yes"/>
      <point x="406" y="32"/>
      <point x="383" y="32" type="qcurve" smooth="yes"/>
      <point x="357" y="32"/>
      <point x="357" y="56" type="qcurve" smooth="yes"/>
      <point x="357" y="81"/>
      <point x="383" y="81" type="qcurve" smooth="yes"/>
      <point x="406" y="81"/>
    </contour>
    <contour>
      <point x="116" y="347" type="qcurve" smooth="yes"/>
      <point x="116" y="322"/>
      <point x="93" y="322" type="qcurve" smooth="yes"/>
      <point x="67" y="322"/>
      <point x="67" y="347" type="qcurve" smooth="yes"/>
      <point x="67" y="371"/>
      <point x="92" y="371" type="qcurve" smooth="yes"/>
      <point x="116" y="371"/>
    </contour>
    <contour>
      <point x="99" y="262" type="qcurve" smooth="yes"/>
      <point x="99" y="237"/>
      <point x="75" y="237" type="qcurve" smooth="yes"/>
      <point x="50" y="237"/>
      <point x="50" y="262" type="qcurve" smooth="yes"/>
      <point x="50" y="286"/>
      <point x="75" y="286" type="qcurve" smooth="yes"/>
      <point x="99" y="286"/>
    </contour>
    <contour>
      <point x="321" y="40" type="qcurve" smooth="yes"/>
      <point x="321" y="15"/>
      <point x="297" y="15" type="qcurve" smooth="yes"/>
      <point x="272" y="15"/>
      <point x="272" y="40" type="qcurve" smooth="yes"/>
      <point x="272" y="63"/>
      <point x="297" y="63" type="qcurve" smooth="yes"/>
      <point x="321" y="63"/>
    </contour>
    <contour>
      <point x="116" y="177" type="qcurve" smooth="yes"/>
      <point x="116" y="153"/>
      <point x="92" y="153" type="qcurve" smooth="yes"/>
      <point x="67" y="153"/>
      <point x="67" y="177" type="qcurve" smooth="yes"/>
      <point x="67" y="202"/>
      <point x="92" y="202" type="qcurve" smooth="yes"/>
      <point x="116" y="202"/>
    </contour>
    <contour>
      <point x="237" y="58" type="qcurve" smooth="yes"/>
      <point x="237" y="32"/>
      <point x="212" y="32" type="qcurve" smooth="yes"/>
      <point x="188" y="32"/>
      <point x="188" y="56" type="qcurve" smooth="yes"/>
      <point x="188" y="81"/>
      <point x="212" y="81" type="qcurve" smooth="yes"/>
      <point x="237" y="81"/>
    </contour>
    <contour>
      <point x="165" y="104" type="qcurve" smooth="yes"/>
      <point x="165" y="80"/>
      <point x="140" y="80" type="qcurve" smooth="yes"/>
      <point x="116" y="80"/>
      <point x="116" y="104" type="qcurve" smooth="yes"/>
      <point x="116" y="128"/>
      <point x="140" y="128" type="qcurve" smooth="yes"/>
      <point x="165" y="128"/>
    </contour>
  </outline>
</glyph>
<glyph name="cereg1" format="2">
  <advance width="878"/>
  <outline>
    <contour>
      <point x="304" y="-356" type="qcurve" smooth="yes"/>
      <point x="197" y="-356"/>
      <point x="137" y="-261" type="qcurve"/>
      <point x="150" y="-248" type="line"/>
      <point x="214" y="-297"/>
      <point x="294" y="-297" type="qcurve" smooth="yes"/>
      <point x="373" y="-296"/>
      <point x="373" y="-257" type="qcurve" smooth="yes"/>
      <point x="373" y="-254" type="line" smooth="yes"/>
      <point x="370" y="-213"/>
      <point x="169" y="-174"/>
      <point x="164" y="-109" type="qcurve"/>
      <point x="166" y="-36"/>
      <point x="246" y="-32" type="qcurve"/>
      <point x="254" y="-32" type="line" smooth="yes"/>
      <point x="327" y="-32"/>
      <point x="369" y="-84" type="qcurve"/>
      <point x="360" y="-95" type="line"/>
      <point x="316" y="-67"/>
      <point x="272" y="-67" type="qcurve" smooth="yes"/>
      <point x="266" y="-67" type="line" smooth="yes"/>
      <point x="219" y="-69"/>
      <point x="209" y="-102" type="qcurve"/>
      <point x="209" y="-108" type="line" smooth="yes"/>
      <point x="209" y="-143"/>
      <point x="279" y="-159" type="qcurve" smooth="yes"/>
      <point x="415" y="-183"/>
      <point x="415" y="-266" type="qcurve" smooth="yes"/>
      <point x="415" y="-270" type="line" smooth="yes"/>
      <point x="412" y="-356"/>
    </contour>
  </outline>
</glyph>
<glyph name="cereg2" format="2">
  <advance width="481"/>
  <outline>
    <contour>
      <point x="303" y="524" type="qcurve" smooth="yes"/>
      <point x="196" y="524"/>
      <point x="136" y="619" type="qcurve"/>
      <point x="149" y="632" type="line"/>
      <point x="213" y="583"/>
      <point x="293" y="583" type="qcurve" smooth="yes"/>
      <point x="372" y="584"/>
      <point x="372" y="623" type="qcurve" smooth="yes"/>
      <point x="372" y="626" type="line" smooth="yes"/>
      <point x="369" y="667"/>
      <point x="168" y="706"/>
      <point x="163" y="771" type="qcurve"/>
      <point x="165" y="844"/>
      <point x="245" y="848" type="qcurve"/>
      <point x="253" y="848" type="line" smooth="yes"/>
      <point x="326" y="848"/>
      <point x="368" y="796" type="qcurve"/>
      <point x="359" y="785" type="line"/>
      <point x="315" y="813"/>
      <point x="271" y="813" type="qcurve" smooth="yes"/>
      <point x="265" y="813" type="line" smooth="yes"/>
      <point x="218" y="811"/>
      <point x="208" y="778" type="qcurve"/>
      <point x="208" y="772" type="line" smooth="yes"/>
      <point x="208" y="737"/>
      <point x="278" y="721" type="qcurve" smooth="yes"/>
      <point x="414" y="697"/>
      <point x="414" y="614" type="qcurve" smooth="yes"/>
      <point x="414" y="610" type="line" smooth="yes"/>
      <point x="411" y="524"/>
    </contour>
  </outline>
</glyph>
<glyph name="cereg4" format="2">
  <advance width="938"/>
  <outline>
    <contour>
      <point x="277" y="-255" type="qcurve" smooth="yes"/>
      <point x="271" y="-255" type="line" smooth="yes"/>
      <point x="150" y="-255"/>
      <point x="150" y="-110" type="qcurve" smooth="yes"/>
      <point x="150" y="-48"/>
      <point x="216" y="107"/>
      <point x="275" y="193" type="qcurve"/>
      <point x="291" y="184" type="line"/>
      <point x="195" y="32"/>
      <point x="195" y="-79" type="qcurve" smooth="yes"/>
      <point x="195" y="-179"/>
      <point x="278" y="-180" type="qcurve" smooth="yes"/>
      <point x="344" y="-180"/>
      <point x="388" y="-113" type="qcurve"/>
      <point x="404" y="-121" type="line"/>
      <point x="372" y="-253"/>
    </contour>
  </outline>
</glyph>
<glyph name="cereg5" format="2">
  <advance width="0"/>
  <outline>
    <contour>
      <point x="-323" y="-795" type="qcurve" smooth="yes"/>
      <point x="-329" y="-795" type="line" smooth="yes"/>
      <point x="-450" y="-795"/>
      <point x="-450" y="-650" type="qcurve" smooth="yes"/>
      <point x="-450" y="-588"/>
      <point x="-384" y="-433"/>
      <point x="-325" y="-347" type="qcurve"/>
      <point x="-309" y="-356" type="line"/>
      <point x="-405" y="-508"/>
      <point x="-405" y="-619" type="qcurve" smooth="yes"/>
      <point x="-405" y="-719"/>
      <point x="-322" y="-720" type="qcurve" smooth="yes"/>
      <point x="-256" y="-720"/>
      <point x="-212" y="-653" type="qcurve"/>
      <point x="-196" y="-661" type="line"/>
      <point x="-228" y="-793"/>
    </contour>
  </outline>
</glyph>
<glyph name="uni1B03.2" format="2">
  <advance width="0"/>
  <outline>
    <contour>
      <point x="4" y="533" type="line"/>
      <point x="-96" y="553"/>
      <point x="-313" y="798"/>
      <point x="-337" y="973" type="qcurve"/>
      <point x="-257" y="952" type="line"/>
      <point x="-219" y="803"/>
      <point x="-62" y="583"/>
      <point x="10" y="551" type="qcurve"/>
    </contour>
  </outline>
</glyph>
<glyph name="uni1B03.3" format="2">
  <advance width="0"/>
  <outline>
    <contour>
      <point x="-36" y="833" type="line"/>
      <point x="-185" y="852"/>
      <point x="-353" y="968"/>
      <point x="-377" y="1073" type="qcurve"/>
      <point x="-297" y="1052" type="line"/>
      <point x="-259" y="973"/>
      <point x="-151" y="882"/>
      <point x="-30" y="851" type="qcurve"/>
    </contour>
  </outline>
</glyph>
<glyph name="uni1B0D.conj" format="2">
  <advance width="0"/>
  <outline>
    <contour>
      <point x="-222" y="-895" type="qcurve"/>
      <point x="-241" y="-884" type="line"/>
      <point x="-221" y="-845"/>
      <point x="-221" y="-819" type="qcurve" smooth="yes"/>
      <point x="-221" y="-777"/>
      <point x="-275" y="-770" type="qcurve" smooth="yes"/>
      <point x="-465" y="-748"/>
      <point x="-467" y="-641" type="qcurve" smooth="yes"/>
      <point x="-467" y="-635" type="line" smooth="yes"/>
      <point x="-467" y="-575"/>
      <point x="-365" y="-499"/>
      <point x="-288" y="-499" type="qcurve" smooth="yes"/>
      <point x="-226" y="-499"/>
      <point x="-119" y="-553"/>
      <point x="-77" y="-604" type="qcurve"/>
      <point x="-93" y="-636" type="line"/>
      <point x="-168" y="-566"/>
      <point x="-297" y="-566" type="qcurve" smooth="yes"/>
      <point x="-431" y="-566"/>
      <point x="-431" y="-643" type="qcurve" smooth="yes"/>
      <point x="-431" y="-650" type="line" smooth="yes"/>
      <point x="-428" y="-715"/>
      <point x="-287" y="-729" type="qcurve" smooth="yes"/>
      <point x="-191" y="-739"/>
      <point x="-191" y="-798" type="qcurve" smooth="yes"/>
      <point x="-191" y="-821"/>
      <point x="-205" y="-851" type="qcurve"/>
      <point x="-88" y="-704"/>
      <point x="-80" y="-509" type="qcurve"/>
      <point x="-50" y="-509" type="line"/>
      <point x="-56" y="-739"/>
    </contour>
    <contour>
      <point x="-528" y="-545" type="line"/>
      <point x="-619" y="-440" type="line"/>
      <point x="-634" y="-405"/>
      <point x="-638" y="-346" type="qcurve"/>
      <point x="-635" y="-106"/>
      <point x="-500" y="-101" type="qcurve" smooth="yes"/>
      <point x="-445" y="-101"/>
      <point x="-371" y="-159"/>
      <point x="-344" y="-217" type="qcurve"/>
      <point x="-317" y="-159"/>
      <point x="-247" y="-101"/>
      <point x="-187" y="-101" type="qcurve" smooth="yes"/>
      <point x="-50" y="-107"/>
      <point x="-50" y="-348" type="qcurve" smooth="yes"/>
      <point x="-50" y="-510" type="line"/>
      <point x="-80" y="-540" type="line"/>
      <point x="-80" y="-356" type="line" smooth="yes"/>
      <point x="-81" y="-207"/>
      <point x="-190" y="-198" type="qcurve"/>
      <point x="-215" y="-198" type="line"/>
      <point x="-295" y="-207"/>
      <point x="-343" y="-270" type="qcurve"/>
      <point x="-345" y="-270" type="line"/>
      <point x="-393" y="-207"/>
      <point x="-473" y="-198" type="qcurve"/>
      <point x="-498" y="-198" type="line"/>
      <point x="-582" y="-205"/>
      <point x="-601" y="-294" type="qcurve"/>
      <point x="-603" y="-338" type="line"/>
      <point x="-603" y="-463"/>
      <point x="-518" y="-531" type="qcurve"/>
    </contour>
    <contour>
      <point x="-518" y="-531" type="line"/>
      <point x="-528" y="-545" type="line"/>
      <point x="-604" y="-529"/>
      <point x="-671" y="-499" type="qcurve" smooth="yes"/>
      <point x="-753" y="-464"/>
      <point x="-753" y="-377" type="qcurve" smooth="yes"/>
      <point x="-753" y="-328"/>
      <point x="-723" y="-272" type="qcurve" smooth="yes"/>
      <point x="-698" y="-232"/>
      <point x="-698" y="-212" type="qcurve" smooth="yes"/>
      <point x="-698" y="-194"/>
      <point x="-720" y="-194" type="qcurve" smooth="yes"/>
      <point x="-755" y="-194"/>
      <point x="-755" y="-243" type="qcurve" smooth="yes"/>
      <point x="-755" y="-260"/>
      <point x="-750" y="-284" type="qcurve"/>
      <point x="-764" y="-286" type="line"/>
      <point x="-778" y="-249"/>
      <point x="-778" y="-212" type="qcurve" smooth="yes"/>
      <point x="-778" y="-100"/>
      <point x="-704" y="-100" type="qcurve"/>
      <point x="-643" y="-104"/>
      <point x="-643" y="-162" type="qcurve" smooth="yes"/>
      <point x="-643" y="-198"/>
      <point x="-715" y="-308"/>
      <point x="-715" y="-345" type="qcurve" smooth="yes"/>
      <point x="-715" y="-405"/>
      <point x="-619" y="-440" type="qcurve"/>
    </contour>
  </outline>
</glyph>
